<?xml version="1.0" standalone="no"?>
<!DOCTYPE svg PUBLIC "-//W3C//DTD SVG 1.1//EN" "http://www.w3.org/Graphics/SVG/1.1/DTD/svg11.dtd" >
<svg>
<metadata>
Created by FontForge 20090914 at Thu Sep  8 17:38:34 2022
 By www-data
Copyright (c) 2016 by Typetype. Designer Ivan Gladkikh, technical designers Olga Yumartova, Olexa Volochay. All rights reserved.
</metadata>
<defs>
<font id="TTLakes-Light" horiz-adv-x="570" >
  <font-face 
    font-family="TT Lakes Light"
    font-weight="300"
    font-stretch="normal"
    units-per-em="1000"
    panose-1="2 0 5 3 2 0 0 2 0 4"
    ascent="800"
    descent="-200"
    x-height="510"
    cap-height="700"
    bbox="-120.231 -255 1130 980"
    underline-thickness="50"
    underline-position="-100"
    unicode-range="U+000D-U+F6D4"
  />
<missing-glyph horiz-adv-x="0" 
 />
    <glyph glyph-name=".notdef" horiz-adv-x="0" 
 />
    <glyph glyph-name=".null" horiz-adv-x="0" 
 />
    <glyph glyph-name=".null" horiz-adv-x="0" 
 />
    <glyph glyph-name="nonmarkingreturn" unicode="&#xd;" horiz-adv-x="0" 
 />
    <glyph glyph-name="space" unicode=" " horiz-adv-x="190" 
 />
    <glyph glyph-name="exclam" unicode="!" horiz-adv-x="270" 
d="M120 0c-6.66699 0 -10 3.33301 -10 10v30c0 6.66699 3.33301 10 10 10h30c6.66699 0 10 -3.33301 10 -10v-30c0 -6.66699 -3.33301 -10 -10 -10h-30zM115 690c0 6.66699 3.33301 10 10 10h20c6.66699 0 10 -3.33301 10 -10v-340l-5 -160c0 -6.66699 -3.33301 -10 -10 -10
h-10c-6.66699 0 -10 3.33301 -10 10l-5 160v340z" />
    <glyph glyph-name="quotedbl" unicode="&#x22;" horiz-adv-x="335" 
d="M225 690c0 6.66699 3.33301 10 10 10h20c6.66699 0 10 -3.33301 10 -10v-200c0 -6.66699 -3.33301 -10 -10 -10h-20c-6.66699 0 -10 3.33301 -10 10v200zM70 690c0 6.66699 3.33301 10 10 10h20c6.66699 0 10 -3.33301 10 -10v-200c0 -6.66699 -3.33301 -10 -10 -10h-20
c-6.66699 0 -10 3.33301 -10 10v200z" />
    <glyph glyph-name="numbersign" unicode="#" horiz-adv-x="660" 
d="M465 470h-205l-65 -240h205zM185 190l-50 -180c-1.33301 -6.66699 -6.33301 -10 -15 -10h-20c-5.33301 0 -8.5 1 -9.5 3s-1.16699 4.33301 -0.5 7l50 180h-110c-6.66699 0 -10 3.33301 -10 10v20c0 6.66699 3.33301 10 10 10h120l65 240h-105
c-6.66699 0 -10 3.33301 -10 10v20c0 6.66699 3.33301 10 10 10h115l50 180c1.33301 6.66699 6.33301 10 15 10h20c5.33301 0 8.5 -1 9.5 -3s1.16699 -4.33301 0.5 -7l-50 -180h205l50 180c1.33301 6.66699 6.33301 10 15 10h20c5.33301 0 8.5 -1 9.5 -3
s1.16699 -4.33301 0.5 -7l-50 -180h110c6.66699 0 10 -3.33301 10 -10v-20c0 -6.66699 -3.33301 -10 -10 -10h-120l-65 -240h105c6.66699 0 10 -3.33301 10 -10v-20c0 -6.66699 -3.33301 -10 -10 -10h-115l-50 -180c-1.33301 -6.66699 -6.33301 -10 -15 -10h-20
c-5.33301 0 -8.5 1 -9.5 3s-1.16699 4.33301 -0.5 7l50 180h-205z" />
    <glyph glyph-name="dollar" unicode="$" horiz-adv-x="695" 
d="M380 710l50 -0.000976562c55.333 0 98.333 -15.167 129 -45.5s46 -71.833 46 -124.5v-35c0 -6.66699 -3.33301 -10 -10 -10h-25c-6.66699 0 -10 3.33301 -10 10v35c0 40 -11 70.833 -33 92.5s-54.333 32.5 -97 32.5h-155c-42.667 0 -75 -10.833 -97 -32.5
s-33 -52.5 -33 -92.5v-30c0 -22.667 5.83301 -40.834 17.5 -54.501s27.5 -23.834 47.5 -30.501l300 -100c28 -9.33301 50.833 -24.333 68.5 -45s26.5 -47.334 26.5 -80.001v-39c0 -53.333 -15.333 -95.166 -46 -125.499s-73.667 -45.5 -129 -45.5h-50v-90
c0 -6.66699 -3.33301 -10 -10 -10h-25c-6.66699 0 -10 3.33301 -10 10v90h-80c-55.333 0 -98.333 15.167 -129 45.5s-46 71.833 -46 124.5v35c0 6.66699 3.33301 10 10 10h25c6.66699 0 10 -3.33301 10 -10v-35c0 -40 11 -70.833 33 -92.5s54.333 -32.5 97 -32.5h175
c42.667 0 75 10.833 97 32.5s33 52.5 33 92.5v40c0 22.667 -5.83301 40.834 -17.5 54.501s-27.5 23.834 -47.5 30.501l-300 100c-28 9.33301 -50.833 24.333 -68.5 45s-26.5 47.334 -26.5 80.001v30c0 52.667 15.333 94.167 46 124.5s73.667 45.5 129 45.5h60v90
c0 6.66699 3.33301 10 10 10h25c6.66699 0 10 -3.33301 10 -10v-90z" />
    <glyph glyph-name="percent" unicode="%" horiz-adv-x="755" 
d="M245 10c-1.33301 -2.66699 -2.83301 -5 -4.5 -7s-5.16699 -3 -10.5 -3h-25c-6 -0 -7.66699 3.33301 -5 10l310 680c1.33301 2.66699 2.83301 5 4.5 7s5.16699 3 10.5 3h25c6 0 7.66699 -3.33301 5 -10zM50 590c0 35.333 9.66699 62.5 29 81.5s48 28.5 86 28.5h40
c38 0 66.667 -9.5 86 -28.5s29 -46.167 29 -81.5v-90c0 -35.333 -9.66699 -62.5 -29 -81.5s-48 -28.5 -86 -28.5h-40c-38 0 -66.667 9.5 -86 28.5s-29 46.167 -29 81.5v90zM280 590c0 46.667 -25 70 -75 70h-40c-50 0 -75 -23.333 -75 -70v-90c0 -46.667 25 -70 75 -70h40
c50 0 75 23.333 75 70v90zM435 200c0 35.333 9.66699 62.5 29 81.5s48 28.5 86 28.5h40c38 0 66.667 -9.5 86 -28.5s29 -46.167 29 -81.5v-90c0 -35.333 -9.66699 -62.5 -29 -81.5s-48 -28.5 -86 -28.5h-40c-38 0 -66.667 9.5 -86 28.5s-29 46.167 -29 81.5v90zM665 200
c0 46.667 -25 70 -75 70h-40c-50 0 -75 -23.333 -75 -70v-90c0 -46.667 25 -70 75 -70h40c50 0 75 23.333 75 70v90z" />
    <glyph glyph-name="ampersand" unicode="&#x26;" horiz-adv-x="668" 
d="M245 330l-10.001 0.000976562c-80 0 -120 -38.333 -120 -115v-65c0 -76.667 40 -115 120 -115h70c23.333 0 45 4.66699 65 14s37 19.666 51 30.999c16.667 12.667 31.334 27.667 44.001 45zM174.999 520.001c0 -15.333 1.49902 -28.4961 4.49902 -39.4961
s7.5 -21.5 13.5 -31.5s13.333 -19.667 22 -29s18.667 -19.333 30 -30l250 -235l70 85c4.66699 5.33301 9.66699 5.33301 15 0l15 -15c4.66699 -5.33301 4.66699 -10.333 0 -15l-70 -80l130 -120c2.66699 -2.66699 3.66699 -5 3 -7s-3.33398 -3 -8.00098 -3h-40
c-5.33301 0 -9.33301 1 -12 3s-5.33398 4.33301 -8.00098 7l-90 85c-16 -20 -34 -37.667 -54 -53c-17.333 -13.333 -38 -25.333 -62 -36s-50.333 -16 -79 -16h-70c-52.667 0 -93.334 14.167 -122.001 42.5s-43 67.5 -43 117.5v65c0 37.333 7.33301 66.166 22 86.499
s30.667 35.166 48 44.499c20.667 11.333 44 17.666 70 18.999l-25 25c-5.33301 4.66699 -11.166 10.667 -17.499 18s-12.166 16.166 -17.499 26.499s-10 22.5 -14 36.5s-6 30.333 -6 49v30c0 50 14.333 89.167 43 117.5s69.334 42.5 122.001 42.5h50
c52.667 0 93.334 -14.167 122.001 -42.5s43 -67.5 43 -117.5v-10c0 -6.66699 -3.33301 -10 -10 -10h-25c-6.66699 0 -10 3.33301 -10 10v10c0 76.667 -40 115 -120 115h-50c-80 0 -120 -38.333 -120 -115v-30z" />
    <glyph glyph-name="quotesingle" unicode="'" horiz-adv-x="180" 
d="M110 490c0 -6.66699 -3.33301 -10 -10 -10h-20c-6.66699 0 -10 3.33301 -10 10v200c0 6.66699 3.33301 10 10 10h20c6.66699 0 10 -3.33301 10 -10v-200z" />
    <glyph glyph-name="parenleft" unicode="(" horiz-adv-x="345" 
d="M100 560c0 52.667 15.333 94.167 46 124.5s73.667 45.5 129 45.5h20c6.66699 0 10 -3.33301 10 -10v-25c0 -6.66699 -3.33301 -10 -10 -10h-20c-42.667 0 -75 -10.833 -97 -32.5s-33 -52.5 -33 -92.5v-560c0 -40 11 -70.833 33 -92.5s54.333 -32.5 97 -32.5h20
c6.66699 0 10 -3.33301 10 -10v-25c0 -6.66699 -3.33301 -10 -10 -10h-20c-55.333 0 -98.333 15.167 -129 45.5s-46 71.833 -46 124.5v560z" />
    <glyph glyph-name="parenright" unicode=")" horiz-adv-x="345" 
d="M245 0c0 -52.667 -15.333 -94.167 -46 -124.5s-73.667 -45.5 -129 -45.5h-20c-6.66699 0 -10 3.33301 -10 10v25c0 6.66699 3.33301 10 10 10h20c42.667 0 75 10.833 97 32.5s33 52.5 33 92.5v560c0 40 -11 70.833 -33 92.5s-54.333 32.5 -97 32.5h-20
c-6.66699 0 -10 3.33301 -10 10v25c0 6.66699 3.33301 10 10 10h20c55.333 0 98.333 -15.167 129 -45.5s46 -71.833 46 -124.5v-560z" />
    <glyph glyph-name="asterisk" unicode="*" horiz-adv-x="350" 
d="M95 420c-2.66699 -2.66699 -6 -2.66699 -10 0l-20 15c-2.66699 2.66699 -2.66699 6 0 10l80 100h-105c-6.66699 0 -10 3.33301 -10 10v20c0 6.66699 3.33301 10 10 10h115v105c0 6.66699 3.33301 10 10 10h20c6.66699 0 10 -3.33301 10 -10v-105h115
c6.66699 0 10 -3.33301 10 -10v-20c0 -6.66699 -3.33301 -10 -10 -10h-105l80 -100c2.66699 -4 2.66699 -7.33301 0 -10l-20 -15c-4 -2.66699 -7.33301 -2.66699 -10 0l-80 100z" />
    <glyph glyph-name="plus" unicode="+" horiz-adv-x="435" 
d="M240 110c0 -6.66699 -3.33301 -10 -10 -10h-25c-6.66699 0 -10 3.33301 -10 10v170h-155c-6.66699 0 -10 3.33301 -10 10v25c0 6.66699 3.33301 10 10 10h155v170c0 6.66699 3.33301 10 10 10h25c6.66699 0 10 -3.33301 10 -10v-170h155c6.66699 0 10 -3.33301 10 -10
v-25c0 -6.66699 -3.33301 -10 -10 -10h-155v-170z" />
    <glyph glyph-name="comma" unicode="," horiz-adv-x="157" 
d="M107 20c0 -2.66699 -0.332031 -5.16699 -0.999023 -7.5s-1.33398 -4.5 -2.00098 -6.5c-0.666992 -2.66699 -1.33398 -4.66699 -2.00098 -6l-45 -90c-1.33301 -2.66699 -2.83301 -5 -4.5 -7s-5.16699 -3 -10.5 -3s-8.66602 1 -9.99902 3s-1.33301 4.33301 0 7l45 90h-10
c-6.66699 -0 -10 3.33301 -10 10v30c0 6.66699 3.33301 10 10 10h30c6.66699 0 10 -3.33301 10 -10v-20z" />
    <glyph glyph-name="hyphen" unicode="-" horiz-adv-x="420" 
d="M40 280c-6.66699 0 -10 3.33301 -10 10v25c0 6.66699 3.33301 10 10 10h340c6.66699 0 10 -3.33301 10 -10v-25c0 -6.66699 -3.33301 -10 -10 -10h-340z" />
    <glyph glyph-name="period" unicode="." horiz-adv-x="150" 
d="M60 0c-6.66699 0 -10 3.33301 -10 10v30c0 6.66699 3.33301 10 10 10h30c6.66699 0 10 -3.33301 10 -10v-30c0 -6.66699 -3.33301 -10 -10 -10h-30z" />
    <glyph glyph-name="slash" unicode="/" horiz-adv-x="357" 
d="M76 10c-1.33301 -2.66699 -2.83301 -5 -4.5 -7s-5.16699 -3 -10.5 -3h-25c-6 -0 -7.66699 3.33301 -5 10l250 680c1.33301 2.66699 2.83301 5 4.5 7s5.16699 3 10.5 3h25c6 0 7.66699 -3.33301 5 -10z" />
    <glyph glyph-name="zero" unicode="0" horiz-adv-x="720" 
d="M620 160c0 -52.667 -15.333 -94.167 -46 -124.5s-73.667 -45.5 -129 -45.5h-170c-55.333 0 -98.333 15.167 -129 45.5s-46 71.833 -46 124.5v380c0 52.667 15.333 94.167 46 124.5s73.667 45.5 129 45.5h170c55.333 0 98.333 -15.167 129 -45.5s46 -71.833 46 -124.5
v-380zM575 540c0 40 -11 70.833 -33 92.5s-54.333 32.5 -97 32.5h-170c-42.667 0 -75 -10.833 -97 -32.5s-33 -52.5 -33 -92.5v-380c0 -40 11 -70.833 33 -92.5s54.333 -32.5 97 -32.5h170c42.667 0 75 10.833 97 32.5s33 52.5 33 92.5v380z" />
    <glyph glyph-name="one" unicode="1" horiz-adv-x="340" 
d="M230 10c0 -6.66699 -3.33301 -10 -10 -10h-25c-6.66699 -0 -10 3.33301 -10 10v645h-155c-6.66699 0 -10 3.33301 -10 10v25c0 6.66699 3.33301 10 10 10h190c6.66699 0 10 -3.33301 10 -10v-680z" />
    <glyph glyph-name="two" unicode="2" horiz-adv-x="635" 
d="M545 500c0 -17.333 -2.66699 -33.332 -8 -47.999s-12.333 -28.334 -21 -41.001s-18.667 -24.834 -30 -36.501s-23.333 -23.167 -36 -34.5l-315 -290v-5h400c6.66699 0 10 -3.33301 10 -10v-25c0 -6.66699 -3.33301 -10 -10 -10h-455c-6.66699 0 -10 3.33301 -10 10v25
c0 4.66699 1.66699 9.33398 5 14.001c1.33301 2.66699 3 4.66699 5 6l340 315c22 20 40.833 39.833 56.5 59.5s23.5 43.167 23.5 70.5v40c0 40 -11 70.833 -33 92.5s-54.333 32.5 -97 32.5h-125c-42.667 0 -75 -10.833 -97 -32.5s-33 -52.5 -33 -92.5v-35
c0 -6.66699 -3.33301 -10 -10 -10h-25c-6.66699 0 -10 3.33301 -10 10v35c0 52.667 15.333 94.167 46 124.5s73.667 45.5 129 45.5h125c55.333 0 98.333 -15.167 129 -45.5s46 -71.833 46 -124.5v-40z" />
    <glyph glyph-name="three" unicode="3" horiz-adv-x="640" 
d="M90 655c-6.66699 0 -10 3.33203 -10 9.99902v25c0 6.66699 3.33301 10 10 10h440c6.66699 0 10 -3.33301 10 -10v-15c0 -2.66699 -0.5 -5.16699 -1.5 -7.5s-2.16699 -4.5 -3.5 -6.5c-2 -2.66699 -3.66699 -4.66699 -5 -6l-260 -240v-5h105
c55.333 0 98.333 -15.167 129 -45.5s46 -71.833 46 -124.5v-80c0 -52.667 -15.333 -94.167 -46 -124.5s-73.667 -45.5 -129 -45.5h-140c-55.333 0 -98.333 15.167 -129 45.5s-46 71.833 -46 124.5v35c0 6.66699 3.33301 10 10 10h25c6.66699 0 10 -3.33301 10 -10v-35
c0 -40 11 -70.833 33 -92.5s54.333 -32.5 97 -32.5h140c42.667 0 75 10.833 97 32.5s33 52.5 33 92.5v80c0 40 -11 70.833 -33 92.5s-54.333 32.5 -97 32.5h-170c-6.66699 0 -10 3.33301 -10 10v15c0 4.66699 1.66699 9.33398 5 14.001c1.33301 2.66699 3 4.66699 5 6
l260 240v5h-375z" />
    <glyph glyph-name="four" unicode="4" horiz-adv-x="610" 
d="M570 200c0 -6.66699 -3.33301 -10.001 -10 -10.001h-85v-180c0 -6.66699 -3.33301 -10 -10 -10h-25c-6.66699 0 -10 3.33301 -10 10v180h-390c-6.66699 0 -10 3.33301 -10 10v20c0 4.66699 1.66699 9.33398 5 14.001c1.33301 2.66699 3 4.66699 5 6l365 450
c0.666992 1.33301 2 3 4 5c1.33301 1.33301 3.33301 2.5 6 3.5s6 1.5 10 1.5h40c6.66699 0 10 -3.33301 10 -10v-455h85c6.66699 0 10 -3.33301 10 -10v-25zM425 649.999l-164.5 -205l-165.5 -205v-5h335v415h-5z" />
    <glyph glyph-name="five" unicode="5" horiz-adv-x="640" 
d="M155 410h240c55.333 0 98.333 -15.167 129 -45.5s46 -71.833 46 -124.5v-80c0 -52.667 -15.333 -94.167 -46 -124.5s-73.667 -45.5 -129 -45.5h-140c-55.333 0 -98.333 15.167 -129 45.5s-46 71.833 -46 124.5v35c0 6.66699 3.33301 10 10 10h25
c6.66699 0 10 -3.33301 10 -10v-35c0 -40 11 -70.833 33 -92.5s54.333 -32.5 97 -32.5h140c42.667 0 75 10.833 97 32.5s33 52.5 33 92.5v80c0 40 -11 70.833 -33 92.5s-54.333 32.5 -97 32.5h-275c-6.66699 0 -10 3.33301 -10 10v315c0 6.66699 3.33301 10 10 10h415
c6.66699 0 10 -3.33301 10 -10v-25c0 -6.66699 -3.33301 -10 -10 -10h-380v-245z" />
    <glyph glyph-name="six" unicode="6" horiz-adv-x="685" 
d="M595 160c0 -52.667 -15.333 -94.167 -46 -124.5s-73.667 -45.5 -129 -45.5h-145c-55.333 0 -98.333 15.167 -129 45.5s-46 71.833 -46 124.5v380c0 52.667 15.333 94.167 46 124.5s73.667 45.5 129 45.5h125c55.333 0 98.333 -15.167 129 -45.5s46 -71.833 46 -124.5v-25
c0 -6.66699 -3.33301 -10 -10 -10h-25c-6.66699 0 -10 3.33301 -10 10v25c0 40 -11 70.833 -33 92.5s-54.333 32.5 -97 32.5h-125c-42.667 0 -75 -10.833 -97 -32.5s-33 -52.5 -33 -92.5v-135h275c55.333 0 98.333 -15.167 129 -45.5s46 -71.833 46 -124.5v-75zM550 235
c0 40 -11 70.833 -33 92.5s-54.333 32.5 -97 32.5h-275v-200c0 -40 11 -70.833 33 -92.5s54.333 -32.5 97 -32.5h145c42.667 0 75 10.833 97 32.5s33 52.5 33 92.5v75z" />
    <glyph glyph-name="seven" unicode="7" horiz-adv-x="535" 
d="M505 675c0 -2.66699 -0.5 -5.66797 -1.5 -9.00098s-2.16699 -6.66602 -3.5 -9.99902c-2 -3.33301 -3.66699 -7 -5 -11l-290 -635c-1.33301 -2.66699 -2.83301 -5 -4.5 -7s-5.16699 -3 -10.5 -3h-30c-2.66699 0 -4.5 1 -5.5 3s-0.833008 4.33301 0.5 7l295 645h-410
c-6.66699 0 -10 3.33301 -10 10v25c0 6.66699 3.33301 10 10 10h455c6.66699 0 10 -3.33301 10 -10v-15z" />
    <glyph glyph-name="eight" unicode="8" horiz-adv-x="670" 
d="M590 160c0 -52.667 -15.3311 -94.167 -45.998 -124.5s-73.667 -45.5 -129 -45.5h-160c-55.333 0 -98.333 15.167 -129 45.5s-46 71.833 -46 124.5v50c0 32.667 5.66699 58.667 17 78s24 34.333 38 45c16 12 34.333 20.333 55 25v4c-18.667 4.66699 -35.334 13 -50.001 25
c-12.667 10 -24.167 24.167 -34.5 42.5s-15.5 43.5 -15.5 75.5v35c0 52.667 15.333 94.167 46 124.5s73.667 45.5 129 45.5h140c55.333 0 98.333 -15.167 129 -45.5s46 -71.833 46 -124.5v-35c0 -32 -5.16699 -57.167 -15.5 -75.5s-21.833 -32.5 -34.5 -42.5
c-14.667 -12 -31.334 -20.333 -50.001 -25v-4c20 -4.66699 38.333 -13 55 -25c13.333 -10.667 25.833 -25.667 37.5 -45s17.5 -45.333 17.5 -78v-50zM255.002 335c-42.667 0 -75 -10.833 -97 -32.5s-33 -52.5 -33 -92.5v-50c0 -40 11 -70.833 33 -92.5
s54.333 -32.5 97 -32.5h160c42.667 0 75 10.833 97 32.5s33 52.5 33 92.5v50c0 40 -11 70.833 -33 92.5s-54.333 32.5 -97 32.5h-160zM265.002 665c-42.667 0 -75 -10.833 -97 -32.5s-33 -52.5 -33 -92.5v-35c0 -40 11 -70.833 33 -92.5s54.333 -32.5 97 -32.5h140
c42.667 0 75 10.833 97 32.5s33 52.5 33 92.5v35c0 40 -11 70.833 -33 92.5s-54.333 32.5 -97 32.5h-140z" />
    <glyph glyph-name="nine" unicode="9" horiz-adv-x="685" 
d="M90 540c0 52.667 15.333 94.167 46 124.5s73.667 45.5 129 45.5h145c55.333 0 98.333 -15.167 129 -45.5s46 -71.833 46 -124.5v-380c0 -52.667 -15.333 -94.167 -46 -124.5s-73.667 -45.5 -129 -45.5h-125c-55.333 0 -98.333 15.167 -129 45.5s-46 71.833 -46 124.5v25
c0 6.66699 3.33301 10 10 10h25c6.66699 0 10 -3.33301 10 -10v-25c0 -40 11 -70.833 33 -92.5s54.333 -32.5 97 -32.5h125c42.667 0 75 10.833 97 32.5s33 52.5 33 92.5v135h-275c-55.333 0 -98.333 15.167 -129 45.5s-46 71.833 -46 124.5v75zM135 465
c0 -40 11 -70.833 33 -92.5s54.333 -32.5 97 -32.5h275v200c0 40 -11 70.833 -33 92.5s-54.333 32.5 -97 32.5h-145c-42.667 0 -75 -10.833 -97 -32.5s-33 -52.5 -33 -92.5v-75z" />
    <glyph glyph-name="colon" unicode=":" horiz-adv-x="150" 
d="M60 0c-6.66699 0 -10 3.33301 -10 10v30c0 6.66699 3.33301 10 10 10h30c6.66699 0 10 -3.33301 10 -10v-30c0 -6.66699 -3.33301 -10 -10 -10h-30zM60 460c-6.66699 0 -10 3.33301 -10 10v30c0 6.66699 3.33301 10 10 10h30c6.66699 0 10 -3.33301 10 -10v-30
c0 -6.66699 -3.33301 -10 -10 -10h-30z" />
    <glyph glyph-name="semicolon" unicode=";" horiz-adv-x="157" 
d="M67 460c-6.66699 0 -10 3.33301 -10 10v30c0 6.66699 3.33301 10 10 10h30c6.66699 0 10 -3.33301 10 -10v-30c0 -6.66699 -3.33301 -10 -10 -10h-30zM107 20c0 -2.66699 -0.332031 -5.16699 -0.999023 -7.5s-1.33398 -4.5 -2.00098 -6.5
c-0.666992 -2.66699 -1.33398 -4.66699 -2.00098 -6l-45 -90c-1.33301 -2.66699 -2.83301 -5 -4.5 -7s-5.16699 -3 -10.5 -3s-8.66602 1 -9.99902 3s-1.33301 4.33301 0 7l45 90h-10c-6.66699 -0 -10 3.33301 -10 10v30c0 6.66699 3.33301 10 10 10h30
c6.66699 0 10 -3.33301 10 -10v-20z" />
    <glyph glyph-name="less" unicode="&#x3c;" horiz-adv-x="500" 
d="M40 255c0 4 1.66699 7.66797 5 11.001c1.33301 1.33301 3 2.66602 5 3.99902l400 195c1.33301 0.666992 3 1 5 1c3.33301 0 5 -2 5 -6v-25c0 -4 -1.66699 -7.66699 -5 -11c-2 -2 -3.66699 -3.33301 -5 -4l-355 -170v-5l355 -170c1.33301 -1.33301 3 -2.66602 5 -3.99902
c1.33301 -1.33301 2.5 -2.83301 3.5 -4.5s1.5 -3.83398 1.5 -6.50098v-25c0 -4 -1.66699 -6 -5 -6c-2 0 -3.66699 0.333008 -5 1l-400 195c-2 0.666992 -3.66699 2 -5 4c-3.33301 2 -5 5.66699 -5 11v15z" />
    <glyph glyph-name="equal" unicode="=" horiz-adv-x="440" 
d="M50 190c-6.66699 0 -10 3.33301 -10 10v25c0 6.66699 3.33301 10 10 10h340c6.66699 0 10 -3.33301 10 -10v-25c0 -6.66699 -3.33301 -10 -10 -10h-340zM50 370c-6.66699 0 -10 3.33301 -10 10v25c0 6.66699 3.33301 10 10 10h340c6.66699 0 10 -3.33301 10 -10v-25
c0 -6.66699 -3.33301 -10 -10 -10h-340z" />
    <glyph glyph-name="greater" unicode="&#x3e;" horiz-adv-x="500" 
d="M460 240c0 -4 -1.66699 -7.66602 -5 -10.999c-2 -2 -3.66699 -3.33301 -5 -4l-400 -195c-2 -0.666992 -3.66699 -1 -5 -1c-3.33301 0 -5 2 -5 6v25c0 4 1.66699 7.66699 5 11c1.33301 1.33301 3 2.66602 5 3.99902l355 170v5l-355 170c-2 0.666992 -3.66699 2 -5 4
c-3.33301 2 -5 5.66699 -5 11v25c0 4 1.66699 6 5 6c1.33301 0 3 -0.333008 5 -1l400 -195c1.33301 -1.33301 3 -2.66602 5 -3.99902c1.33301 -1.33301 2.5 -2.83301 3.5 -4.5s1.5 -3.83398 1.5 -6.50098v-15z" />
    <glyph glyph-name="question" unicode="?" horiz-adv-x="595" 
d="M300 270l-5 -80c0 -6.66699 -3.33301 -10 -10 -10h-10c-6.66699 0 -10 3.33301 -10 10l-5 115c0 6.66699 3.33301 10 10 10h80c42.667 0 75 10.833 97 32.5s33 52.5 33 92.5v100c0 40 -11 70.833 -33 92.5s-54.333 32.5 -97 32.5h-125c-42.667 0 -75 -10.833 -97 -32.5
s-33 -52.5 -33 -92.5v-35c0 -6.66699 -3.33301 -10 -10 -10h-25c-6.66699 0 -10 3.33301 -10 10v35c0 52.667 15.333 94.167 46 124.5s73.667 45.5 129 45.5h125c55.333 0 98.333 -15.167 129 -45.5s46 -71.833 46 -124.5v-100c0 -52.667 -15.333 -94.167 -46 -124.5
s-73.667 -45.5 -129 -45.5h-50zM265 0c-6.66699 0 -10 3.33301 -10 10v30c0 6.66699 3.33301 10 10 10h30c6.66699 0 10 -3.33301 10 -10v-30c0 -6.66699 -3.33301 -10 -10 -10h-30z" />
    <glyph glyph-name="at" unicode="@" horiz-adv-x="990" 
d="M805 -110c6.66699 0 10.001 -3.33203 10.001 -9.99902v-25c0 -6.66699 -3.33301 -10 -10 -10h-530c-55.333 0 -98.333 15.167 -129 45.5s-46 71.833 -46 124.5v490c0 52.667 15.333 94.167 46 124.5s73.667 45.5 129 45.5h440c55.333 0 98.333 -15.167 129 -45.5
s46 -71.833 46 -124.5v-285c0 -50 -14.333 -89.167 -43 -117.5s-69.334 -42.5 -122.001 -42.5h-100c-6.66699 0 -10 3.33301 -10 10v25h-5c-4 -8.66699 -9.66699 -16.334 -17 -23.001c-6.66699 -5.33301 -15.834 -10.333 -27.501 -15s-26.834 -7 -45.501 -7h-65
c-42.667 0 -75 10.833 -97 32.5s-33 52.5 -33 92.5v165c0 40 11 70.833 33 92.5s54.333 32.5 97 32.5h65c18.667 0 33.834 -2.5 45.501 -7.5s20.834 -10.167 27.501 -15.5c7.33301 -6.66699 13 -14 17 -22h5v25c0 6.66699 3.33301 10 10 10h25c6.66699 0 10 -3.33301 10 -10
v-340h65c80 0 120 38.333 120 115v285c0 40 -11 70.833 -33 92.5s-54.333 32.5 -97 32.5h-440c-42.667 0 -75 -10.833 -97 -32.5s-33 -52.5 -33 -92.5v-490c0 -40 11 -70.833 33 -92.5s54.333 -32.5 97 -32.5h530zM615.001 330.001c0 60 -31.667 90 -95 90h-65
c-30 0 -51.667 -6.33301 -65 -19s-20 -33 -20 -61v-165c0 -28 6.66699 -48.333 20 -61s35 -19 65 -19h65c63.333 0 95 30 95 90v145z" />
    <glyph glyph-name="A" unicode="A" horiz-adv-x="647" 
d="M146 205l-75.002 -195c-1.33301 -2.66699 -2.83301 -5 -4.5 -7s-5.16699 -3 -10.5 -3h-25c-9.33301 -0 -12.666 3.33301 -9.99902 10l275 680c1.33301 3.33301 2.83301 5.83301 4.5 7.5s5.16699 2.5 10.5 2.5h25c5.33301 0 8.83301 -0.833008 10.5 -2.5
s3.16699 -4.16699 4.5 -7.5l275 -680c2.66699 -6.66699 -0.666016 -10 -9.99902 -10h-25c-5.33301 0 -8.83301 1 -10.5 3s-3.16699 4.33301 -4.5 7l-75 195h-355zM480.998 250l-155 395h-5l-155 -395h315z" />
    <glyph glyph-name="B" unicode="B" horiz-adv-x="705" 
d="M550 530c0 40 -11 70.833 -33 92.5s-54.333 32.5 -97 32.5h-265v-260h265c42.667 0 75 10.833 97 32.5s33 52.5 33 92.5v10zM595 520c0 -29.333 -4.49902 -52.833 -13.499 -70.5s-18.833 -31.5 -29.5 -41.5c-12 -12 -26 -20.667 -42 -26v-4c23.333 -4 44 -12 62 -24
c15.333 -10.667 29.666 -26 42.999 -46s20 -47.667 20 -83v-55c0 -52.667 -15.333 -94.167 -46 -124.5s-73.667 -45.5 -129 -45.5h-340c-6.66699 -0 -10 3.33301 -10 10v680c0 6.66699 3.33301 10 10 10h300c55.333 0 98.333 -15.167 129 -45.5s46 -71.833 46 -124.5v-10z
M590.001 225c0 40 -11 70.833 -33 92.5s-54.333 32.5 -97 32.5h-305v-305h305c42.667 0 75 10.833 97 32.5s33 52.5 33 92.5v55z" />
    <glyph glyph-name="C" unicode="C" horiz-adv-x="755" 
d="M665 160c0 -52.667 -15.333 -94.167 -46 -124.5s-73.667 -45.5 -129 -45.5h-215c-55.333 0 -98.333 15.167 -129 45.5s-46 71.833 -46 124.5v380c0 52.667 15.333 94.167 46 124.5s73.667 45.5 129 45.5h215c55.333 0 98.333 -15.167 129 -45.5s46 -71.833 46 -124.5v-35
c0 -6.66699 -3.33301 -10 -10 -10h-25c-6.66699 0 -10 3.33301 -10 10v35c0 40 -11 70.833 -33 92.5s-54.333 32.5 -97 32.5h-215c-42.667 0 -75 -10.833 -97 -32.5s-33 -52.5 -33 -92.5v-380c0 -40 11 -70.833 33 -92.5s54.333 -32.5 97 -32.5h215
c42.667 0 75 10.833 97 32.5s33 52.5 33 92.5v35c0 6.66699 3.33301 10 10 10h25c6.66699 0 10 -3.33301 10 -10v-35z" />
    <glyph glyph-name="D" unicode="D" horiz-adv-x="760" 
d="M485 700c55.333 0 98.333 -15.167 129 -45.5s46 -71.833 46 -124.5v-360c0 -52.667 -15.333 -94.167 -46 -124.5s-73.667 -45.5 -129 -45.5h-365c-6.66699 -0 -10 3.33301 -10 10v680c0 6.66699 3.33301 10 10 10h365zM155 45h330c42.667 0 75 10.833 97 32.5
s33 52.5 33 92.5v360c0 40 -11 70.833 -33 92.5s-54.333 32.5 -97 32.5h-330v-610z" />
    <glyph glyph-name="E" unicode="E" horiz-adv-x="660" 
d="M155 380h355c6.66699 0 10 -3.33301 10 -10v-25c0 -6.66699 -3.33301 -10 -10 -10h-355v-290h455c6.66699 0 10 -3.33301 10 -10v-25c0 -6.66699 -3.33301 -10 -10 -10h-490c-6.66699 -0 -10 3.33301 -10 10v680c0 6.66699 3.33301 10 10 10h480
c6.66699 0 10 -3.33301 10 -10v-25c0 -6.66699 -3.33301 -10 -10 -10h-445v-275z" />
    <glyph glyph-name="F" unicode="F" horiz-adv-x="630" 
d="M155 10c0 -6.66699 -3.33301 -10 -10 -10h-25c-6.66699 -0 -10 3.33301 -10 10v680c0 6.66699 3.33301 10 10 10h480c6.66699 0 10 -3.33301 10 -10v-25c0 -6.66699 -3.33301 -10 -10 -10h-445v-310h315c6.66699 0 10 -3.33301 10 -10v-25
c0 -6.66699 -3.33301 -10 -10 -10h-315v-290z" />
    <glyph glyph-name="G" unicode="G" horiz-adv-x="765" 
d="M665 160c0 -52.667 -15.333 -94.167 -46 -124.5s-73.667 -45.5 -129 -45.5h-215c-55.333 0 -98.333 15.167 -129 45.5s-46 71.833 -46 124.5v380c0 52.667 15.333 94.167 46 124.5s73.667 45.5 129 45.5h215c55.333 0 98.333 -15.167 129 -45.5s46 -71.833 46 -124.5v-35
c0 -6.66699 -3.33301 -10 -10 -10h-25c-6.66699 0 -10 3.33301 -10 10v35c0 40 -11 70.833 -33 92.5s-54.333 32.5 -97 32.5h-215c-42.667 0 -75 -10.833 -97 -32.5s-33 -52.5 -33 -92.5v-380c0 -40 11 -70.833 33 -92.5s54.333 -32.5 97 -32.5h215
c42.667 0 75 10.833 97 32.5s33 52.5 33 92.5v145h-180c-6.66699 0 -10 3.33301 -10 10v25c0 6.66699 3.33301 10 10 10h215c6.66699 0 10 -3.33301 10 -10v-180z" />
    <glyph glyph-name="H" unicode="H" horiz-adv-x="745" 
d="M155 375h435v315c0 6.66699 3.33301 10 10 10h25c6.66699 0 10 -3.33301 10 -10v-680c0 -6.66699 -3.33301 -10 -10 -10h-25c-6.66699 -0 -10 3.33301 -10 10v320h-435v-320c0 -6.66699 -3.33301 -10 -10 -10h-25c-6.66699 -0 -10 3.33301 -10 10v680
c0 6.66699 3.33301 10 10 10h25c6.66699 0 10 -3.33301 10 -10v-315z" />
    <glyph glyph-name="I" unicode="I" horiz-adv-x="265" 
d="M155 10c0 -6.66699 -3.33301 -10 -10 -10h-25c-6.66699 -0 -10 3.33301 -10 10v680c0 6.66699 3.33301 10 10 10h25c6.66699 0 10 -3.33301 10 -10v-680z" />
    <glyph glyph-name="J" unicode="J" horiz-adv-x="670" 
d="M560 160c0 -52.667 -15.333 -94.167 -46 -124.5s-73.667 -45.5 -129 -45.5h-140c-55.333 0 -98.333 15.167 -129 45.5s-46 71.833 -46 124.5v50c0 6.66699 3.33301 10 10 10h25c6.66699 0 10 -3.33301 10 -10v-50c0 -40 11 -70.833 33 -92.5s54.333 -32.5 97 -32.5h140
c42.667 0 75 10.833 97 32.5s33 52.5 33 92.5v530c0 6.66699 3.33301 10 10 10h25c6.66699 0 10 -3.33301 10 -10v-530z" />
    <glyph glyph-name="K" unicode="K" horiz-adv-x="677" 
d="M155 390h245.001l165 300c2 3.33301 3.66699 5.83301 5 7.5s4.66602 2.5 9.99902 2.5h30c2.66699 0 4.5 -1 5.5 -3s0.833008 -4.33301 -0.5 -7l-180 -320l200 -360c1.33301 -2.66699 1.5 -5 0.5 -7s-2.83301 -3 -5.5 -3h-30c-5.33301 0 -8.83301 1 -10.5 3
s-3.16699 4.33301 -4.5 7l-185 335h-245v-335c0 -6.66699 -3.33301 -10 -10 -10h-25c-6.66699 -0 -10 3.33301 -10 10v680c0 6.66699 3.33301 10 10 10h25c6.66699 0 10 -3.33301 10 -10v-300z" />
    <glyph glyph-name="L" unicode="L" horiz-adv-x="615" 
d="M155 45h430c6.66699 0 10 -3.33301 10 -10v-25c0 -6.66699 -3.33301 -10 -10 -10h-465c-6.66699 -0 -10 3.33301 -10 10v680c0 6.66699 3.33301 10 10 10h25c6.66699 0 10 -3.33301 10 -10v-645z" />
    <glyph glyph-name="M" unicode="M" horiz-adv-x="965" 
d="M480 60h4.99609l305 630c3.33301 6.66699 10 10 20 10h35c6.66699 0 10 -3.33301 10 -10v-680c0 -6.66699 -3.33301 -10 -10 -10h-25c-6.66699 -0 -10 3.33301 -10 10v610h-5l-295 -610c-1.33301 -2.66699 -3.66602 -5 -6.99902 -7s-7.66602 -3 -12.999 -3h-15
c-5.33301 0 -9.66602 1 -12.999 3s-5.66602 4.33301 -6.99902 7l-295 610h-5v-610c0 -6.66699 -3.33301 -10 -10 -10h-25c-6.66699 -0 -10 3.33301 -10 10v680c0 6.66699 3.33301 10 10 10h35c10 0 16.667 -3.33301 20 -10z" />
    <glyph glyph-name="N" unicode="N" horiz-adv-x="775" 
d="M620 690c0 6.66699 3.33301 10 10 10h25c6.66699 0 10 -3.33301 10 -10v-680c0 -6.66699 -3.33301 -10 -10 -10h-35c-5.33301 0 -9.5 1 -12.5 3s-5.5 4.33301 -7.5 7l-440 625h-5v-625c0 -6.66699 -3.33301 -10 -10 -10h-25c-6.66699 -0 -10 3.33301 -10 10v680
c0 6.66699 3.33301 10 10 10h35c5.33301 0 9.5 -1 12.5 -3s5.5 -4.33301 7.5 -7l440 -625h5v625z" />
    <glyph glyph-name="O" unicode="O" horiz-adv-x="775" 
d="M100 540c0 52.667 15.333 94.167 46 124.5s73.667 45.5 129 45.5h225c55.333 0 98.333 -15.167 129 -45.5s46 -71.833 46 -124.5v-380c0 -52.667 -15.333 -94.167 -46 -124.5s-73.667 -45.5 -129 -45.5h-225c-55.333 0 -98.333 15.167 -129 45.5s-46 71.833 -46 124.5
v380zM145 160c0 -40 11 -70.833 33 -92.5s54.333 -32.5 97 -32.5h225c42.667 0 75 10.833 97 32.5s33 52.5 33 92.5v380c0 40 -11 70.833 -33 92.5s-54.333 32.5 -97 32.5h-225c-42.667 0 -75 -10.833 -97 -32.5s-33 -52.5 -33 -92.5v-380z" />
    <glyph glyph-name="P" unicode="P" horiz-adv-x="720" 
d="M155 235v-225c0 -6.66699 -3.33301 -10 -10 -10h-25c-6.66699 -0 -10 3.33301 -10 10v680c0 6.66699 3.33301 10 10 10h335c55.333 0 98.333 -15.167 129 -45.5s46 -71.833 46 -124.5v-125c0 -52.667 -15.333 -94.167 -46 -124.5s-73.667 -45.5 -129 -45.5h-300zM155 655
v-375h300c42.667 0 75 10.833 97 32.5s33 52.5 33 92.5v125c0 40 -11 70.833 -33 92.5s-54.333 32.5 -97 32.5h-300z" />
    <glyph glyph-name="Q" unicode="Q" horiz-adv-x="784" 
d="M100 540c0 52.667 15.332 94.166 45.999 124.499s73.667 45.5 129 45.5h225c55.333 0 98.333 -15.167 129 -45.5s46 -71.833 46 -124.5v-380c0 -15.333 -1.33301 -28.833 -4 -40.5s-5.66699 -21.5 -9 -29.5c-3.33301 -9.33301 -7.33301 -17.666 -12 -24.999l90 -100
c4.66699 -5.33301 4.66699 -10.333 0 -15l-15 -15c-5.33301 -5.33301 -10.333 -5.33301 -15 0l-85 95c-8.66699 -7.33301 -19 -14 -31 -20c-10.667 -5.33301 -23.667 -10 -39 -14s-33.666 -6 -54.999 -6h-225c-55.333 0 -98.333 15.167 -129 45.5s-46 71.833 -46 124.5v380z
M513.999 149.999c-4.66699 5.33301 -4.66504 10.335 0.00195312 15.002l15 15c5.33301 5.33301 10.333 5.33301 15 0l76 -85c1.33301 6.66699 3 13.667 5 21c1.33301 6 2.5 13 3.5 21s1.5 15.667 1.5 23v380c0 40 -11 70.833 -33 92.5s-54.333 32.5 -97 32.5h-225
c-42.667 0 -75 -10.833 -97 -32.5s-33 -52.5 -33 -92.5v-380c0 -40 11 -70.833 33 -92.5s54.333 -32.5 97 -32.5h225c17.333 0 32.166 1.16699 44.499 3.5s22.166 5.16602 29.499 8.49902c8.66699 3.33301 15.667 7.66602 21 12.999z" />
    <glyph glyph-name="R" unicode="R" horiz-adv-x="732" 
d="M155 260v-250c0 -6.66699 -3.33301 -10 -10 -10h-25c-6.66699 -0 -10 3.33301 -10 10v680c0 6.66699 3.33301 10 10 10h335c55.333 0 98.333 -15.167 129 -45.5s46 -71.833 46 -124.5v-100c0 -39.333 -6.83301 -69.833 -20.5 -91.5s-28.5 -38.167 -44.5 -49.5
c-19.333 -12.667 -41 -20.667 -65 -24l140 -255c1.33301 -2.66699 1.5 -5 0.5 -7s-2.83301 -3 -5.5 -3h-30c-5.33301 0 -8.83301 1 -10.5 3s-3.16699 4.33301 -4.5 7l-135 250h-300zM155 655v-350h300c42.667 0 75 10.833 97 32.5s33 52.5 33 92.5v100
c0 40 -11 70.833 -33 92.5s-54.333 32.5 -97 32.5h-300z" />
    <glyph glyph-name="S" unicode="S" horiz-adv-x="695" 
d="M560 200c0 22.667 -5.83301 40.833 -17.5 54.5s-27.5 23.834 -47.5 30.501l-300 100c-28 9.33301 -50.833 24.333 -68.5 45s-26.5 47.334 -26.5 80.001v30c0 52.667 15.333 94.167 46 124.5s73.667 45.5 129 45.5h155c55.333 0 98.333 -15.167 129 -45.5
s46 -71.833 46 -124.5v-35c0 -6.66699 -3.33301 -10 -10 -10h-25c-6.66699 0 -10 3.33301 -10 10v35c0 40 -11 70.833 -33 92.5s-54.333 32.5 -97 32.5h-155c-42.667 0 -75 -10.833 -97 -32.5s-33 -52.5 -33 -92.5v-30c0 -22.667 5.83301 -40.834 17.5 -54.501
s27.5 -23.834 47.5 -30.501l300 -100c28 -9.33301 50.833 -24.333 68.5 -45s26.5 -47.334 26.5 -80.001v-39c0 -53.333 -15.333 -95.166 -46 -125.499s-73.667 -45.5 -129 -45.5h-175c-55.333 0 -98.333 15.167 -129 45.5s-46 71.833 -46 124.5v35
c0 6.66699 3.33301 10 10 10h25c6.66699 0 10 -3.33301 10 -10v-35c0 -40 11 -70.833 33 -92.5s54.333 -32.5 97 -32.5h175c42.667 0 75 10.833 97 32.5s33 52.5 33 92.5v40z" />
    <glyph glyph-name="T" unicode="T" horiz-adv-x="565" 
d="M305 10c0 -6.66699 -3.33301 -10 -10 -10h-25c-6.66699 -0 -10 3.33301 -10 10v645h-240c-6.66699 0 -10 3.33301 -10 10v25c0 6.66699 3.33301 10 10 10h525c6.66699 0 10 -3.33301 10 -10v-25c0 -6.66699 -3.33301 -10 -10 -10h-240v-645z" />
    <glyph glyph-name="U" unicode="U" horiz-adv-x="760" 
d="M650 160c0 -52.667 -15.333 -94.167 -46 -124.5s-73.667 -45.5 -129 -45.5h-190c-55.333 0 -98.333 15.167 -129 45.5s-46 71.833 -46 124.5v530c0 6.66699 3.33301 10 10 10h25c6.66699 0 10 -3.33301 10 -10v-530c0 -40 11 -70.833 33 -92.5s54.333 -32.5 97 -32.5h190
c42.667 0 75 10.833 97 32.5s33 52.5 33 92.5v530c0 6.66699 3.33301 10 10 10h25c6.66699 0 10 -3.33301 10 -10v-530z" />
    <glyph glyph-name="V" unicode="V" horiz-adv-x="627" 
d="M301 0c-5.33301 0 -8.83105 1 -10.498 3s-3.16699 4.33301 -4.5 7l-265 680c-2.66699 6.66699 0.666016 10 9.99902 10h25c5.33301 0 8.83301 -1 10.5 -3s3.16699 -4.33301 4.5 -7l240 -625h5l240 625c1.33301 2.66699 2.83301 5 4.5 7s5.16699 3 10.5 3h25
c9.33301 0 12.666 -3.33301 9.99902 -10l-265 -680c-1.33301 -2.66699 -2.83301 -5 -4.5 -7s-5.16699 -3 -10.5 -3h-25z" />
    <glyph glyph-name="W" unicode="W" horiz-adv-x="897" 
d="M461 700c5.33301 0 8.83301 -0.833008 10.5 -2.5s3.16699 -4.16699 4.5 -7.5l170 -610h5l170 610c1.33301 6.66699 6.33301 10 15 10h20c5.33301 0 8.5 -1 9.5 -3s1.16699 -4.33301 0.5 -7l-190 -680c-1.33301 -6.66699 -6.33301 -10 -15 -10h-25
c-8.66699 -0 -13.667 3.33301 -15 10l-170 610h-5l-170 -610c-1.33301 -6.66699 -6.33301 -10 -15 -10h-25c-8.66699 -0 -13.667 3.33301 -15 10l-190 680c-0.666992 2.66699 -0.5 5 0.5 7s4.16699 3 9.5 3h20c8.66699 0 13.667 -3.33301 15 -10l170 -610h5l170 610
c1.33301 3.33301 2.83301 5.83301 4.5 7.5s5.16699 2.5 10.5 2.5h25z" />
    <glyph glyph-name="X" unicode="X" horiz-adv-x="616" 
d="M583 10c2 -2.66699 2.99902 -5 2.99902 -7s-2.66699 -3 -8 -3h-30c-5.33301 0 -9 1.66699 -11 5c-2 1.33301 -3.33301 3 -4 5l-225 325l-225 -325c-1.33301 -2 -2.66602 -3.66699 -3.99902 -5c-3.33301 -3.33301 -7 -5 -11 -5h-30c-5.33301 0 -8 1 -8 3s1 4.33301 3 7
l250 360l-225 320c-2 2.66699 -3 5 -3 7s2.66699 3 8 3h30c2.66699 0 4.83398 -0.5 6.50098 -1.5s3.16699 -2.16699 4.5 -3.5c1.33301 -2 2.66602 -3.66699 3.99902 -5l200 -285l200 285c0.666992 1.33301 2 3 4 5c3.33301 3.33301 7 5 11 5h30c5.33301 0 8 -1 8 -3
s-1 -4.33301 -3 -7l-225 -320z" />
    <glyph glyph-name="Y" unicode="Y" horiz-adv-x="619" 
d="M312 300l235 390c1.33301 2.66699 2.83301 5 4.5 7s5.16699 3 10.5 3h30c2.66699 0 4.66699 -0.833008 6 -2.5s1 -4.16699 -1 -7.5l-265 -440v-240c0 -6.66699 -3.33301 -10 -10 -10h-25c-6.66699 -0 -10 3.33301 -10 10v240l-265 440
c-2 3.33301 -2.33301 5.83301 -1 7.5s3.33301 2.5 6 2.5h30c5.33301 0 8.83301 -1 10.5 -3s3.16699 -4.33301 4.5 -7l235 -390h5z" />
    <glyph glyph-name="Z" unicode="Z" horiz-adv-x="605" 
d="M100 50v-5.00098h455c6.66699 0 10 -3.33301 10 -10v-25c0 -6.66699 -3.33301 -10 -10 -10h-505c-6.66699 0 -10 3.33301 -10 10v30c0 4.66699 1.66699 9.33398 5 14.001c1.33301 2.66699 3 4.66699 5 6l455 590v5h-445c-6.66699 0 -10 3.33301 -10 10v25
c0 6.66699 3.33301 10 10 10h495c6.66699 0 10 -3.33301 10 -10v-30c0 -2.66699 -0.5 -5.16699 -1.5 -7.5s-2.16699 -4.5 -3.5 -6.5c-2 -2.66699 -3.66699 -4.66699 -5 -6z" />
    <glyph glyph-name="bracketleft" unicode="[" horiz-adv-x="340" 
d="M155 -125h135c6.66699 0 10 -3.33301 10 -10v-25c0 -6.66699 -3.33301 -10 -10 -10h-170c-6.66699 0 -10 3.33301 -10 10v880c0 6.66699 3.33301 10 10 10h170c6.66699 0 10 -3.33301 10 -10v-25c0 -6.66699 -3.33301 -10 -10 -10h-135v-810z" />
    <glyph glyph-name="backslash" unicode="\" horiz-adv-x="357" 
d="M31 690c-2.66699 6.66699 -1 10 5 10h25c5.33301 0 8.83301 -1 10.5 -3s3.16699 -4.33301 4.5 -7l250 -680c2.66699 -6.66699 1 -10 -5 -10h-25c-5.33301 0 -8.83301 1 -10.5 3s-3.16699 4.33301 -4.5 7z" />
    <glyph glyph-name="bracketright" unicode="]" horiz-adv-x="340" 
d="M185 685h-135c-6.66699 0 -10 3.33301 -10 10v25c0 6.66699 3.33301 10 10 10h170c6.66699 0 10 -3.33301 10 -10v-880c0 -6.66699 -3.33301 -10 -10 -10h-170c-6.66699 0 -10 3.33301 -10 10v25c0 6.66699 3.33301 10 10 10h135v810z" />
    <glyph glyph-name="asciicircum" unicode="^" horiz-adv-x="469" 
d="M242 700c2.66699 0 4.83301 -0.5 6.5 -1.5s3.16699 -2.16699 4.5 -3.5c1.33301 -2 2.66602 -3.66699 3.99902 -5l170 -315c0.666992 -2 1 -3.66699 1 -5c0 -3.33301 -2 -5 -6 -5h-25c-5.33301 0 -9 1.66699 -11 5c-2 1.33301 -3.33301 3 -4 5l-145 270h-5l-145 -270
c-1.33301 -2 -2.66602 -3.66699 -3.99902 -5c-3.33301 -3.33301 -7 -5 -11 -5h-25c-4 0 -6 1.66699 -6 5c0 1.33301 0.333008 3 1 5l170 315c0.666992 1.33301 2 3 4 5c3.33301 3.33301 7 5 11 5h15z" />
    <glyph glyph-name="underscore" unicode="_" horiz-adv-x="360" 
d="M10 -175c-6.66699 0 -10 3.33301 -10 10v25c-0 6.66699 3.33301 10 10 10h340c6.66699 0 10 -3.33301 10 -10v-25c0 -6.66699 -3.33301 -10 -10 -10h-340z" />
    <glyph glyph-name="grave" unicode="`" horiz-adv-x="189" 
d="M32 690c-1.33301 2.66699 -1.5 5 -0.5 7s2.83301 3 5.5 3h30c5.33301 0 8.83301 -1 10.5 -3s3.16699 -4.33301 4.5 -7l75 -135c1.33301 -2.66699 1.5 -5 0.5 -7s-2.83301 -3 -5.5 -3h-15c-5.33301 0 -8.83301 1 -10.5 3s-3.16699 4.33301 -4.5 7z" />
    <glyph glyph-name="a" unicode="a" horiz-adv-x="550" 
d="M95 370c0 48 13.332 85 39.999 111s65 39 115 39h55c50 0 88.333 -13 115 -39s40 -63 40 -111v-360c0 -6.66699 -3.33301 -10 -10 -10h-20c-6.66699 -0 -10 3.33301 -10 10v55h-5c-5.33301 -14 -13.666 -26.667 -24.999 -38c-9.33301 -9.33301 -22 -17.833 -38 -25.5
s-36.667 -11.5 -62 -11.5h-65c-50 0 -88.333 13 -115 39s-40 63 -40 111s13.333 85 40 111s65 39 115 39h195v80c0 35.333 -9.66699 62.5 -29 81.5s-48 28.5 -86 28.5h-55c-38 0 -66.667 -9.5 -86 -28.5s-29 -46.167 -29 -81.5v-5c0 -6.66699 -3.33301 -10 -10 -10h-20
c-6.66699 0 -10 3.33301 -10 10v5zM109.999 140c0 -35.333 9.66699 -62.5 29 -81.5s48 -28.5 86 -28.5h65c40 0 71.667 11.333 95 34s35 53 35 91v95h-195c-38 0 -66.667 -9.5 -86 -28.5s-29 -46.167 -29 -81.5z" />
    <glyph glyph-name="b" unicode="b" 
d="M335 510c50 0 88.333 -13 115 -39s40 -63 40 -111v-210c0 -48 -13.333 -85 -40 -111s-65 -39 -115 -39h-235c-6.66699 -0 -10 3.33301 -10 10v680c0 6.66699 3.33301 10 10 10h20c6.66699 0 10 -3.33301 10 -10v-180h205zM130 40h205c38 0 66.667 9.5 86 28.5
s29 46.167 29 81.5v210c0 35.333 -9.66699 62.5 -29 81.5s-48 28.5 -86 28.5h-205v-430z" />
    <glyph glyph-name="c" unicode="c" horiz-adv-x="560" 
d="M490 350c0 -6.66699 -3.33301 -10 -10 -10h-20c-6.66699 0 -10 3.33301 -10 10v20c0 35.333 -9.66699 62.5 -29 81.5s-48 28.5 -86 28.5h-100c-38 0 -66.667 -9.5 -86 -28.5s-29 -46.167 -29 -81.5v-230c0 -35.333 9.66699 -62.5 29 -81.5s48 -28.5 86 -28.5h100
c38 0 66.667 9.5 86 28.5s29 46.167 29 81.5v20c0 6.66699 3.33301 10 10 10h20c6.66699 0 10 -3.33301 10 -10v-20c0 -48 -13.333 -85 -40 -111s-65 -39 -115 -39h-100c-50 0 -88.333 13 -115 39s-40 63 -40 111v230c0 48 13.333 85 40 111s65 39 115 39h100
c50 0 88.333 -13 115 -39s40 -63 40 -111v-20z" />
    <glyph glyph-name="d" unicode="d" 
d="M440 510l-0.000976562 180c0 6.66699 3.33301 10 10 10h20c6.66699 0 10 -3.33301 10 -10v-680c0 -6.66699 -3.33301 -10 -10 -10h-20c-6.66699 -0 -10 3.33301 -10 10v55h-5c-5.33301 -14 -13.666 -26.667 -24.999 -38c-9.33301 -9.33301 -22 -17.833 -38 -25.5
s-36.667 -11.5 -62 -11.5h-75c-50 0 -88.333 13 -115 39s-40 63 -40 111v220c0 48 13.333 85 40 111s65 39 115 39h205zM439.999 470h-205c-38 0 -66.667 -9.5 -86 -28.5s-29 -46.167 -29 -81.5v-220c0 -35.333 9.66699 -62.5 29 -81.5s48 -28.5 86 -28.5h75
c40 0 71.667 11.333 95 34s35 53 35 91v315z" />
    <glyph glyph-name="e" unicode="e" 
d="M490 245c0 -6.66699 -3.33301 -10 -10 -10h-360v-95c0 -35.333 9.66699 -62.5 29 -81.5s48 -28.5 86 -28.5h100c38 0 66.667 9.5 86 28.5s29 46.167 29 81.5c0 6.66699 3.33301 10 10 10h20c6.66699 0 10 -3.33301 10 -10c0 -48 -13.333 -85 -40 -111s-65 -39 -115 -39
h-100c-50 0 -88.333 13 -115 39s-40 63 -40 111v230c0 48 13.333 85 40 111s65 39 115 39h100c50 0 88.333 -13 115 -39s40 -63 40 -111v-125zM120 275h330v95c0 35.333 -9.66699 62.5 -29 81.5s-48 28.5 -86 28.5h-100c-38 0 -66.667 -9.5 -86 -28.5s-29 -46.167 -29 -81.5
v-95z" />
    <glyph glyph-name="f" unicode="f" horiz-adv-x="345" 
d="M315 450c0 -6.66699 -3.33301 -10 -10 -10h-120v-430c0 -6.66699 -3.33301 -10 -10 -10h-20c-6.66699 -0 -10 3.33301 -10 10v430h-95c-6.66699 0 -10 3.33301 -10 10v20c0 6.66699 3.33301 10 10 10h95v80c0 45.333 12.167 80 36.5 104s60.5 36 108.5 36h45
c6.66699 0 10 -3.33301 10 -10v-20c0 -6.66699 -3.33301 -10 -10 -10h-45c-70 0 -105 -33.333 -105 -100v-80h120c6.66699 0 10 -3.33301 10 -10v-20z" />
    <glyph glyph-name="g" unicode="g" 
d="M85 -40c0 6.66699 3.33398 9.99902 10.001 9.99902h20c6.66699 0 10 -3.33301 10 -10v-10c0 -35.333 9.66699 -62.5 29 -81.5s48 -28.5 86 -28.5h85c38 0 66.667 9.5 86 28.5s29 46.167 29 81.5v90h-205c-50 0 -88.333 13 -115 39s-40 63 -40 111v180
c0 48 13.333 85 40 111s65 39 115 39h75c25.333 0 46 -4 62 -12s28.667 -16.667 38 -26c11.333 -11.333 19.666 -23.666 24.999 -36.999h5v55c0 6.66699 3.33301 10 10 10h20c6.66699 0 10 -3.33301 10 -10v-550c0 -48 -13.333 -85 -40 -111s-65 -39 -115 -39h-85
c-50 0 -88.333 13 -115 39s-40 63 -40 111v10zM440.001 354.999c0 38 -11.667 68.333 -35 91s-55 34 -95 34h-75c-38 0 -66.667 -9.5 -86 -28.5s-29 -46.167 -29 -81.5v-180c0 -35.333 9.66699 -62.5 29 -81.5s48 -28.5 86 -28.5h205v275z" />
    <glyph glyph-name="h" unicode="h" horiz-adv-x="580" 
d="M335 510c50 0 88.333 -13 115 -39s40 -63 40 -111v-350c0 -6.66699 -3.33301 -10 -10 -10h-20c-6.66699 -0 -10 3.33301 -10 10v350c0 35.333 -9.66699 62.5 -29 81.5s-48 28.5 -86 28.5h-205v-460c0 -6.66699 -3.33301 -10 -10 -10h-20c-6.66699 -0 -10 3.33301 -10 10
v680c0 6.66699 3.33301 10 10 10h20c6.66699 0 10 -3.33301 10 -10v-180h205z" />
    <glyph glyph-name="i" unicode="i" horiz-adv-x="230" 
d="M135 10c0 -6.66699 -3.33301 -10 -10 -10h-20c-6.66699 -0 -10 3.33301 -10 10v490c0 6.66699 3.33301 10 10 10h20c6.66699 0 10 -3.33301 10 -10v-490zM130 700c6.66699 0 10 -3.33301 10 -10v-30c0 -6.66699 -3.33301 -10 -10 -10h-30c-6.66699 0 -10 3.33301 -10 10
v30c0 6.66699 3.33301 10 10 10h30z" />
    <glyph glyph-name="j" unicode="j" horiz-adv-x="230" 
d="M135 -60c0 -45.333 -12.167 -80 -36.5 -104s-60.5 -36 -108.5 -36h-30c-6.66699 0 -10 3.33301 -10 10v20c0 6.66699 3.33301 10 10 10h30c70 0 105 33.333 105 100v560c0 6.66699 3.33301 10 10 10h20c6.66699 0 10 -3.33301 10 -10v-560zM130 700
c6.66699 0 10 -3.33301 10 -10v-30c0 -6.66699 -3.33301 -10 -10 -10h-30c-6.66699 0 -10 3.33301 -10 10v30c0 6.66699 3.33301 10 10 10h30z" />
    <glyph glyph-name="k" unicode="k" horiz-adv-x="507" 
d="M130 290h165l120 210c1.33301 2.66699 2.83301 5 4.5 7s5.16699 3 10.5 3h25c2.66699 0 4.5 -1 5.5 -3s0.833008 -4.33301 -0.5 -7l-130 -230l145 -260c1.33301 -2.66699 1.5 -5 0.5 -7s-2.83301 -3 -5.5 -3h-25c-5.33301 0 -8.83301 1 -10.5 3s-3.16699 4.33301 -4.5 7
l-135 240h-165v-240c0 -6.66699 -3.33301 -10 -10 -10h-20c-6.66699 -0 -10 3.33301 -10 10v680c0 6.66699 3.33301 10 10 10h20c6.66699 0 10 -3.33301 10 -10v-400z" />
    <glyph glyph-name="l" unicode="l" horiz-adv-x="220" 
d="M130 10c0 -6.66699 -3.33301 -10 -10 -10h-20c-6.66699 -0 -10 3.33301 -10 10v680c0 6.66699 3.33301 10 10 10h20c6.66699 0 10 -3.33301 10 -10v-680z" />
    <glyph glyph-name="m" unicode="m" horiz-adv-x="830" 
d="M435 10c0 -6.66699 -3.33301 -9.99902 -10 -9.99902h-20h-1c-1.33301 0 -2.16602 0.166992 -2.49902 0.5s-0.833008 0.5 -1.5 0.5c-3.33301 2 -5 5 -5 9v360c0 35.333 -9.66699 62.5 -29 81.5s-48 28.5 -86 28.5h-20c-40 0 -71.667 -11.333 -95 -34s-35 -53 -35 -91v-345
c0 -6.66699 -3.33301 -10 -10 -10h-20c-6.66699 0 -10 3.33301 -10 10v490c0 6.66699 3.33301 10 10 10h20c6.66699 0 10 -3.33301 10 -10v-55h5c5.33301 13.333 13.666 25.666 24.999 36.999c9.33301 9.33301 22 18 38 26s36.667 12 62 12h20c26 0 47.667 -4 65 -12
s31 -16.667 41 -26c12 -11.333 21 -23.666 27 -36.999h4c6 13.333 15 25.666 27 36.999c10 9.33301 23.5 18 40.5 26s38.833 12 65.5 12h35c50 0 88.333 -13 115 -39s40 -63 40 -111v-360c0 -6.66699 -3.33301 -10 -10 -10h-20c-6.66699 -0 -10 3.33301 -10 10v360
c0 35.333 -9.66699 62.5 -29 81.5s-48 28.5 -86 28.5h-35c-38 0 -66.667 -9.5 -86 -28.5s-29 -46.167 -29 -81.5v-360z" />
    <glyph glyph-name="n" unicode="n" horiz-adv-x="580" 
d="M335 520c50 0 88.334 -12.999 115.001 -38.999s40 -63 40 -111v-360c0 -6.66699 -3.33301 -10 -10 -10h-20c-6.66699 0 -10 3.33301 -10 10v360c0 35.333 -9.66699 62.5 -29 81.5s-48 28.5 -86 28.5h-75c-40 0 -71.667 -11.333 -95 -34s-35 -53 -35 -91v-345
c0 -6.66699 -3.33301 -10 -10 -10h-20c-6.66699 0 -10 3.33301 -10 10v490c0 6.66699 3.33301 10 10 10h20c6.66699 0 10 -3.33301 10 -10v-55h5c5.33301 13.333 13.666 25.666 24.999 36.999c9.33301 9.33301 22 18 38 26s36.667 12 62 12h75z" />
    <glyph glyph-name="o" unicode="o" horiz-adv-x="575" 
d="M495 140c0 -48 -13.333 -85 -40 -111s-65 -39 -115 -39h-105c-50 0 -88.333 13 -115 39s-40 63 -40 111v230c0 48 13.333 85 40 111s65 39 115 39h105c50 0 88.333 -13 115 -39s40 -63 40 -111v-230zM455 370c0 35.333 -9.66699 62.5 -29 81.5s-48 28.5 -86 28.5h-105
c-38 0 -66.667 -9.5 -86 -28.5s-29 -46.167 -29 -81.5v-230c0 -35.333 9.66699 -62.5 29 -81.5s48 -28.5 86 -28.5h105c38 0 66.667 9.5 86 28.5s29 46.167 29 81.5v230z" />
    <glyph glyph-name="p" unicode="p" 
d="M130 0l0.000976562 -179.999c0 -6.66699 -3.33301 -10 -10 -10h-20c-6.66699 0 -10 3.33301 -10 10v680c0 6.66699 3.33301 10 10 10h20c6.66699 0 10 -3.33301 10 -10v-55h5c5.33301 13.333 13.666 25.666 24.999 36.999c9.33301 9.33301 22 18 38 26s36.667 12 62 12
h75c50 0 88.333 -13 115 -39s40 -63 40 -111v-220c0 -48 -13.333 -85 -40 -111s-65 -39 -115 -39h-205zM130.001 40.001h205c38 0 66.667 9.5 86 28.5s29 46.167 29 81.5v220c0 35.333 -9.66699 62.5 -29 81.5s-48 28.5 -86 28.5h-75c-40 0 -71.667 -11.333 -95 -34
s-35 -53 -35 -91v-315z" />
    <glyph glyph-name="q" unicode="q" 
d="M235 0c-50 0 -88.333 13 -115 39s-40 63 -40 111v210c0 48 13.333 85 40 111s65 39 115 39h235c6.66699 0 10 -3.33301 10 -10v-680c0 -6.66699 -3.33301 -10 -10 -10h-20c-6.66699 0 -10 3.33301 -10 10v180h-205zM440 470h-205c-38 0 -66.667 -9.5 -86 -28.5
s-29 -46.167 -29 -81.5v-210c0 -35.333 9.66699 -62.5 29 -81.5s48 -28.5 86 -28.5h205v430z" />
    <glyph glyph-name="r" unicode="r" horiz-adv-x="340" 
d="M330 490c0 -6.66699 -3.33203 -9.99902 -9.99902 -9.99902h-60c-40 0 -71.667 -11.333 -95 -34s-35 -53 -35 -91v-345c0 -6.66699 -3.33301 -10 -10 -10h-20c-6.66699 0 -10 3.33301 -10 10v490c0 6.66699 3.33301 10 10 10h20c6.66699 0 10 -3.33301 10 -10v-55h5
c5.33301 13.333 13.666 25.666 24.999 36.999c9.33301 9.33301 22 18 38 26s36.667 12 62 12h60c6.66699 0 10 -3.33301 10 -10v-20z" />
    <glyph glyph-name="s" unicode="s" horiz-adv-x="530" 
d="M460 135c0 -46 -13 -81.667 -39 -107s-63 -38 -111 -38h-95c-50 0 -88.333 13 -115 39s-40 63 -40 111v10c0 6.66699 3.33301 10 10 10h20c6.66699 0 10 -3.33301 10 -10v-10c0 -35.333 9.66699 -62.5 29 -81.5s48 -28.5 86 -28.5h95c35.333 0 62.5 9.33301 81.5 28
s28.5 44.334 28.5 77.001c0 17.333 -4.5 31.166 -13.5 41.499s-21.167 18.166 -36.5 23.499l-225 75c-22.667 7.33301 -40.834 18.833 -54.501 34.5s-20.5 37.5 -20.5 65.5c0 46 13 81.667 39 107s63 38 111 38h85c50 0 88.333 -13 115 -39s40 -63 40 -111v-10
c0 -6.66699 -3.33301 -10 -10 -10h-20c-6.66699 0 -10 3.33301 -10 10v10c0 35.333 -9.66699 62.5 -29 81.5s-48 28.5 -86 28.5h-85c-35.333 0 -62.5 -9.33301 -81.5 -28s-28.5 -44.334 -28.5 -77.001c0 -17.333 4.5 -31.166 13.5 -41.499s21.167 -18.166 36.5 -23.499
l225 -75c22.667 -7.33301 40.834 -18.833 54.501 -34.5s20.5 -37.5 20.5 -65.5z" />
    <glyph glyph-name="t" unicode="t" horiz-adv-x="385" 
d="M315 480c0 -6.66699 -3.33301 -10 -10 -10h-120v-330c0 -66.667 35 -100 105 -100h45c6.66699 0 10 -3.33301 10 -10v-20c0 -6.66699 -3.33301 -10 -10 -10h-45c-48 0 -84.167 12 -108.5 36s-36.5 58.667 -36.5 104v330h-95c-6.66699 0 -10 3.33301 -10 10v20
c0 6.66699 3.33301 10 10 10h95v110c0 6.66699 3.33301 10 10 10h20c6.66699 0 10 -3.33301 10 -10v-110h120c6.66699 0 10 -3.33301 10 -10v-20z" />
    <glyph glyph-name="u" unicode="u" horiz-adv-x="580" 
d="M245 -10c-50 0 -88.334 13 -115.001 39s-40 63 -40 111v360c0 6.66699 3.33301 10 10 10h20c6.66699 0 10 -3.33301 10 -10v-360c0 -35.333 9.66699 -62.5 29 -81.5s48 -28.5 86 -28.5h75c40 0 71.667 11.333 95 34s35 53 35 91v345c0 6.66699 3.33301 10 10 10h20
c6.66699 0 10 -3.33301 10 -10v-490c0 -6.66699 -3.33301 -10 -10 -10h-20c-6.66699 -0 -10 3.33301 -10 10v55h-5c-5.33301 -14 -13.666 -26.667 -24.999 -38c-9.33301 -9.33301 -22 -17.833 -38 -25.5s-36.667 -11.5 -62 -11.5h-75z" />
    <glyph glyph-name="v" unicode="v" horiz-adv-x="477" 
d="M226 0c-5.33301 0 -8.83105 1 -10.498 3s-3.16699 4.33301 -4.5 7l-190 490c-2.66699 6.66699 0.666016 10 9.99902 10h20c5.33301 0 8.83301 -1 10.5 -3s3.16699 -4.33301 4.5 -7l170 -440h5l170 440c1.33301 2.66699 2.83301 5 4.5 7s5.16699 3 10.5 3h20
c9.33301 0 12.666 -3.33301 9.99902 -10l-190 -490c-1.33301 -2.66699 -2.83301 -5 -4.5 -7s-5.16699 -3 -10.5 -3h-25z" />
    <glyph glyph-name="w" unicode="w" horiz-adv-x="682" 
d="M351 510c8.66699 0 13.667 -3.33301 15 -10l120 -435h5l120 435c1.33301 6.66699 6.33301 10 15 10h15c5.33301 0 8.5 -1 9.5 -3s1.16699 -4.33301 0.5 -7l-135 -490c-1.33301 -6.66699 -6.33301 -10 -15 -10h-25c-8.66699 -0 -13.667 3.33301 -15 10l-118 425h-4
l-118 -425c-1.33301 -6.66699 -6.33301 -10 -15 -10h-25c-8.66699 -0 -13.667 3.33301 -15 10l-135 490c-0.666992 2.66699 -0.5 5 0.5 7s4.16699 3 9.5 3h15c8.66699 0 13.667 -3.33301 15 -10l120 -435h5l120 435c1.33301 6.66699 6.33301 10 15 10h20z" />
    <glyph glyph-name="x" unicode="x" horiz-adv-x="466" 
d="M233 295l139.999 205c0.666992 1.33301 2 3 4 5c3.33301 3.33301 7 5 11 5h25c5.33301 0 7.83301 -1 7.5 -3s-1.16602 -4.33301 -2.49902 -7l-160 -235l175 -255c1.33301 -2.66699 2.16602 -5 2.49902 -7s-2.16699 -3 -7.5 -3h-25c-5.33301 0 -9 1.66699 -11 5
c-2 1.33301 -3.33301 3 -4 5l-155 225l-155 -225c-1.33301 -2 -2.66602 -3.66699 -3.99902 -5c-3.33301 -3.33301 -7 -5 -11 -5h-25c-5.33301 0 -7.83301 1 -7.5 3s1.16602 4.33301 2.49902 7l175 255l-160 235c-1.33301 2.66699 -2.16602 5 -2.49902 7s2.16699 3 7.5 3h25
c2.66699 0 4.83398 -0.5 6.50098 -1.5s3.16699 -2.16699 4.5 -3.5c1.33301 -2 2.66602 -3.66699 3.99902 -5z" />
    <glyph glyph-name="y" unicode="y" horiz-adv-x="482" 
d="M416 500c1.33301 2.66699 2.83594 5.00098 4.50293 7.00098s5.16699 3 10.5 3h20c9.33301 0 12.666 -3.33301 9.99902 -10l-195 -500c-14.667 -37.333 -28.5 -68.333 -41.5 -93s-26.333 -44.167 -40 -58.5s-28 -24.333 -43 -30s-31.833 -8.5 -50.5 -8.5h-20
c-6.66699 0 -10 3.33301 -10 10v20c0 6.66699 3.33301 10 10 10h20c12.667 0 24.334 2.5 35.001 7.5s21.167 13.167 31.5 24.5s20.666 26.666 30.999 45.999s21.166 43.333 32.499 72l-200 500c-2.66699 6.66699 0.666016 10 9.99902 10h20c5.33301 0 8.83301 -1 10.5 -3
s3.16699 -4.33301 4.5 -7l175 -440h5z" />
    <glyph glyph-name="z" unicode="z" horiz-adv-x="450" 
d="M85 45v-5.00098h325c6.66699 0 10 -3.33301 10 -10v-20c0 -6.66699 -3.33301 -10 -10 -10h-370c-6.66699 0 -10 3.33301 -10 10v25c0 4.66699 1.66699 9.33398 5 14.001c1.33301 2.66699 3 4.66699 5 6l325 410v5h-315c-6.66699 0 -10 3.33301 -10 10v20
c0 6.66699 3.33301 10 10 10h360c6.66699 0 10 -3.33301 10 -10v-25c0 -2.66699 -0.5 -5.16699 -1.5 -7.5s-2.16699 -4.5 -3.5 -6.5c-2 -2.66699 -3.66699 -4.66699 -5 -6z" />
    <glyph glyph-name="braceleft" unicode="{" horiz-adv-x="370" 
d="M130 278c13.333 -3.33301 25.666 -9.66797 36.999 -19.001c9.33301 -8 18 -19.333 26 -34s12 -34.667 12 -60v-190c0 -66.667 35 -100 105 -100h10c6.66699 0 10 -3.33301 10 -10v-25c0 -6.66699 -3.33301 -10 -10 -10h-10c-100 0 -150 48.333 -150 145v190
c0 30 -8.5 53.333 -25.5 70s-41.833 25 -74.5 25c-6.66699 0 -10 3.33301 -10 10v20c0 6.66699 3.33301 10 10 10c32.667 0 57.5 8.33301 74.5 25s25.5 40 25.5 70v190c0 96.667 50 145 150 145h10c6.66699 0 10 -3.33301 10 -10v-25c0 -6.66699 -3.33301 -10 -10 -10h-10
c-70 0 -105 -33.333 -105 -100v-190c0 -25.333 -4 -45.333 -12 -60s-16.667 -26 -26 -34c-11.333 -9.33301 -23.666 -15.666 -36.999 -18.999v-4z" />
    <glyph glyph-name="bar" unicode="|" horiz-adv-x="285" 
d="M165 -180c0 -6.66699 -3.33301 -10 -10 -10h-25c-6.66699 0 -10 3.33301 -10 10v870c0 6.66699 3.33301 10 10 10h25c6.66699 0 10 -3.33301 10 -10v-870z" />
    <glyph glyph-name="braceright" unicode="}" horiz-adv-x="370" 
d="M240 282c-14 3.33301 -26.667 9.66797 -38 19.001c-9.33301 8 -17.833 19.333 -25.5 34s-11.5 34.667 -11.5 60v190c0 66.667 -35 100 -105 100h-10c-6.66699 0 -10 3.33301 -10 10v25c0 6.66699 3.33301 10 10 10h10c100 0 150 -48.333 150 -145v-190
c0 -30 8.5 -53.333 25.5 -70s41.833 -25 74.5 -25c6.66699 0 10 -3.33301 10 -10v-20c0 -6.66699 -3.33301 -10 -10 -10c-32.667 0 -57.5 -8.33301 -74.5 -25s-25.5 -40 -25.5 -70v-190c0 -96.667 -50 -145 -150 -145h-10c-6.66699 0 -10 3.33301 -10 10v25
c0 6.66699 3.33301 10 10 10h10c70 0 105 33.333 105 100v190c0 25.333 3.83301 45.333 11.5 60s16.167 26 25.5 34c11.333 9.33301 24 15.666 38 18.999v4z" />
    <glyph glyph-name="asciitilde" unicode="~" horiz-adv-x="415" 
d="M290 245c-18.667 0 -35.167 5.66699 -49.5 17s-27.833 24 -40.5 38s-24.834 26.667 -36.501 38s-24.5 17 -38.5 17c-12.667 0 -23.334 -4.33301 -32.001 -13s-13 -19.334 -13 -32.001v-55c0 -6.66699 -3.33301 -10 -10 -10h-20c-6.66699 0 -10 3.33301 -10 10v55
c0 25.333 7.83301 45.833 23.5 61.5s36.167 23.5 61.5 23.5c18.667 0 35.167 -5.66699 49.5 -17s27.833 -24 40.5 -38s24.834 -26.667 36.501 -38s24.5 -17 38.5 -17c12.667 0 23.334 4.33301 32.001 13s13 19.334 13 32.001v55c0 6.66699 3.33301 10 10 10h20
c6.66699 0 10 -3.33301 10 -10v-55c0 -25.333 -7.83301 -45.833 -23.5 -61.5s-36.167 -23.5 -61.5 -23.5z" />
    <glyph glyph-name="nonbreakingspace" unicode="&#xa0;" horiz-adv-x="190" 
 />
    <glyph glyph-name="exclamdown" unicode="&#xa1;" horiz-adv-x="270" 
d="M150 510c6.66699 0 10 -3.33301 10 -10v-30c0 -6.66699 -3.33301 -10 -10 -10h-30c-6.66699 0 -10 3.33301 -10 10v30c0 6.66699 3.33301 10 10 10h30zM115 160l5 160c0 6.66699 3.33301 10 10 10h10c6.66699 0 10 -3.33301 10 -10l5 -160v-340
c0 -6.66699 -3.33301 -10 -10 -10h-20c-6.66699 0 -10 3.33301 -10 10v340z" />
    <glyph glyph-name="cent" unicode="&#xa2;" horiz-adv-x="560" 
d="M490 350c0 -6.66699 -3.33301 -10 -10 -10h-20c-6.66699 0 -10 3.33301 -10 10v20c0 35.333 -9.66699 62.5 -29 81.5s-48 28.5 -86 28.5h-100c-38 0 -66.667 -9.5 -86 -28.5s-29 -46.167 -29 -81.5v-230c0 -35.333 9.66699 -62.5 29 -81.5s48 -28.5 86 -28.5h100
c38 0 66.667 9.5 86 28.5s29 46.167 29 81.5v20c0 6.66699 3.33301 10 10 10h20c6.66699 0 10 -3.33301 10 -10v-20c0 -48 -13.333 -85 -40 -111s-65 -39 -115 -39h-25v-75c0 -6.66699 -3.33301 -10 -10 -10h-20c-6.66699 0 -10 3.33301 -10 10v75h-35
c-50 0 -88.333 13 -115 39s-40 63 -40 111v230c0 48 13.333 85 40 111s65 39 115 39h35v75c0 6.66699 3.33301 10 10 10h20c6.66699 0 10 -3.33301 10 -10v-75h25c50 0 88.333 -13 115 -39s40 -63 40 -111v-20z" />
    <glyph glyph-name="sterling" unicode="&#xa3;" horiz-adv-x="545" 
d="M225 335l-0.000976562 -290h300c6.66699 0 10 -3.33301 10 -10v-25c0 -6.66699 -3.33301 -10 -10 -10h-485c-6.66699 -0 -10 3.33301 -10 10v25c0 6.66699 3.33301 10 10 10h140v290h-90c-6.66699 0 -10 3.33301 -10 10v25c0 6.66699 3.33301 10 10 10h90v160
c0 50 14.333 89.167 43 117.5s69.334 42.5 122.001 42.5h55c6.66699 0 10 -3.33301 10 -10v-25c0 -6.66699 -3.33301 -10 -10 -10h-55c-80 0 -120 -38.333 -120 -115v-160h140c6.66699 0 10 -3.33301 10 -10v-25c0 -6.66699 -3.33301 -10 -10 -10h-140z" />
    <glyph glyph-name="currency" unicode="&#xa4;" horiz-adv-x="685" 
d="M170 155v-145c0 -6.66699 -3.33301 -10 -10 -10h-25c-6.66699 -0 -10 3.33301 -10 10v145h-75c-6.66699 0 -10 3.33301 -10 10v25c0 6.66699 3.33301 10 10 10h75v105h-75c-6.66699 0 -10 3.33301 -10 10v25c0 6.66699 3.33301 10 10 10h75v340
c0 6.66699 3.33301 10 10 10h295c55.333 0 98.333 -15.167 129 -45.5s46 -71.833 46 -124.5v-55c0 -52.667 -15.333 -94.167 -46 -124.5s-73.667 -45.5 -129 -45.5h-260v-105h330c6.66699 0 10 -3.33301 10 -10v-25c0 -6.66699 -3.33301 -10 -10 -10h-330zM170 655v-305h260
c42.667 0 75 10.833 97 32.5s33 52.5 33 92.5v55c0 40 -11 70.833 -33 92.5s-54.333 32.5 -97 32.5h-260z" />
    <glyph glyph-name="yen" unicode="&#xa5;" horiz-adv-x="619" 
d="M332 125v-115c0 -6.66699 -3.33301 -10 -10 -10h-25c-6.66699 -0 -10 3.33301 -10 10v115h-155c-6.66699 0 -10 3.33301 -10 10v20c0 6.66699 3.33301 10 10 10h155v85h-155c-6.66699 0 -10 3.33301 -10 10v20c0 6.66699 3.33301 10 10 10h130l-240 400
c-2 3.33301 -2.33301 5.83301 -1 7.5s3.33301 2.5 6 2.5h30c5.33301 0 8.83301 -1 10.5 -3s3.16699 -4.33301 4.5 -7l235 -390h5l235 390c1.33301 2.66699 2.83301 5 4.5 7s5.16699 3 10.5 3h30c2.66699 0 4.66699 -0.833008 6 -2.5s1 -4.16699 -1 -7.5l-240 -400h130
c6.66699 0 10 -3.33301 10 -10v-20c0 -6.66699 -3.33301 -10 -10 -10h-155v-85h155c6.66699 0 10 -3.33301 10 -10v-20c0 -6.66699 -3.33301 -10 -10 -10h-155z" />
    <glyph glyph-name="brokenbar" unicode="&#xa6;" horiz-adv-x="285" 
d="M165 360c0 -6.66699 -3.33301 -10 -10 -10h-25c-6.66699 0 -10 3.33301 -10 10v330c0 6.66699 3.33301 10 10 10h25c6.66699 0 10 -3.33301 10 -10v-330zM165 -180c0 -6.66699 -3.33301 -10 -10 -10h-25c-6.66699 0 -10 3.33301 -10 10v330c0 6.66699 3.33301 10 10 10
h25c6.66699 0 10 -3.33301 10 -10v-330z" />
    <glyph glyph-name="section" unicode="&#xa7;" horiz-adv-x="585" 
d="M230 400c-30 -2.66699 -54.167 -13.334 -72.5 -32.001s-27.5 -43 -27.5 -73v-75c0 -17.333 4.5 -31.333 13.5 -42s21.167 -18.334 36.5 -23.001l175 -55c30 2.66699 54.167 13.334 72.5 32.001s27.5 43 27.5 73v75c0 17.333 -4.5 31.333 -13.5 42
s-21.167 18.334 -36.5 23.001zM490 -55c0 -46 -13.001 -81.666 -39.001 -106.999s-63 -38 -111 -38h-85c-50 0 -88.333 13 -115 39s-40 63 -40 111v10c0 6.66699 3.33301 10 10 10h20c6.66699 0 10 -3.33301 10 -10v-10c0 -35.333 9.66699 -62.5 29 -81.5s48 -28.5 86 -28.5
h85c35.333 0 62.5 9.33301 81.5 28s28.5 44.334 28.5 77.001v35c0 17.333 -4.5 31.166 -13.5 41.499s-21.167 18.166 -36.5 23.499l-235 75c-22.667 7.33301 -40.834 18.833 -54.501 34.5s-20.5 37.5 -20.5 65.5v75c0 25.333 4.33301 45.5 13 60.5
s18.334 27.167 29.001 36.5c12 10 26.333 17.667 43 23v5c-14.667 4 -28 10 -40 18c-10 7.33301 -19.167 17.5 -27.5 30.5s-12.5 30.167 -12.5 51.5v35c0 46 13 81.667 39 107s63 38 111 38h85c50 0 88.333 -13 115 -39s40 -63 40 -111v-10c0 -6.66699 -3.33301 -10 -10 -10
h-20c-6.66699 0 -10 3.33301 -10 10v10c0 35.333 -9.66699 62.5 -29 81.5s-48 28.5 -86 28.5h-85c-35.333 0 -62.5 -9.33301 -81.5 -28s-28.5 -44.334 -28.5 -77.001v-35c0 -17.333 4.5 -31.166 13.5 -41.499s21.167 -18.166 36.5 -23.499l235 -75
c22.667 -7.33301 40.834 -18.833 54.501 -34.5s20.5 -37.5 20.5 -65.5v-75c0 -25.333 -4.5 -45.833 -13.5 -61.5s-18.833 -27.834 -29.5 -36.501c-12 -10.667 -26 -18 -42 -22v-5c14.667 -4 28 -10 40 -18c10 -7.33301 19.167 -17.5 27.5 -30.5s12.5 -30.167 12.5 -51.5v-35
z" />
    <glyph glyph-name="dieresis" unicode="&#xa8;" horiz-adv-x="275" 
d="M70 700c6.66699 0 10 -3.33301 10 -10v-30c0 -6.66699 -3.33301 -10 -10 -10h-30c-6.66699 0 -10 3.33301 -10 10v30c0 6.66699 3.33301 10 10 10h30zM235 700c6.66699 0 10 -3.33301 10 -10v-30c0 -6.66699 -3.33301 -10 -10 -10h-30c-6.66699 0 -10 3.33301 -10 10v30
c0 6.66699 3.33301 10 10 10h30z" />
    <glyph glyph-name="copyright" unicode="&#xa9;" horiz-adv-x="915" 
d="M110 530c0 52.667 15.333 94.167 46 124.5s73.667 45.5 129 45.5h345c55.333 0 98.333 -15.167 129 -45.5s46 -71.833 46 -124.5v-360c0 -52.667 -15.333 -94.167 -46 -124.5s-73.667 -45.5 -129 -45.5h-345c-55.333 0 -98.333 15.167 -129 45.5s-46 71.833 -46 124.5
v360zM155 170c0 -40 11 -70.833 33 -92.5s54.333 -32.5 97 -32.5h345c42.667 0 75 10.833 97 32.5s33 52.5 33 92.5v360c0 40 -11 70.833 -33 92.5s-54.333 32.5 -97 32.5h-345c-42.667 0 -75 -10.833 -97 -32.5s-33 -52.5 -33 -92.5v-360zM315 430c0 28 8.33301 50 25 66
s40 24 70 24h90c30 0 53.333 -8 70 -24s25 -38 25 -66v-15c0 -6.66699 -3.33301 -10 -10 -10h-20c-6.66699 0 -10 3.33301 -10 10v15c0 15.333 -4.83301 27.5 -14.5 36.5s-23.167 13.5 -40.5 13.5h-90c-17.333 0 -30.833 -4.5 -40.5 -13.5s-14.5 -21.167 -14.5 -36.5v-160
c0 -15.333 4.83301 -27.5 14.5 -36.5s23.167 -13.5 40.5 -13.5h90c17.333 0 30.833 4.5 40.5 13.5s14.5 21.167 14.5 36.5v15c0 6.66699 3.33301 10 10 10h20c6.66699 0 10 -3.33301 10 -10v-15c0 -28 -8.33301 -50 -25 -66s-40 -24 -70 -24h-90c-30 0 -53.333 8 -70 24
s-25 38 -25 66v160z" />
    <glyph glyph-name="ordfeminine" unicode="&#xaa;" horiz-adv-x="355" 
d="M135 530c-20 0 -34.167 -4 -42.5 -12s-12.5 -20.667 -12.5 -38s4.16699 -30 12.5 -38s22.5 -12 42.5 -12h65c43.333 0 65 20 65 60v40h-130zM265 570v30c0 40 -21.667 60 -65 60h-45c-43.333 0 -65 -20 -65 -60c0 -6.66699 -3.33301 -10 -10 -10h-20
c-6.66699 0 -10 3.33301 -10 10c0 66.667 35 100 105 100h45c70 0 105 -33.333 105 -100v-200c0 -6.66699 -3.33301 -10 -10 -10h-20c-6.66699 0 -10 3.33301 -10 10v25h-5c-3.33301 -6.66699 -7.66602 -12.667 -12.999 -18c-4.66699 -4.66699 -10.834 -8.66699 -18.501 -12
s-17.167 -5 -28.5 -5h-65c-30 0 -53.333 8 -70 24s-25 38 -25 66s8.33301 50 25 66s40 24 70 24h130z" />
    <glyph glyph-name="guillemotleft" unicode="&#xab;" horiz-adv-x="447" 
d="M100 255l119.999 -190c1.33301 -2.66699 1.5 -5 0.5 -7s-2.83301 -3 -5.5 -3h-25c-7.33301 0 -12.666 1.66699 -15.999 5c-2 1.33301 -3.33301 3 -4 5l-120 190l120 190c0.666992 1.33301 2 3 4 5c1.33301 1.33301 3.33301 2.5 6 3.5s6 1.5 10 1.5h25
c2.66699 0 4.5 -1 5.5 -3s0.833008 -4.33301 -0.5 -7zM274.999 255l119.999 -190c1.33301 -2.66699 1.5 -5 0.5 -7s-2.83301 -3 -5.5 -3h-25c-7.33301 0 -12.666 1.66699 -15.999 5c-2 1.33301 -3.33301 3 -4 5l-120 190l120 190c0.666992 1.33301 2 3 4 5
c1.33301 1.33301 3.33301 2.5 6 3.5s6 1.5 10 1.5h25c2.66699 0 4.5 -1 5.5 -3s0.833008 -4.33301 -0.5 -7z" />
    <glyph glyph-name="logicalnot" unicode="&#xac;" horiz-adv-x="430" 
d="M30 375c0 6.66699 3.33301 10 10 10h340c6.66699 0 10 -3.33301 10 -10v-140c0 -6.66699 -3.33301 -10 -10 -10h-20c-6.66699 0 -10 3.33301 -10 10v105h-310c-6.66699 0 -10 3.33301 -10 10v25z" />
    <glyph glyph-name="uni00AD" unicode="&#xad;" horiz-adv-x="420" 
d="M40 280c-6.66699 0 -10 3.33301 -10 10v25c0 6.66699 3.33301 10 10 10h340c6.66699 0 10 -3.33301 10 -10v-25c0 -6.66699 -3.33301 -10 -10 -10h-340z" />
    <glyph glyph-name="registered" unicode="&#xae;" horiz-adv-x="915" 
d="M555 430c0 15.333 -4.83301 27.5 -14.5 36.5s-23.167 13.5 -40.5 13.5h-130v-130h130c17.333 0 30.833 4.5 40.5 13.5s14.5 21.167 14.5 36.5v30zM489 310h-119v-120c0 -6.66699 -3.33301 -10 -10 -10h-20c-6.66699 0 -10 3.33301 -10 10v320c0 6.66699 3.33301 10 10 10
h160c30 0 53.333 -8 70 -24s25 -38 25 -66v-30c0 -19.333 -3.5 -34.5 -10.5 -45.5s-14.5 -19.5 -22.5 -25.5c-9.33301 -7.33301 -20 -12 -32 -14l70 -125c1.33301 -2.66699 1.5 -5 0.5 -7s-2.83301 -3 -5.5 -3h-24c-4.66699 0 -8.66699 1.66699 -12 5
c-2 1.33301 -3.33301 3 -4 5zM110 530c0 52.667 15.333 94.167 46 124.5s73.667 45.5 129 45.5h345c55.333 0 98.333 -15.167 129 -45.5s46 -71.833 46 -124.5v-360c0 -52.667 -15.333 -94.167 -46 -124.5s-73.667 -45.5 -129 -45.5h-345
c-55.333 0 -98.333 15.167 -129 45.5s-46 71.833 -46 124.5v360zM155 170c0 -40 11 -70.833 33 -92.5s54.333 -32.5 97 -32.5h345c42.667 0 75 10.833 97 32.5s33 52.5 33 92.5v360c0 40 -11 70.833 -33 92.5s-54.333 32.5 -97 32.5h-345c-42.667 0 -75 -10.833 -97 -32.5
s-33 -52.5 -33 -92.5v-360z" />
    <glyph glyph-name="macron" unicode="&#xaf;" horiz-adv-x="320" 
d="M40 660c-6.66699 0 -10 3.33301 -10 10v20c0 6.66699 3.33301 10 10 10h240c6.66699 0 10 -3.33301 10 -10v-20c0 -6.66699 -3.33301 -10 -10 -10h-240z" />
    <glyph glyph-name="degree" unicode="&#xb0;" horiz-adv-x="385" 
d="M50 590c0 35.333 9.66699 62.5 29 81.5s48 28.5 86 28.5h55c38 0 66.667 -9.5 86 -28.5s29 -46.167 29 -81.5v-90c0 -35.333 -9.66699 -62.5 -29 -81.5s-48 -28.5 -86 -28.5h-55c-38 0 -66.667 9.5 -86 28.5s-29 46.167 -29 81.5v90zM295 590c0 46.667 -25 70 -75 70h-55
c-50 0 -75 -23.333 -75 -70v-90c0 -46.667 25 -70 75 -70h55c50 0 75 23.333 75 70v90z" />
    <glyph glyph-name="plusminus" unicode="&#xb1;" horiz-adv-x="455" 
d="M50 105c-6.66699 0 -10 3.33301 -10 10v25c0 6.66699 3.33301 10 10 10h155v195h-155c-6.66699 0 -10 3.33301 -10 10v25c0 6.66699 3.33301 10 10 10h155v170c0 6.66699 3.33301 10 10 10h25c6.66699 0 10 -3.33301 10 -10v-170h155c6.66699 0 10 -3.33301 10 -10v-25
c0 -6.66699 -3.33301 -10 -10 -10h-155v-195h155c6.66699 0 10 -3.33301 10 -10v-25c0 -6.66699 -3.33301 -10 -10 -10h-355z" />
    <glyph glyph-name="twosuperior" unicode="&#xb2;" horiz-adv-x="315" 
d="M235 700c0 40 -21.666 59.998 -64.999 59.998h-25c-43.333 0 -65 -20 -65 -60c0 -6.66699 -3.33301 -10 -10 -10h-20c-6.66699 0 -10 3.33301 -10 10c0 66.667 35 100 105 100h25c70 0 105 -33.333 105 -100c0 -20 -5.5 -36.667 -16.5 -50s-24.167 -25 -39.5 -35
l-124 -80v-5h170c6.66699 0 10 -3.33301 10 -10v-20c0 -6.66699 -3.33301 -10 -10 -10h-215c-6.66699 0 -10 3.33301 -10 10v35c0 2.66699 1 5.33398 3 8.00098s4.33301 5 7 7l155 100c7.33301 5.33301 14.166 11.833 20.499 19.5s9.5 17.834 9.5 30.501z" />
    <glyph glyph-name="threesuperior" unicode="&#xb3;" horiz-adv-x="325" 
d="M175 690l0.000976562 -5.00098h5c35.333 0 61.666 -8.33301 78.999 -25s26 -40 26 -70c0 -66.667 -35 -100 -105 -100h-35c-70 0 -105 33.333 -105 100c0 6.66699 3.33301 10 10 10h20c6.66699 0 10 -3.33301 10 -10c0 -40 21.667 -60 65 -60h35c43.333 0 65 20 65 60
s-21.667 60 -65 60h-75c-6.66699 0 -10 3.33301 -10 10v5c0 2.66699 1 5.33398 3 8.00098s4.33301 5 7 7l115 75v5h-170c-6.66699 0 -10 3.33301 -10 10v20c0 6.66699 3.33301 10 10 10h215c6.66699 0 10 -3.33301 10 -10v-25c0 -2.66699 -1 -5.5 -3 -8.5
s-4.33301 -5.16699 -7 -6.5z" />
    <glyph glyph-name="acute" unicode="&#xb4;" horiz-adv-x="189" 
d="M67 555c-1.33301 -2.66699 -2.83301 -5 -4.5 -7s-5.16699 -3 -10.5 -3h-15c-2.66699 0 -4.5 1 -5.5 3s-0.833008 4.33301 0.5 7l75 135c1.33301 2.66699 2.83301 5 4.5 7s5.16699 3 10.5 3h30c2.66699 0 4.5 -1 5.5 -3s0.833008 -4.33301 -0.5 -7z" />
    <glyph glyph-name="mu" unicode="&#xb5;" horiz-adv-x="580" 
d="M245 -10c-21.333 0 -39.168 2.50098 -53.501 7.50098s-26.166 10.833 -35.499 17.5c-10.667 7.33301 -19.334 15.666 -26.001 24.999v-220c0 -6.66699 -3.33301 -10 -10 -10h-20c-6.66699 0 -10 3.33301 -10 10v680c0 6.66699 3.33301 10 10 10h20
c6.66699 0 10 -3.33301 10 -10v-360c0 -35.333 9.66699 -62.5 29 -81.5s48 -28.5 86 -28.5h75c40 0 71.667 11.333 95 34s35 53 35 91v345c0 6.66699 3.33301 10 10 10h20c6.66699 0 10 -3.33301 10 -10v-490c0 -6.66699 -3.33301 -10 -10 -10h-20
c-6.66699 -0 -10 3.33301 -10 10v55h-5c-5.33301 -14 -13.666 -26.667 -24.999 -38c-9.33301 -9.33301 -22 -17.833 -38 -25.5s-36.667 -11.5 -62 -11.5h-75z" />
    <glyph glyph-name="paragraph" unicode="&#xb6;" horiz-adv-x="590" 
d="M235 350h-10c-52.667 0 -93.334 14.167 -122.001 42.5s-43 67.5 -43 117.5v30c0 50 14.333 89.167 43 117.5s69.334 42.5 122.001 42.5h255c6.66699 0 10 -3.33301 10 -10v-720c0 -52.667 -15.333 -94.167 -46 -124.5s-73.667 -45.5 -129 -45.5h-155
c-6.66699 0 -10 3.33301 -10 10v25c0 6.66699 3.33301 10 10 10h65c6.66699 0 10 3.33301 10 10v495zM315 -155c42.667 0 75 10.833 97 32.5s33 52.5 33 92.5v685h-165v-810h35z" />
    <glyph glyph-name="periodcentered" unicode="&#xb7;" horiz-adv-x="190" 
d="M80 275c-6.66699 0 -10 3.33301 -10 10v30c0 6.66699 3.33301 10 10 10h30c6.66699 0 10 -3.33301 10 -10v-30c0 -6.66699 -3.33301 -10 -10 -10h-30z" />
    <glyph glyph-name="cedilla" unicode="&#xb8;" horiz-adv-x="225" 
d="M60 -105c-6.66699 0 -10 3.33301 -10 10v20c0 7.33301 1.66699 14.333 5 21c1.33301 3.33301 3 6.33301 5 9l28 45h27l-35 -70h20c30 0 53.333 -7.83301 70 -23.5s25 -36.167 25 -61.5s-8.33301 -45.833 -25 -61.5s-40 -23.5 -70 -23.5h-60
c-6.66699 0 -10 3.33301 -10 10v15c0 6.66699 3.33301 10 10 10h60c20 0 35 4.5 45 13.5s15 21.167 15 36.5s-5 27.5 -15 36.5s-25 13.5 -45 13.5h-40z" />
    <glyph glyph-name="onesuperior" unicode="&#xb9;" horiz-adv-x="230" 
d="M50 790c0 6.66699 3.33301 10 10 10h110c6.66699 0 10 -3.33301 10 -10v-290c0 -6.66699 -3.33301 -10 -10 -10h-20c-6.66699 0 -10 3.33301 -10 10v260h-80c-6.66699 0 -10 3.33301 -10 10v20z" />
    <glyph glyph-name="ordmasculine" unicode="&#xba;" horiz-adv-x="370" 
d="M50 590c0 35.333 9.66699 62.5 29 81.5s48 28.5 86 28.5h40c38 0 66.667 -9.5 86 -28.5s29 -46.167 29 -81.5v-90c0 -35.333 -9.66699 -62.5 -29 -81.5s-48 -28.5 -86 -28.5h-40c-38 0 -66.667 9.5 -86 28.5s-29 46.167 -29 81.5v90zM280 590c0 46.667 -25 70 -75 70h-40
c-50 0 -75 -23.333 -75 -70v-90c0 -46.667 25 -70 75 -70h40c50 0 75 23.333 75 70v90z" />
    <glyph glyph-name="guillemotright" unicode="&#xbb;" horiz-adv-x="447" 
d="M227 445c-1.33301 2.66699 -1.50098 5 -0.500977 7s2.83301 3 5.5 3h25c3.33301 0 6.5 -0.5 9.5 -1.5s5.16699 -2.16699 6.5 -3.5c2 -2 3.33301 -3.66699 4 -5l120 -190l-120 -190c-0.666992 -2 -2 -3.66699 -4 -5c-3.33301 -3.33301 -8.66602 -5 -15.999 -5h-25
c-2.66699 0 -4.5 1 -5.5 3s-0.833008 4.33301 0.5 7l120 190zM51.999 445c-1.33301 2.66699 -1.50098 5 -0.500977 7s2.83301 3 5.5 3h25c3.33301 0 6.5 -0.5 9.5 -1.5s5.16699 -2.16699 6.5 -3.5c2 -2 3.33301 -3.66699 4 -5l120 -190l-120 -190
c-0.666992 -2 -2 -3.66699 -4 -5c-3.33301 -3.33301 -8.66602 -5 -15.999 -5h-25c-2.66699 0 -4.5 1 -5.5 3s-0.833008 4.33301 0.5 7l120 190z" />
    <glyph glyph-name="onequarter" unicode="&#xbc;" horiz-adv-x="675" 
d="M180 10c-1.33301 -2.66699 -2.83301 -5 -4.5 -7s-5.16699 -3 -10.5 -3h-25c-6 -0 -7.66699 3.33301 -5 10l315 680c1.33301 2.66699 2.83301 5 4.5 7s5.16699 3 10.5 3h25c6 0 7.66699 -3.33301 5 -10zM30 690c0 6.66699 3.33301 10 10 10h110
c6.66699 0 10 -3.33301 10 -10v-290c0 -6.66699 -3.33301 -10 -10 -10h-20c-6.66699 0 -10 3.33301 -10 10v260h-80c-6.66699 0 -10 3.33301 -10 10v20zM585 110l40 -0.000976562c6.66699 0 10 -3.33301 10 -10v-20c0 -6.66699 -3.33301 -10 -10 -10h-40v-60
c0 -6.66699 -3.33301 -10 -10 -10h-20c-6.66699 0 -10 3.33301 -10 10v60h-165c-6.66699 0 -10 3.33301 -10 10v20c0 4.66699 1.66699 9.33398 5 14.001c1.33301 2.66699 3 4.66699 5 6l140 180c1.33301 1.33301 3.33301 3 6 5c2 1.33301 4.16699 2.5 6.5 3.5
s4.83301 1.5 7.5 1.5h35c6.66699 0 10 -3.33301 10 -10v-190zM545 109.999v160h-5l-60 -77.5l-60 -77.5v-5h125z" />
    <glyph glyph-name="onehalf" unicode="&#xbd;" horiz-adv-x="705" 
d="M180 10c-1.33301 -2.66699 -2.83301 -5 -4.5 -7s-5.16699 -3 -10.5 -3h-25c-6 -0 -7.66699 3.33301 -5 10l315 680c1.33301 2.66699 2.83301 5 4.5 7s5.16699 3 10.5 3h25c6 0 7.66699 -3.33301 5 -10zM30 690c0 6.66699 3.33301 10 10 10h110
c6.66699 0 10 -3.33301 10 -10v-290c0 -6.66699 -3.33301 -10 -10 -10h-20c-6.66699 0 -10 3.33301 -10 10v260h-80c-6.66699 0 -10 3.33301 -10 10v20zM615 210c0 40 -21.666 59.998 -64.999 59.998h-25c-43.333 0 -65 -20 -65 -60c0 -6.66699 -3.33301 -10 -10 -10h-20
c-6.66699 0 -10 3.33301 -10 10c0 66.667 35 100 105 100h25c70 0 105 -33.333 105 -100c0 -20 -5.5 -36.667 -16.5 -50s-24.167 -25 -39.5 -35l-124 -80v-5h170c6.66699 0 10 -3.33301 10 -10v-20c0 -6.66699 -3.33301 -10 -10 -10h-215c-6.66699 0 -10 3.33301 -10 10v35
c0 2.66699 1 5.33398 3 8.00098s4.33301 5 7 7l155 100c7.33301 5.33301 14.166 11.833 20.499 19.5s9.5 17.834 9.5 30.501z" />
    <glyph glyph-name="threequarters" unicode="&#xbe;" horiz-adv-x="745" 
d="M245 10c-1.33301 -2.66699 -2.83301 -5 -4.5 -7s-5.16699 -3 -10.5 -3h-25c-6 -0 -7.66699 3.33301 -5 10l315 680c1.33301 2.66699 2.83301 5 4.5 7s5.16699 3 10.5 3h25c6 0 7.66699 -3.33301 5 -10zM655 110l40 -0.000976562c6.66699 0 10 -3.33301 10 -10v-20
c0 -6.66699 -3.33301 -10 -10 -10h-40v-60c0 -6.66699 -3.33301 -10 -10 -10h-20c-6.66699 0 -10 3.33301 -10 10v60h-165c-6.66699 0 -10 3.33301 -10 10v20c0 4.66699 1.66699 9.33398 5 14.001c1.33301 2.66699 3 4.66699 5 6l140 180c1.33301 1.33301 3.33301 3 6 5
c2 1.33301 4.16699 2.5 6.5 3.5s4.83301 1.5 7.5 1.5h35c6.66699 0 10 -3.33301 10 -10v-190zM615 109.999v160h-5l-60 -77.5l-60 -77.5v-5h125zM165 589.999l0.000976562 -5.00098h5c35.333 0 61.666 -8.33301 78.999 -25s26 -40 26 -70c0 -66.667 -35 -100 -105 -100h-35
c-70 0 -105 33.333 -105 100c0 6.66699 3.33301 10 10 10h20c6.66699 0 10 -3.33301 10 -10c0 -40 21.667 -60 65 -60h35c43.333 0 65 20 65 60s-21.667 60 -65 60h-75c-6.66699 0 -10 3.33301 -10 10v5c0 2.66699 1 5.33398 3 8.00098s4.33301 5 7 7l115 75v5h-170
c-6.66699 0 -10 3.33301 -10 10v20c0 6.66699 3.33301 10 10 10h215c6.66699 0 10 -3.33301 10 -10v-25c0 -2.66699 -1 -5.5 -3 -8.5s-4.33301 -5.16699 -7 -6.5z" />
    <glyph glyph-name="questiondown" unicode="&#xbf;" horiz-adv-x="555" 
d="M295 240l5 80c0 6.66699 3.33301 10 10 10h10c6.66699 0 10 -3.33301 10 -10l5 -115c0 -6.66699 -3.33301 -10 -10 -10h-80c-42.667 0 -75 -10.833 -97 -32.5s-33 -52.5 -33 -92.5v-100c0 -40 11 -70.833 33 -92.5s54.333 -32.5 97 -32.5h125c42.667 0 75 10.833 97 32.5
s33 52.5 33 92.5v35c0 6.66699 3.33301 10 10 10h25c6.66699 0 10 -3.33301 10 -10v-35c0 -52.667 -15.333 -94.167 -46 -124.5s-73.667 -45.5 -129 -45.5h-125c-55.333 0 -98.333 15.167 -129 45.5s-46 71.833 -46 124.5v100c0 52.667 15.333 94.167 46 124.5
s73.667 45.5 129 45.5h50zM330 510c6.66699 0 10 -3.33301 10 -10v-30c0 -6.66699 -3.33301 -10 -10 -10h-30c-6.66699 0 -10 3.33301 -10 10v30c0 6.66699 3.33301 10 10 10h30z" />
    <glyph glyph-name="Agrave" unicode="&#xc0;" horiz-adv-x="647" 
d="M146 205l-75.002 -195c-1.33301 -2.66699 -2.83301 -5 -4.5 -7s-5.16699 -3 -10.5 -3h-25c-9.33301 -0 -12.666 3.33301 -9.99902 10l275 680c1.33301 3.33301 2.83301 5.83301 4.5 7.5s5.16699 2.5 10.5 2.5h25c5.33301 0 8.83301 -0.833008 10.5 -2.5
s3.16699 -4.16699 4.5 -7.5l275 -680c2.66699 -6.66699 -0.666016 -10 -9.99902 -10h-25c-5.33301 0 -8.83301 1 -10.5 3s-3.16699 4.33301 -4.5 7l-75 195h-355zM480.998 250l-155 395h-5l-155 -395h315zM209.998 935c-1.33301 2.66699 -1.5 5 -0.5 7s2.83301 3 5.5 3h30
c5.33301 0 8.83301 -1 10.5 -3s3.16699 -4.33301 4.5 -7l75 -135c1.33301 -2.66699 1.5 -5 0.5 -7s-2.83301 -3 -5.5 -3h-15c-5.33301 0 -8.83301 1 -10.5 3s-3.16699 4.33301 -4.5 7z" />
    <glyph glyph-name="Aacute" unicode="&#xc1;" horiz-adv-x="647" 
d="M146 205l-75.002 -195c-1.33301 -2.66699 -2.83301 -5 -4.5 -7s-5.16699 -3 -10.5 -3h-25c-9.33301 -0 -12.666 3.33301 -9.99902 10l275 680c1.33301 3.33301 2.83301 5.83301 4.5 7.5s5.16699 2.5 10.5 2.5h25c5.33301 0 8.83301 -0.833008 10.5 -2.5
s3.16699 -4.16699 4.5 -7.5l275 -680c2.66699 -6.66699 -0.666016 -10 -9.99902 -10h-25c-5.33301 0 -8.83301 1 -10.5 3s-3.16699 4.33301 -4.5 7l-75 195h-355zM480.998 250l-155 395h-5l-155 -395h315zM350.998 800c-1.33301 -2.66699 -2.83301 -5 -4.5 -7
s-5.16699 -3 -10.5 -3h-15c-2.66699 0 -4.5 1 -5.5 3s-0.833008 4.33301 0.5 7l75 135c1.33301 2.66699 2.83301 5 4.5 7s5.16699 3 10.5 3h30c2.66699 0 4.5 -1 5.5 -3s0.833008 -4.33301 -0.5 -7z" />
    <glyph glyph-name="Acircumflex" unicode="&#xc2;" horiz-adv-x="647" 
d="M146 205l-75.002 -195c-1.33301 -2.66699 -2.83301 -5 -4.5 -7s-5.16699 -3 -10.5 -3h-25c-9.33301 -0 -12.666 3.33301 -9.99902 10l275 680c1.33301 3.33301 2.83301 5.83301 4.5 7.5s5.16699 2.5 10.5 2.5h25c5.33301 0 8.83301 -0.833008 10.5 -2.5
s3.16699 -4.16699 4.5 -7.5l275 -680c2.66699 -6.66699 -0.666016 -10 -9.99902 -10h-25c-5.33301 0 -8.83301 1 -10.5 3s-3.16699 4.33301 -4.5 7l-75 195h-355zM480.998 250l-155 395h-5l-155 -395h315zM329.998 955c5.33301 0 9.5 -1 12.5 -3s5.5 -4.33301 7.5 -7
l110 -145c2 -2.66699 2.33301 -5 1 -7s-3.33301 -3 -6 -3h-20c-5.33301 0 -9.5 1 -12.5 3s-5.5 4.33301 -7.5 7l-88 120h-4l-88 -120c-2 -2.66699 -4.5 -5 -7.5 -7s-7.16699 -3 -12.5 -3h-20c-2.66699 0 -4.66699 1 -6 3s-1 4.33301 1 7l110 145c2 2.66699 4.5 5 7.5 7
s7.16699 3 12.5 3h10z" />
    <glyph glyph-name="Atilde" unicode="&#xc3;" horiz-adv-x="647" 
d="M146 205l-75.002 -195c-1.33301 -2.66699 -2.83301 -5 -4.5 -7s-5.16699 -3 -10.5 -3h-25c-9.33301 -0 -12.666 3.33301 -9.99902 10l275 680c1.33301 3.33301 2.83301 5.83301 4.5 7.5s5.16699 2.5 10.5 2.5h25c5.33301 0 8.83301 -0.833008 10.5 -2.5
s3.16699 -4.16699 4.5 -7.5l275 -680c2.66699 -6.66699 -0.666016 -10 -9.99902 -10h-25c-5.33301 0 -8.83301 1 -10.5 3s-3.16699 4.33301 -4.5 7l-75 195h-355zM480.998 250l-155 395h-5l-155 -395h315zM384.998 795c-16 0 -29.167 5 -39.5 15
s-19.666 20.833 -27.999 32.5l-24 32.5c-7.66699 10 -17.167 15 -28.5 15c-20 0 -30 -10 -30 -30v-55c0 -6.66699 -3.33301 -10 -10 -10h-15c-6.66699 0 -10 3.33301 -10 10v55c0 20 5.83301 35.833 17.5 47.5s27.5 17.5 47.5 17.5c16 0 29.167 -5 39.5 -15
s19.666 -20.833 27.999 -32.5l24 -32.5c7.66699 -10 17.167 -15 28.5 -15c20 0 30 10 30 30v55c0 6.66699 3.33301 10 10 10h15c6.66699 0 10 -3.33301 10 -10v-55c0 -20 -5.83301 -35.833 -17.5 -47.5s-27.5 -17.5 -47.5 -17.5z" />
    <glyph glyph-name="Adieresis" unicode="&#xc4;" horiz-adv-x="647" 
d="M146 205l-75.002 -195c-1.33301 -2.66699 -2.83301 -5 -4.5 -7s-5.16699 -3 -10.5 -3h-25c-9.33301 -0 -12.666 3.33301 -9.99902 10l275 680c1.33301 3.33301 2.83301 5.83301 4.5 7.5s5.16699 2.5 10.5 2.5h25c5.33301 0 8.83301 -0.833008 10.5 -2.5
s3.16699 -4.16699 4.5 -7.5l275 -680c2.66699 -6.66699 -0.666016 -10 -9.99902 -10h-25c-5.33301 0 -8.83301 1 -10.5 3s-3.16699 4.33301 -4.5 7l-75 195h-355zM480.998 250l-155 395h-5l-155 -395h315zM254.998 880c6.66699 0 10 -3.33301 10 -10v-30
c0 -6.66699 -3.33301 -10 -10 -10h-30c-6.66699 0 -10 3.33301 -10 10v30c0 6.66699 3.33301 10 10 10h30zM419.998 880c6.66699 0 10 -3.33301 10 -10v-30c0 -6.66699 -3.33301 -10 -10 -10h-30c-6.66699 0 -10 3.33301 -10 10v30c0 6.66699 3.33301 10 10 10h30z" />
    <glyph glyph-name="Aring" unicode="&#xc5;" horiz-adv-x="647" 
d="M146 205l-75.002 -195c-1.33301 -2.66699 -2.83301 -5 -4.5 -7s-5.16699 -3 -10.5 -3h-25c-9.33301 -0 -12.666 3.33301 -9.99902 10l275 680c1.33301 3.33301 2.83301 5.83301 4.5 7.5s5.16699 2.5 10.5 2.5h25c5.33301 0 8.83301 -0.833008 10.5 -2.5
s3.16699 -4.16699 4.5 -7.5l275 -680c2.66699 -6.66699 -0.666016 -10 -9.99902 -10h-25c-5.33301 0 -8.83301 1 -10.5 3s-3.16699 4.33301 -4.5 7l-75 195h-355zM480.998 250l-155 395h-5l-155 -395h315zM319.998 940c-20 0 -35.833 -5.66699 -47.5 -17
s-17.5 -25.666 -17.5 -42.999v-10c0 -17.333 5.83301 -31.666 17.5 -42.999s27.5 -17 47.5 -17s35.833 5.66699 47.5 17s17.5 25.666 17.5 42.999v10c0 17.333 -5.83301 31.666 -17.5 42.999s-27.5 17 -47.5 17zM319.998 775c-30 0 -54.167 8.83301 -72.5 26.5
s-27.5 40.5 -27.5 68.5v10c0 28 9.16699 50.833 27.5 68.5s42.5 26.5 72.5 26.5s54.167 -8.83301 72.5 -26.5s27.5 -40.5 27.5 -68.5v-10c0 -28 -9.16699 -50.833 -27.5 -68.5s-42.5 -26.5 -72.5 -26.5z" />
    <glyph glyph-name="AE" unicode="&#xc6;" horiz-adv-x="1010" 
d="M61 10c-1.33301 -2.66699 -2.83398 -5 -4.50098 -7s-5.16699 -3 -10.5 -3h-25c-9.33301 -0 -12.666 3.33301 -9.99902 10l265 680c1.33301 3.33301 2.83301 5.83301 4.5 7.5s5.16699 2.5 10.5 2.5h659c6.66699 0 10 -3.33301 10 -10v-25c0 -6.66699 -3.33301 -10 -10 -10
h-385v-275h295c6.66699 0 10 -3.33301 10 -10v-25c0 -6.66699 -3.33301 -10 -10 -10h-295v-290h395c6.66699 0 10 -3.33301 10 -10v-25c0 -6.66699 -3.33301 -10 -10 -10h-430c-6.66699 -0 -10 3.33301 -10 10v190h-385zM149.999 245h370v410h-210z" />
    <glyph glyph-name="Ccedilla" unicode="&#xc7;" horiz-adv-x="755" 
d="M350 -105c-6.66699 0 -10 3.33301 -10 10v20c0 7.33301 1.66699 14.333 5 21c1.33301 3.33301 3 6.33301 5 9l20 35h-95c-55.333 0 -98.333 15.167 -129 45.5s-46 71.833 -46 124.5v380c0 52.667 15.333 94.167 46 124.5s73.667 45.5 129 45.5h215
c55.333 0 98.333 -15.167 129 -45.5s46 -71.833 46 -124.5v-35c0 -6.66699 -3.33301 -10 -10 -10h-25c-6.66699 0 -10 3.33301 -10 10v35c0 40 -11 70.833 -33 92.5s-54.333 32.5 -97 32.5h-215c-42.667 0 -75 -10.833 -97 -32.5s-33 -52.5 -33 -92.5v-380
c0 -40 11 -70.833 33 -92.5s54.333 -32.5 97 -32.5h215c42.667 0 75 10.833 97 32.5s33 52.5 33 92.5v35c0 6.66699 3.33301 10 10 10h25c6.66699 0 10 -3.33301 10 -10v-35c0 -52.667 -15.333 -94.167 -46 -124.5s-73.667 -45.5 -129 -45.5h-90l-30 -60h20
c30 0 53.333 -7.83301 70 -23.5s25 -36.167 25 -61.5s-8.33301 -45.833 -25 -61.5s-40 -23.5 -70 -23.5h-60c-6.66699 0 -10 3.33301 -10 10v15c0 6.66699 3.33301 10 10 10h60c20 0 35 4.5 45 13.5s15 21.167 15 36.5s-5 27.5 -15 36.5s-25 13.5 -45 13.5h-40z" />
    <glyph glyph-name="Egrave" unicode="&#xc8;" horiz-adv-x="660" 
d="M155 380h355c6.66699 0 10 -3.33301 10 -10v-25c0 -6.66699 -3.33301 -10 -10 -10h-355v-290h455c6.66699 0 10 -3.33301 10 -10v-25c0 -6.66699 -3.33301 -10 -10 -10h-490c-6.66699 -0 -10 3.33301 -10 10v680c0 6.66699 3.33301 10 10 10h480
c6.66699 0 10 -3.33301 10 -10v-25c0 -6.66699 -3.33301 -10 -10 -10h-445v-275zM257 935c-1.33301 2.66699 -1.5 5 -0.5 7s2.83301 3 5.5 3h30c5.33301 0 8.83301 -1 10.5 -3s3.16699 -4.33301 4.5 -7l75 -135c1.33301 -2.66699 1.5 -5 0.5 -7s-2.83301 -3 -5.5 -3h-15
c-5.33301 0 -8.83301 1 -10.5 3s-3.16699 4.33301 -4.5 7z" />
    <glyph glyph-name="Eacute" unicode="&#xc9;" horiz-adv-x="660" 
d="M155 380h355c6.66699 0 10 -3.33301 10 -10v-25c0 -6.66699 -3.33301 -10 -10 -10h-355v-290h455c6.66699 0 10 -3.33301 10 -10v-25c0 -6.66699 -3.33301 -10 -10 -10h-490c-6.66699 -0 -10 3.33301 -10 10v680c0 6.66699 3.33301 10 10 10h480
c6.66699 0 10 -3.33301 10 -10v-25c0 -6.66699 -3.33301 -10 -10 -10h-445v-275zM372 800c-1.33301 -2.66699 -2.83301 -5 -4.5 -7s-5.16699 -3 -10.5 -3h-15c-2.66699 0 -4.5 1 -5.5 3s-0.833008 4.33301 0.5 7l75 135c1.33301 2.66699 2.83301 5 4.5 7s5.16699 3 10.5 3
h30c2.66699 0 4.5 -1 5.5 -3s0.833008 -4.33301 -0.5 -7z" />
    <glyph glyph-name="Ecircumflex" unicode="&#xca;" horiz-adv-x="660" 
d="M155 380h355c6.66699 0 10 -3.33301 10 -10v-25c0 -6.66699 -3.33301 -10 -10 -10h-355v-290h455c6.66699 0 10 -3.33301 10 -10v-25c0 -6.66699 -3.33301 -10 -10 -10h-490c-6.66699 -0 -10 3.33301 -10 10v680c0 6.66699 3.33301 10 10 10h480
c6.66699 0 10 -3.33301 10 -10v-25c0 -6.66699 -3.33301 -10 -10 -10h-445v-275zM360 955c5.33301 0 9.5 -1 12.5 -3s5.5 -4.33301 7.5 -7l110 -145c2 -2.66699 2.33301 -5 1 -7s-3.33301 -3 -6 -3h-20c-5.33301 0 -9.5 1 -12.5 3s-5.5 4.33301 -7.5 7l-88 120h-4l-88 -120
c-2 -2.66699 -4.5 -5 -7.5 -7s-7.16699 -3 -12.5 -3h-20c-2.66699 0 -4.66699 1 -6 3s-1 4.33301 1 7l110 145c2 2.66699 4.5 5 7.5 7s7.16699 3 12.5 3h10z" />
    <glyph glyph-name="Edieresis" unicode="&#xcb;" horiz-adv-x="660" 
d="M155 380h355c6.66699 0 10 -3.33301 10 -10v-25c0 -6.66699 -3.33301 -10 -10 -10h-355v-290h455c6.66699 0 10 -3.33301 10 -10v-25c0 -6.66699 -3.33301 -10 -10 -10h-490c-6.66699 -0 -10 3.33301 -10 10v680c0 6.66699 3.33301 10 10 10h480
c6.66699 0 10 -3.33301 10 -10v-25c0 -6.66699 -3.33301 -10 -10 -10h-445v-275zM290 890c6.66699 0 10 -3.33301 10 -10v-30c0 -6.66699 -3.33301 -10 -10 -10h-30c-6.66699 0 -10 3.33301 -10 10v30c0 6.66699 3.33301 10 10 10h30zM455 890c6.66699 0 10 -3.33301 10 -10
v-30c0 -6.66699 -3.33301 -10 -10 -10h-30c-6.66699 0 -10 3.33301 -10 10v30c0 6.66699 3.33301 10 10 10h30z" />
    <glyph glyph-name="Igrave" unicode="&#xcc;" horiz-adv-x="267" 
d="M157 10c0 -6.66699 -3.33301 -10 -10 -10h-25c-6.66699 -0 -10 3.33301 -10 10v680c0 6.66699 3.33301 10 10 10h25c6.66699 0 10 -3.33301 10 -10v-680zM23 935c-1.33301 2.66699 -1.5 5 -0.5 7s2.83301 3 5.5 3h30c5.33301 0 8.83301 -1 10.5 -3
s3.16699 -4.33301 4.5 -7l75 -135c1.33301 -2.66699 1.5 -5 0.5 -7s-2.83301 -3 -5.5 -3h-15c-5.33301 0 -8.83301 1 -10.5 3s-3.16699 4.33301 -4.5 7z" />
    <glyph glyph-name="Iacute" unicode="&#xcd;" horiz-adv-x="262" 
d="M155 10c0 -6.66699 -3.33301 -10 -10 -10h-25c-6.66699 -0 -10 3.33301 -10 10v680c0 6.66699 3.33301 10 10 10h25c6.66699 0 10 -3.33301 10 -10v-680zM150 800c-1.33301 -2.66699 -2.83301 -5 -4.5 -7s-5.16699 -3 -10.5 -3h-15c-2.66699 0 -4.5 1 -5.5 3
s-0.833008 4.33301 0.5 7l75 135c1.33301 2.66699 2.83301 5 4.5 7s5.16699 3 10.5 3h30c2.66699 0 4.5 -1 5.5 -3s0.833008 -4.33301 -0.5 -7z" />
    <glyph glyph-name="Icircumflex" unicode="&#xce;" horiz-adv-x="274" 
d="M157 10c0 -6.66699 -3.33301 -10 -10 -10h-25c-6.66699 -0 -10 3.33301 -10 10v680c0 6.66699 3.33301 10 10 10h25c6.66699 0 10 -3.33301 10 -10v-680zM143 955c5.33301 0 9.5 -1 12.5 -3s5.5 -4.33301 7.5 -7l110 -145c2 -2.66699 2.33301 -5 1 -7s-3.33301 -3 -6 -3
h-20c-5.33301 0 -9.5 1 -12.5 3s-5.5 4.33301 -7.5 7l-88 120h-4l-88 -120c-2 -2.66699 -4.5 -5 -7.5 -7s-7.16699 -3 -12.5 -3h-20c-2.66699 0 -4.66699 1 -6 3s-1 4.33301 1 7l110 145c2 2.66699 4.5 5 7.5 7s7.16699 3 12.5 3h10z" />
    <glyph glyph-name="Idieresis" unicode="&#xcf;" horiz-adv-x="265" 
d="M155 10c0 -6.66699 -3.33301 -10 -10 -10h-25c-6.66699 -0 -10 3.33301 -10 10v680c0 6.66699 3.33301 10 10 10h25c6.66699 0 10 -3.33301 10 -10v-680zM66 880c6.66699 0 10 -3.33301 10 -10v-30c0 -6.66699 -3.33301 -10 -10 -10h-30c-6.66699 0 -10 3.33301 -10 10
v30c0 6.66699 3.33301 10 10 10h30zM231 880c6.66699 0 10 -3.33301 10 -10v-30c0 -6.66699 -3.33301 -10 -10 -10h-30c-6.66699 0 -10 3.33301 -10 10v30c0 6.66699 3.33301 10 10 10h30z" />
    <glyph glyph-name="Eth" unicode="&#xd0;" horiz-adv-x="765" 
d="M500 700c55.333 0 98.333 -15.167 129 -45.5s46 -71.833 46 -124.5v-360c0 -52.667 -15.333 -94.167 -46 -124.5s-73.667 -45.5 -129 -45.5h-365c-6.66699 -0 -10 3.33301 -10 10v315h-85c-6.66699 0 -10 3.33301 -10 10v25c0 6.66699 3.33301 10 10 10h85v320
c0 6.66699 3.33301 10 10 10h365zM170 325v-280h330c42.667 0 75 10.833 97 32.5s33 52.5 33 92.5v360c0 40 -11 70.833 -33 92.5s-54.333 32.5 -97 32.5h-330v-285h180c6.66699 0 10 -3.33301 10 -10v-25c0 -6.66699 -3.33301 -10 -10 -10h-180z" />
    <glyph glyph-name="Ntilde" unicode="&#xd1;" horiz-adv-x="775" 
d="M620 690c0 6.66699 3.33301 10 10 10h25c6.66699 0 10 -3.33301 10 -10v-680c0 -6.66699 -3.33301 -10 -10 -10h-35c-5.33301 0 -9.5 1 -12.5 3s-5.5 4.33301 -7.5 7l-440 625h-5v-625c0 -6.66699 -3.33301 -10 -10 -10h-25c-6.66699 -0 -10 3.33301 -10 10v680
c0 6.66699 3.33301 10 10 10h35c5.33301 0 9.5 -1 12.5 -3s5.5 -4.33301 7.5 -7l440 -625h5v625zM445 790c-16 0 -29.167 5 -39.5 15s-19.666 20.833 -27.999 32.5l-24 32.5c-7.66699 10 -17.167 15 -28.5 15c-20 0 -30 -10 -30 -30v-55c0 -6.66699 -3.33301 -10 -10 -10
h-15c-6.66699 0 -10 3.33301 -10 10v55c0 20 5.83301 35.833 17.5 47.5s27.5 17.5 47.5 17.5c16 0 29.167 -5 39.5 -15s19.666 -20.833 27.999 -32.5l24 -32.5c7.66699 -10 17.167 -15 28.5 -15c20 0 30 10 30 30v55c0 6.66699 3.33301 10 10 10h15
c6.66699 0 10 -3.33301 10 -10v-55c0 -20 -5.83301 -35.833 -17.5 -47.5s-27.5 -17.5 -47.5 -17.5z" />
    <glyph glyph-name="Ograve" unicode="&#xd2;" horiz-adv-x="775" 
d="M100 540c0 52.667 15.333 94.167 46 124.5s73.667 45.5 129 45.5h225c55.333 0 98.333 -15.167 129 -45.5s46 -71.833 46 -124.5v-380c0 -52.667 -15.333 -94.167 -46 -124.5s-73.667 -45.5 -129 -45.5h-225c-55.333 0 -98.333 15.167 -129 45.5s-46 71.833 -46 124.5
v380zM145 160c0 -40 11 -70.833 33 -92.5s54.333 -32.5 97 -32.5h225c42.667 0 75 10.833 97 32.5s33 52.5 33 92.5v380c0 40 -11 70.833 -33 92.5s-54.333 32.5 -97 32.5h-225c-42.667 0 -75 -10.833 -97 -32.5s-33 -52.5 -33 -92.5v-380zM275 945
c-1.33301 2.66699 -1.5 5 -0.5 7s2.83301 3 5.5 3h30c5.33301 0 8.83301 -1 10.5 -3s3.16699 -4.33301 4.5 -7l75 -135c1.33301 -2.66699 1.5 -5 0.5 -7s-2.83301 -3 -5.5 -3h-15c-5.33301 0 -8.83301 1 -10.5 3s-3.16699 4.33301 -4.5 7z" />
    <glyph glyph-name="Oacute" unicode="&#xd3;" horiz-adv-x="775" 
d="M100 540c0 52.667 15.333 94.167 46 124.5s73.667 45.5 129 45.5h225c55.333 0 98.333 -15.167 129 -45.5s46 -71.833 46 -124.5v-380c0 -52.667 -15.333 -94.167 -46 -124.5s-73.667 -45.5 -129 -45.5h-225c-55.333 0 -98.333 15.167 -129 45.5s-46 71.833 -46 124.5
v380zM145 160c0 -40 11 -70.833 33 -92.5s54.333 -32.5 97 -32.5h225c42.667 0 75 10.833 97 32.5s33 52.5 33 92.5v380c0 40 -11 70.833 -33 92.5s-54.333 32.5 -97 32.5h-225c-42.667 0 -75 -10.833 -97 -32.5s-33 -52.5 -33 -92.5v-380zM400 810
c-1.33301 -2.66699 -2.83301 -5 -4.5 -7s-5.16699 -3 -10.5 -3h-15c-2.66699 0 -4.5 1 -5.5 3s-0.833008 4.33301 0.5 7l75 135c1.33301 2.66699 2.83301 5 4.5 7s5.16699 3 10.5 3h30c2.66699 0 4.5 -1 5.5 -3s0.833008 -4.33301 -0.5 -7z" />
    <glyph glyph-name="Ocircumflex" unicode="&#xd4;" horiz-adv-x="775" 
d="M100 540c0 52.667 15.333 94.167 46 124.5s73.667 45.5 129 45.5h225c55.333 0 98.333 -15.167 129 -45.5s46 -71.833 46 -124.5v-380c0 -52.667 -15.333 -94.167 -46 -124.5s-73.667 -45.5 -129 -45.5h-225c-55.333 0 -98.333 15.167 -129 45.5s-46 71.833 -46 124.5
v380zM145 160c0 -40 11 -70.833 33 -92.5s54.333 -32.5 97 -32.5h225c42.667 0 75 10.833 97 32.5s33 52.5 33 92.5v380c0 40 -11 70.833 -33 92.5s-54.333 32.5 -97 32.5h-225c-42.667 0 -75 -10.833 -97 -32.5s-33 -52.5 -33 -92.5v-380zM390 965
c5.33301 0 9.5 -1 12.5 -3s5.5 -4.33301 7.5 -7l110 -145c2 -2.66699 2.33301 -5 1 -7s-3.33301 -3 -6 -3h-20c-5.33301 0 -9.5 1 -12.5 3s-5.5 4.33301 -7.5 7l-88 120h-4l-88 -120c-2 -2.66699 -4.5 -5 -7.5 -7s-7.16699 -3 -12.5 -3h-20c-2.66699 0 -4.66699 1 -6 3
s-1 4.33301 1 7l110 145c2 2.66699 4.5 5 7.5 7s7.16699 3 12.5 3h10z" />
    <glyph glyph-name="Otilde" unicode="&#xd5;" horiz-adv-x="775" 
d="M100 540c0 52.667 15.333 94.167 46 124.5s73.667 45.5 129 45.5h225c55.333 0 98.333 -15.167 129 -45.5s46 -71.833 46 -124.5v-380c0 -52.667 -15.333 -94.167 -46 -124.5s-73.667 -45.5 -129 -45.5h-225c-55.333 0 -98.333 15.167 -129 45.5s-46 71.833 -46 124.5
v380zM145 160c0 -40 11 -70.833 33 -92.5s54.333 -32.5 97 -32.5h225c42.667 0 75 10.833 97 32.5s33 52.5 33 92.5v380c0 40 -11 70.833 -33 92.5s-54.333 32.5 -97 32.5h-225c-42.667 0 -75 -10.833 -97 -32.5s-33 -52.5 -33 -92.5v-380zM440 790
c-16 0 -29.167 5 -39.5 15s-19.666 20.833 -27.999 32.5l-24 32.5c-7.66699 10 -17.167 15 -28.5 15c-20 0 -30 -10 -30 -30v-55c0 -6.66699 -3.33301 -10 -10 -10h-15c-6.66699 0 -10 3.33301 -10 10v55c0 20 5.83301 35.833 17.5 47.5s27.5 17.5 47.5 17.5
c16 0 29.167 -5 39.5 -15s19.666 -20.833 27.999 -32.5l24 -32.5c7.66699 -10 17.167 -15 28.5 -15c20 0 30 10 30 30v55c0 6.66699 3.33301 10 10 10h15c6.66699 0 10 -3.33301 10 -10v-55c0 -20 -5.83301 -35.833 -17.5 -47.5s-27.5 -17.5 -47.5 -17.5z" />
    <glyph glyph-name="Odieresis" unicode="&#xd6;" horiz-adv-x="775" 
d="M100 540c0 52.667 15.333 94.167 46 124.5s73.667 45.5 129 45.5h225c55.333 0 98.333 -15.167 129 -45.5s46 -71.833 46 -124.5v-380c0 -52.667 -15.333 -94.167 -46 -124.5s-73.667 -45.5 -129 -45.5h-225c-55.333 0 -98.333 15.167 -129 45.5s-46 71.833 -46 124.5
v380zM145 160c0 -40 11 -70.833 33 -92.5s54.333 -32.5 97 -32.5h225c42.667 0 75 10.833 97 32.5s33 52.5 33 92.5v380c0 40 -11 70.833 -33 92.5s-54.333 32.5 -97 32.5h-225c-42.667 0 -75 -10.833 -97 -32.5s-33 -52.5 -33 -92.5v-380zM320 900
c6.66699 0 10 -3.33301 10 -10v-30c0 -6.66699 -3.33301 -10 -10 -10h-30c-6.66699 0 -10 3.33301 -10 10v30c0 6.66699 3.33301 10 10 10h30zM485 900c6.66699 0 10 -3.33301 10 -10v-30c0 -6.66699 -3.33301 -10 -10 -10h-30c-6.66699 0 -10 3.33301 -10 10v30
c0 6.66699 3.33301 10 10 10h30z" />
    <glyph glyph-name="multiply" unicode="&#xd7;" horiz-adv-x="396" 
d="M353 185c3.33301 -3.33301 3.33301 -6.66602 0 -9.99902l-20 -20c-3.33301 -3.33301 -6.66602 -3.33301 -9.99902 0l-125 130l-125 -130c-3.33301 -3.33301 -6.66602 -3.33301 -9.99902 0l-20 20c-3.33301 3.33301 -3.33301 6.66602 0 9.99902l125 130l-125 130
c-3.33301 3.33301 -3.33301 6.66602 0 9.99902l20 20c3.33301 3.33301 6.66602 3.33301 9.99902 0l125 -130l125 130c3.33301 3.33301 6.66602 3.33301 9.99902 0l20 -20c3.33301 -3.33301 3.33301 -6.66602 0 -9.99902l-125 -130z" />
    <glyph glyph-name="Oslash" unicode="&#xd8;" horiz-adv-x="775" 
d="M100 540c0 52.667 15.333 94.167 46 124.5s73.667 45.5 129 45.5h225c55.333 0 98.333 -15.167 129 -45.5s46 -71.833 46 -124.5v-380c0 -52.667 -15.333 -94.167 -46 -124.5s-73.667 -45.5 -129 -45.5h-225c-55.333 0 -98.333 15.167 -129 45.5s-46 71.833 -46 124.5
v380zM630 540c0 12.667 -0.999023 23.833 -2.99902 33.5s-4.33301 18.167 -7 25.5c-2.66699 8 -6 15 -10 21l-420 -565c7.33301 -4 15.333 -7.33301 24 -10c7.33301 -2.66699 16.166 -5 26.499 -7s21.833 -3 34.5 -3h225c42.667 0 75 10.833 97 32.5s33 52.5 33 92.5v380z
M145.001 159.999c0 -12.667 0.999023 -23.833 2.99902 -33.5s4.33301 -18.167 7 -25.5c2.66699 -8 6 -15 10 -21l420 565c-7.33301 4 -15.333 7.33301 -24 10c-7.33301 2.66699 -16.166 5 -26.499 7s-21.833 3 -34.5 3h-225c-42.667 0 -75 -10.833 -97 -32.5
s-33 -52.5 -33 -92.5v-380z" />
    <glyph glyph-name="Ugrave" unicode="&#xd9;" horiz-adv-x="760" 
d="M650 160c0 -52.667 -15.333 -94.167 -46 -124.5s-73.667 -45.5 -129 -45.5h-190c-55.333 0 -98.333 15.167 -129 45.5s-46 71.833 -46 124.5v530c0 6.66699 3.33301 10 10 10h25c6.66699 0 10 -3.33301 10 -10v-530c0 -40 11 -70.833 33 -92.5s54.333 -32.5 97 -32.5h190
c42.667 0 75 10.833 97 32.5s33 52.5 33 92.5v530c0 6.66699 3.33301 10 10 10h25c6.66699 0 10 -3.33301 10 -10v-530zM270 935c-1.33301 2.66699 -1.5 5 -0.5 7s2.83301 3 5.5 3h30c5.33301 0 8.83301 -1 10.5 -3s3.16699 -4.33301 4.5 -7l75 -135
c1.33301 -2.66699 1.5 -5 0.5 -7s-2.83301 -3 -5.5 -3h-15c-5.33301 0 -8.83301 1 -10.5 3s-3.16699 4.33301 -4.5 7z" />
    <glyph glyph-name="Uacute" unicode="&#xda;" horiz-adv-x="760" 
d="M650 160c0 -52.667 -15.333 -94.167 -46 -124.5s-73.667 -45.5 -129 -45.5h-190c-55.333 0 -98.333 15.167 -129 45.5s-46 71.833 -46 124.5v530c0 6.66699 3.33301 10 10 10h25c6.66699 0 10 -3.33301 10 -10v-530c0 -40 11 -70.833 33 -92.5s54.333 -32.5 97 -32.5h190
c42.667 0 75 10.833 97 32.5s33 52.5 33 92.5v530c0 6.66699 3.33301 10 10 10h25c6.66699 0 10 -3.33301 10 -10v-530zM390 800c-1.33301 -2.66699 -2.83301 -5 -4.5 -7s-5.16699 -3 -10.5 -3h-15c-2.66699 0 -4.5 1 -5.5 3s-0.833008 4.33301 0.5 7l75 135
c1.33301 2.66699 2.83301 5 4.5 7s5.16699 3 10.5 3h30c2.66699 0 4.5 -1 5.5 -3s0.833008 -4.33301 -0.5 -7z" />
    <glyph glyph-name="Ucircumflex" unicode="&#xdb;" horiz-adv-x="760" 
d="M650 160c0 -52.667 -15.333 -94.167 -46 -124.5s-73.667 -45.5 -129 -45.5h-190c-55.333 0 -98.333 15.167 -129 45.5s-46 71.833 -46 124.5v530c0 6.66699 3.33301 10 10 10h25c6.66699 0 10 -3.33301 10 -10v-530c0 -40 11 -70.833 33 -92.5s54.333 -32.5 97 -32.5h190
c42.667 0 75 10.833 97 32.5s33 52.5 33 92.5v530c0 6.66699 3.33301 10 10 10h25c6.66699 0 10 -3.33301 10 -10v-530zM385 965c5.33301 0 9.5 -1 12.5 -3s5.5 -4.33301 7.5 -7l110 -145c2 -2.66699 2.33301 -5 1 -7s-3.33301 -3 -6 -3h-20c-5.33301 0 -9.5 1 -12.5 3
s-5.5 4.33301 -7.5 7l-88 120h-4l-88 -120c-2 -2.66699 -4.5 -5 -7.5 -7s-7.16699 -3 -12.5 -3h-20c-2.66699 0 -4.66699 1 -6 3s-1 4.33301 1 7l110 145c2 2.66699 4.5 5 7.5 7s7.16699 3 12.5 3h10z" />
    <glyph glyph-name="Udieresis" unicode="&#xdc;" horiz-adv-x="760" 
d="M650 160c0 -52.667 -15.333 -94.167 -46 -124.5s-73.667 -45.5 -129 -45.5h-190c-55.333 0 -98.333 15.167 -129 45.5s-46 71.833 -46 124.5v530c0 6.66699 3.33301 10 10 10h25c6.66699 0 10 -3.33301 10 -10v-530c0 -40 11 -70.833 33 -92.5s54.333 -32.5 97 -32.5h190
c42.667 0 75 10.833 97 32.5s33 52.5 33 92.5v530c0 6.66699 3.33301 10 10 10h25c6.66699 0 10 -3.33301 10 -10v-530zM305 900c6.66699 0 10 -3.33301 10 -10v-30c0 -6.66699 -3.33301 -10 -10 -10h-30c-6.66699 0 -10 3.33301 -10 10v30c0 6.66699 3.33301 10 10 10h30z
M470 900c6.66699 0 10 -3.33301 10 -10v-30c0 -6.66699 -3.33301 -10 -10 -10h-30c-6.66699 0 -10 3.33301 -10 10v30c0 6.66699 3.33301 10 10 10h30z" />
    <glyph glyph-name="Yacute" unicode="&#xdd;" horiz-adv-x="619" 
d="M312 300l235 390c1.33301 2.66699 2.83301 5 4.5 7s5.16699 3 10.5 3h30c2.66699 0 4.66699 -0.833008 6 -2.5s1 -4.16699 -1 -7.5l-265 -440v-240c0 -6.66699 -3.33301 -10 -10 -10h-25c-6.66699 -0 -10 3.33301 -10 10v240l-265 440
c-2 3.33301 -2.33301 5.83301 -1 7.5s3.33301 2.5 6 2.5h30c5.33301 0 8.83301 -1 10.5 -3s3.16699 -4.33301 4.5 -7l235 -390h5zM330 800c-1.33301 -2.66699 -2.83301 -5 -4.5 -7s-5.16699 -3 -10.5 -3h-15c-2.66699 0 -4.5 1 -5.5 3s-0.833008 4.33301 0.5 7l75 135
c1.33301 2.66699 2.83301 5 4.5 7s5.16699 3 10.5 3h30c2.66699 0 4.5 -1 5.5 -3s0.833008 -4.33301 -0.5 -7z" />
    <glyph glyph-name="Thorn" unicode="&#xde;" horiz-adv-x="750" 
d="M660 265c0 -52.667 -15.333 -94.167 -46 -124.5s-73.667 -45.5 -129 -45.5h-330v-85c0 -6.66699 -3.33301 -10 -10 -10h-25c-6.66699 -0 -10 3.33301 -10 10v680c0 6.66699 3.33301 10 10 10h25c6.66699 0 10 -3.33301 10 -10v-85h330c55.333 0 98.333 -15.167 129 -45.5
s46 -71.833 46 -124.5v-170zM615 435c0 40 -11 70.833 -33 92.5s-54.333 32.5 -97 32.5h-330v-420h330c42.667 0 75 10.833 97 32.5s33 52.5 33 92.5v170z" />
    <glyph glyph-name="germandbls" unicode="&#xdf;" horiz-adv-x="580" 
d="M370 40c32.667 0 57.499 8.33691 74.499 25.0039s25.5 40 25.5 70v100c0 30 -8.5 53.333 -25.5 70s-41.833 25 -74.5 25h-60c-6.66699 0 -10 3.33301 -10 10v20c0 6.66699 3.33301 10 10 10h10c32.667 0 57.5 8.33301 74.5 25s25.5 40 25.5 70v100
c0 30 -8.5 53.333 -25.5 70s-41.833 25 -74.5 25h-75c-38 0 -66.667 -9.5 -86 -28.5s-29 -46.167 -29 -81.5v-540c0 -6.66699 -3.33301 -10 -10 -10h-20c-6.66699 0 -10 3.33301 -10 10v540c0 48 13.333 85 40 111s65 39 115 39h75c45.333 0 80 -11.833 104 -35.5
s36 -56.834 36 -99.501v-100c0 -21.333 -3.16699 -38.5 -9.5 -51.5s-13.166 -23.167 -20.499 -30.5c-8.66699 -8 -18.667 -14 -30 -18v-5c20 -2.66699 38.333 -9 55 -19c13.333 -8.66699 25.833 -21.334 37.5 -38.001s17.5 -39.334 17.5 -68.001v-100
c0 -42.667 -12 -75.834 -36 -99.501s-58.667 -35.5 -104 -35.5h-50c-6.66699 -0 -10 3.33301 -10 10v20c0 6.66699 3.33301 10 10 10h50z" />
    <glyph glyph-name="agrave" unicode="&#xe0;" horiz-adv-x="550" 
d="M95 370c0 48 13.332 85 39.999 111s65 39 115 39h55c50 0 88.333 -13 115 -39s40 -63 40 -111v-360c0 -6.66699 -3.33301 -10 -10 -10h-20c-6.66699 -0 -10 3.33301 -10 10v55h-5c-5.33301 -14 -13.666 -26.667 -24.999 -38c-9.33301 -9.33301 -22 -17.833 -38 -25.5
s-36.667 -11.5 -62 -11.5h-65c-50 0 -88.333 13 -115 39s-40 63 -40 111s13.333 85 40 111s65 39 115 39h195v80c0 35.333 -9.66699 62.5 -29 81.5s-48 28.5 -86 28.5h-55c-38 0 -66.667 -9.5 -86 -28.5s-29 -46.167 -29 -81.5v-5c0 -6.66699 -3.33301 -10 -10 -10h-20
c-6.66699 0 -10 3.33301 -10 10v5zM109.999 140c0 -35.333 9.66699 -62.5 29 -81.5s48 -28.5 86 -28.5h65c40 0 71.667 11.333 95 34s35 53 35 91v95h-195c-38 0 -66.667 -9.5 -86 -28.5s-29 -46.167 -29 -81.5zM169.999 745c-1.33301 2.66699 -1.5 5 -0.5 7
s2.83301 3 5.5 3h30c5.33301 0 8.83301 -1 10.5 -3s3.16699 -4.33301 4.5 -7l75 -135c1.33301 -2.66699 1.5 -5 0.5 -7s-2.83301 -3 -5.5 -3h-15c-5.33301 0 -8.83301 1 -10.5 3s-3.16699 4.33301 -4.5 7z" />
    <glyph glyph-name="aacute" unicode="&#xe1;" horiz-adv-x="550" 
d="M95 370c0 48 13.332 85 39.999 111s65 39 115 39h55c50 0 88.333 -13 115 -39s40 -63 40 -111v-360c0 -6.66699 -3.33301 -10 -10 -10h-20c-6.66699 -0 -10 3.33301 -10 10v55h-5c-5.33301 -14 -13.666 -26.667 -24.999 -38c-9.33301 -9.33301 -22 -17.833 -38 -25.5
s-36.667 -11.5 -62 -11.5h-65c-50 0 -88.333 13 -115 39s-40 63 -40 111s13.333 85 40 111s65 39 115 39h195v80c0 35.333 -9.66699 62.5 -29 81.5s-48 28.5 -86 28.5h-55c-38 0 -66.667 -9.5 -86 -28.5s-29 -46.167 -29 -81.5v-5c0 -6.66699 -3.33301 -10 -10 -10h-20
c-6.66699 0 -10 3.33301 -10 10v5zM109.999 140c0 -35.333 9.66699 -62.5 29 -81.5s48 -28.5 86 -28.5h65c40 0 71.667 11.333 95 34s35 53 35 91v95h-195c-38 0 -66.667 -9.5 -86 -28.5s-29 -46.167 -29 -81.5zM299.999 610c-1.33301 -2.66699 -2.83301 -5 -4.5 -7
s-5.16699 -3 -10.5 -3h-15c-2.66699 0 -4.5 1 -5.5 3s-0.833008 4.33301 0.5 7l75 135c1.33301 2.66699 2.83301 5 4.5 7s5.16699 3 10.5 3h30c2.66699 0 4.5 -1 5.5 -3s0.833008 -4.33301 -0.5 -7z" />
    <glyph glyph-name="acircumflex" unicode="&#xe2;" horiz-adv-x="550" 
d="M95 370c0 48 13.332 85 39.999 111s65 39 115 39h55c50 0 88.333 -13 115 -39s40 -63 40 -111v-360c0 -6.66699 -3.33301 -10 -10 -10h-20c-6.66699 -0 -10 3.33301 -10 10v55h-5c-5.33301 -14 -13.666 -26.667 -24.999 -38c-9.33301 -9.33301 -22 -17.833 -38 -25.5
s-36.667 -11.5 -62 -11.5h-65c-50 0 -88.333 13 -115 39s-40 63 -40 111s13.333 85 40 111s65 39 115 39h195v80c0 35.333 -9.66699 62.5 -29 81.5s-48 28.5 -86 28.5h-55c-38 0 -66.667 -9.5 -86 -28.5s-29 -46.167 -29 -81.5v-5c0 -6.66699 -3.33301 -10 -10 -10h-20
c-6.66699 0 -10 3.33301 -10 10v5zM109.999 140c0 -35.333 9.66699 -62.5 29 -81.5s48 -28.5 86 -28.5h65c40 0 71.667 11.333 95 34s35 53 35 91v95h-195c-38 0 -66.667 -9.5 -86 -28.5s-29 -46.167 -29 -81.5zM279.999 765c5.33301 0 9.5 -1 12.5 -3s5.5 -4.33301 7.5 -7
l110 -145c2 -2.66699 2.33301 -5 1 -7s-3.33301 -3 -6 -3h-20c-5.33301 0 -9.5 1 -12.5 3s-5.5 4.33301 -7.5 7l-88 120h-4l-88 -120c-2 -2.66699 -4.5 -5 -7.5 -7s-7.16699 -3 -12.5 -3h-20c-2.66699 0 -4.66699 1 -6 3s-1 4.33301 1 7l110 145c2 2.66699 4.5 5 7.5 7
s7.16699 3 12.5 3h10z" />
    <glyph glyph-name="atilde" unicode="&#xe3;" horiz-adv-x="550" 
d="M95 370c0 48 13.332 85 39.999 111s65 39 115 39h55c50 0 88.333 -13 115 -39s40 -63 40 -111v-360c0 -6.66699 -3.33301 -10 -10 -10h-20c-6.66699 -0 -10 3.33301 -10 10v55h-5c-5.33301 -14 -13.666 -26.667 -24.999 -38c-9.33301 -9.33301 -22 -17.833 -38 -25.5
s-36.667 -11.5 -62 -11.5h-65c-50 0 -88.333 13 -115 39s-40 63 -40 111s13.333 85 40 111s65 39 115 39h195v80c0 35.333 -9.66699 62.5 -29 81.5s-48 28.5 -86 28.5h-55c-38 0 -66.667 -9.5 -86 -28.5s-29 -46.167 -29 -81.5v-5c0 -6.66699 -3.33301 -10 -10 -10h-20
c-6.66699 0 -10 3.33301 -10 10v5zM109.999 140c0 -35.333 9.66699 -62.5 29 -81.5s48 -28.5 86 -28.5h65c40 0 71.667 11.333 95 34s35 53 35 91v95h-195c-38 0 -66.667 -9.5 -86 -28.5s-29 -46.167 -29 -81.5zM334.999 590c-16 0 -29.167 5 -39.5 15
s-19.666 20.833 -27.999 32.5l-24 32.5c-7.66699 10 -17.167 15 -28.5 15c-20 0 -30 -10 -30 -30v-55c0 -6.66699 -3.33301 -10 -10 -10h-15c-6.66699 0 -10 3.33301 -10 10v55c0 20 5.83301 35.833 17.5 47.5s27.5 17.5 47.5 17.5c16 0 29.167 -5 39.5 -15
s19.666 -20.833 27.999 -32.5l24 -32.5c7.66699 -10 17.167 -15 28.5 -15c20 0 30 10 30 30v55c0 6.66699 3.33301 10 10 10h15c6.66699 0 10 -3.33301 10 -10v-55c0 -20 -5.83301 -35.833 -17.5 -47.5s-27.5 -17.5 -47.5 -17.5z" />
    <glyph glyph-name="adieresis" unicode="&#xe4;" horiz-adv-x="550" 
d="M95 370c0 48 13.332 85 39.999 111s65 39 115 39h55c50 0 88.333 -13 115 -39s40 -63 40 -111v-360c0 -6.66699 -3.33301 -10 -10 -10h-20c-6.66699 -0 -10 3.33301 -10 10v55h-5c-5.33301 -14 -13.666 -26.667 -24.999 -38c-9.33301 -9.33301 -22 -17.833 -38 -25.5
s-36.667 -11.5 -62 -11.5h-65c-50 0 -88.333 13 -115 39s-40 63 -40 111s13.333 85 40 111s65 39 115 39h195v80c0 35.333 -9.66699 62.5 -29 81.5s-48 28.5 -86 28.5h-55c-38 0 -66.667 -9.5 -86 -28.5s-29 -46.167 -29 -81.5v-5c0 -6.66699 -3.33301 -10 -10 -10h-20
c-6.66699 0 -10 3.33301 -10 10v5zM109.999 140c0 -35.333 9.66699 -62.5 29 -81.5s48 -28.5 86 -28.5h65c40 0 71.667 11.333 95 34s35 53 35 91v95h-195c-38 0 -66.667 -9.5 -86 -28.5s-29 -46.167 -29 -81.5zM209.999 700c6.66699 0 10 -3.33301 10 -10v-30
c0 -6.66699 -3.33301 -10 -10 -10h-30c-6.66699 0 -10 3.33301 -10 10v30c0 6.66699 3.33301 10 10 10h30zM374.999 700c6.66699 0 10 -3.33301 10 -10v-30c0 -6.66699 -3.33301 -10 -10 -10h-30c-6.66699 0 -10 3.33301 -10 10v30c0 6.66699 3.33301 10 10 10h30z" />
    <glyph glyph-name="aring" unicode="&#xe5;" horiz-adv-x="550" 
d="M95 370c0 48 13.332 85 39.999 111s65 39 115 39h55c50 0 88.333 -13 115 -39s40 -63 40 -111v-360c0 -6.66699 -3.33301 -10 -10 -10h-20c-6.66699 -0 -10 3.33301 -10 10v55h-5c-5.33301 -14 -13.666 -26.667 -24.999 -38c-9.33301 -9.33301 -22 -17.833 -38 -25.5
s-36.667 -11.5 -62 -11.5h-65c-50 0 -88.333 13 -115 39s-40 63 -40 111s13.333 85 40 111s65 39 115 39h195v80c0 35.333 -9.66699 62.5 -29 81.5s-48 28.5 -86 28.5h-55c-38 0 -66.667 -9.5 -86 -28.5s-29 -46.167 -29 -81.5v-5c0 -6.66699 -3.33301 -10 -10 -10h-20
c-6.66699 0 -10 3.33301 -10 10v5zM109.999 140c0 -35.333 9.66699 -62.5 29 -81.5s48 -28.5 86 -28.5h65c40 0 71.667 11.333 95 34s35 53 35 91v95h-195c-38 0 -66.667 -9.5 -86 -28.5s-29 -46.167 -29 -81.5zM279.999 755c-20 0 -35.833 -5.66699 -47.5 -17
s-17.5 -25.666 -17.5 -42.999v-10c0 -17.333 5.83301 -31.666 17.5 -42.999s27.5 -17 47.5 -17s35.833 5.66699 47.5 17s17.5 25.666 17.5 42.999v10c0 17.333 -5.83301 31.666 -17.5 42.999s-27.5 17 -47.5 17zM279.999 590c-30 0 -54.167 8.83301 -72.5 26.5
s-27.5 40.5 -27.5 68.5v10c0 28 9.16699 50.833 27.5 68.5s42.5 26.5 72.5 26.5s54.167 -8.83301 72.5 -26.5s27.5 -40.5 27.5 -68.5v-10c0 -28 -9.16699 -50.833 -27.5 -68.5s-42.5 -26.5 -72.5 -26.5z" />
    <glyph glyph-name="ae" unicode="&#xe6;" horiz-adv-x="865" 
d="M110 140c0 -35.333 9.66699 -62.5 29 -81.5s48 -28.5 86 -28.5h70c38 0 66.667 9.5 86 28.5s29 46.167 29 81.5v110h-185c-38 0 -66.667 -9.5 -86 -28.5s-29 -46.167 -29 -81.5zM450 285h295v85c0 35.333 -9.66699 62.5 -29 81.5s-48 28.5 -86 28.5h-65
c-38 0 -66.667 -9.5 -86 -28.5s-29 -46.167 -29 -81.5v-85zM225 -10c-50 0 -88.333 13 -115 39s-40 63 -40 111s13.333 85 40 111s65 39 115 39h185v80c0 35.333 -9.66699 62.5 -29 81.5s-48 28.5 -86 28.5h-35c-38 0 -66.667 -9.5 -86 -28.5s-29 -46.167 -29 -81.5v-5
c0 -6.66699 -3.33301 -10 -10 -10h-20c-6.66699 0 -10 3.33301 -10 10v5c0 48 13.333 85 40 111s65 39 115 39h35c28 0 50.5 -4 67.5 -12s30.5 -16.667 40.5 -26c11.333 -11.333 19.666 -23.666 24.999 -36.999h4c5.33301 13.333 14 25.666 26 36.999
c10 9.33301 23.333 18 40 26s39 12 67 12h65c50 0 88.333 -13 115 -39s40 -63 40 -111v-115c0 -6.66699 -3.33301 -10 -10 -10h-325v-105c0 -35.333 9.66699 -62.5 29 -81.5s48 -28.5 86 -28.5h65c38 0 66.667 9.5 86 28.5s29 46.167 29 81.5c0 6.66699 3.33301 10 10 10h20
c6.66699 0 10 -3.33301 10 -10c0 -48 -13.333 -85 -40 -111s-65 -39 -115 -39h-65c-28 0 -50.333 3.83301 -67 11.5s-30 16.167 -40 25.5c-12 11.333 -20.667 24 -26 38h-4c-5.33301 -14 -13.666 -26.667 -24.999 -38c-10 -9.33301 -23.5 -17.833 -40.5 -25.5
s-39.5 -11.5 -67.5 -11.5h-70z" />
    <glyph glyph-name="ccedilla" unicode="&#xe7;" horiz-adv-x="560" 
d="M255 -105c-6.66699 0 -10 3.33301 -10 10v20c0 7.33301 1.66699 14.333 5 21c1.33301 3.33301 3 6.33301 5 9l20 35h-40c-50 0 -88.333 13 -115 39s-40 63 -40 111v230c0 48 13.333 85 40 111s65 39 115 39h100c50 0 88.333 -13 115 -39s40 -63 40 -111v-20
c0 -6.66699 -3.33301 -10 -10 -10h-20c-6.66699 0 -10 3.33301 -10 10v20c0 35.333 -9.66699 62.5 -29 81.5s-48 28.5 -86 28.5h-100c-38 0 -66.667 -9.5 -86 -28.5s-29 -46.167 -29 -81.5v-230c0 -35.333 9.66699 -62.5 29 -81.5s48 -28.5 86 -28.5h100
c38 0 66.667 9.5 86 28.5s29 46.167 29 81.5v20c0 6.66699 3.33301 10 10 10h20c6.66699 0 10 -3.33301 10 -10v-20c0 -48 -13.333 -85 -40 -111s-65 -39 -115 -39h-30l-30 -60h20c30 0 53.333 -7.83301 70 -23.5s25 -36.167 25 -61.5s-8.33301 -45.833 -25 -61.5
s-40 -23.5 -70 -23.5h-60c-6.66699 0 -10 3.33301 -10 10v15c0 6.66699 3.33301 10 10 10h60c20 0 35 4.5 45 13.5s15 21.167 15 36.5s-5 27.5 -15 36.5s-25 13.5 -45 13.5h-40z" />
    <glyph glyph-name="egrave" unicode="&#xe8;" 
d="M490 245c0 -6.66699 -3.33301 -10 -10 -10h-360v-95c0 -35.333 9.66699 -62.5 29 -81.5s48 -28.5 86 -28.5h100c38 0 66.667 9.5 86 28.5s29 46.167 29 81.5c0 6.66699 3.33301 10 10 10h20c6.66699 0 10 -3.33301 10 -10c0 -48 -13.333 -85 -40 -111s-65 -39 -115 -39
h-100c-50 0 -88.333 13 -115 39s-40 63 -40 111v230c0 48 13.333 85 40 111s65 39 115 39h100c50 0 88.333 -13 115 -39s40 -63 40 -111v-125zM120 275h330v95c0 35.333 -9.66699 62.5 -29 81.5s-48 28.5 -86 28.5h-100c-38 0 -66.667 -9.5 -86 -28.5s-29 -46.167 -29 -81.5
v-95zM175 745c-1.33301 2.66699 -1.5 5 -0.5 7s2.83301 3 5.5 3h30c5.33301 0 8.83301 -1 10.5 -3s3.16699 -4.33301 4.5 -7l75 -135c1.33301 -2.66699 1.5 -5 0.5 -7s-2.83301 -3 -5.5 -3h-15c-5.33301 0 -8.83301 1 -10.5 3s-3.16699 4.33301 -4.5 7z" />
    <glyph glyph-name="eacute" unicode="&#xe9;" 
d="M490 245c0 -6.66699 -3.33301 -10 -10 -10h-360v-95c0 -35.333 9.66699 -62.5 29 -81.5s48 -28.5 86 -28.5h100c38 0 66.667 9.5 86 28.5s29 46.167 29 81.5c0 6.66699 3.33301 10 10 10h20c6.66699 0 10 -3.33301 10 -10c0 -48 -13.333 -85 -40 -111s-65 -39 -115 -39
h-100c-50 0 -88.333 13 -115 39s-40 63 -40 111v230c0 48 13.333 85 40 111s65 39 115 39h100c50 0 88.333 -13 115 -39s40 -63 40 -111v-125zM120 275h330v95c0 35.333 -9.66699 62.5 -29 81.5s-48 28.5 -86 28.5h-100c-38 0 -66.667 -9.5 -86 -28.5s-29 -46.167 -29 -81.5
v-95zM300 610c-1.33301 -2.66699 -2.83301 -5 -4.5 -7s-5.16699 -3 -10.5 -3h-15c-2.66699 0 -4.5 1 -5.5 3s-0.833008 4.33301 0.5 7l75 135c1.33301 2.66699 2.83301 5 4.5 7s5.16699 3 10.5 3h30c2.66699 0 4.5 -1 5.5 -3s0.833008 -4.33301 -0.5 -7z" />
    <glyph glyph-name="ecircumflex" unicode="&#xea;" 
d="M490 245c0 -6.66699 -3.33301 -10 -10 -10h-360v-95c0 -35.333 9.66699 -62.5 29 -81.5s48 -28.5 86 -28.5h100c38 0 66.667 9.5 86 28.5s29 46.167 29 81.5c0 6.66699 3.33301 10 10 10h20c6.66699 0 10 -3.33301 10 -10c0 -48 -13.333 -85 -40 -111s-65 -39 -115 -39
h-100c-50 0 -88.333 13 -115 39s-40 63 -40 111v230c0 48 13.333 85 40 111s65 39 115 39h100c50 0 88.333 -13 115 -39s40 -63 40 -111v-125zM120 275h330v95c0 35.333 -9.66699 62.5 -29 81.5s-48 28.5 -86 28.5h-100c-38 0 -66.667 -9.5 -86 -28.5s-29 -46.167 -29 -81.5
v-95zM290 765c5.33301 0 9.5 -1 12.5 -3s5.5 -4.33301 7.5 -7l110 -145c2 -2.66699 2.33301 -5 1 -7s-3.33301 -3 -6 -3h-20c-5.33301 0 -9.5 1 -12.5 3s-5.5 4.33301 -7.5 7l-88 120h-4l-88 -120c-2 -2.66699 -4.5 -5 -7.5 -7s-7.16699 -3 -12.5 -3h-20
c-2.66699 0 -4.66699 1 -6 3s-1 4.33301 1 7l110 145c2 2.66699 4.5 5 7.5 7s7.16699 3 12.5 3h10z" />
    <glyph glyph-name="edieresis" unicode="&#xeb;" 
d="M490 245c0 -6.66699 -3.33301 -10 -10 -10h-360v-95c0 -35.333 9.66699 -62.5 29 -81.5s48 -28.5 86 -28.5h100c38 0 66.667 9.5 86 28.5s29 46.167 29 81.5c0 6.66699 3.33301 10 10 10h20c6.66699 0 10 -3.33301 10 -10c0 -48 -13.333 -85 -40 -111s-65 -39 -115 -39
h-100c-50 0 -88.333 13 -115 39s-40 63 -40 111v230c0 48 13.333 85 40 111s65 39 115 39h100c50 0 88.333 -13 115 -39s40 -63 40 -111v-125zM120 275h330v95c0 35.333 -9.66699 62.5 -29 81.5s-48 28.5 -86 28.5h-100c-38 0 -66.667 -9.5 -86 -28.5s-29 -46.167 -29 -81.5
v-95zM215 700c6.66699 0 10 -3.33301 10 -10v-30c0 -6.66699 -3.33301 -10 -10 -10h-30c-6.66699 0 -10 3.33301 -10 10v30c0 6.66699 3.33301 10 10 10h30zM380 700c6.66699 0 10 -3.33301 10 -10v-30c0 -6.66699 -3.33301 -10 -10 -10h-30c-6.66699 0 -10 3.33301 -10 10
v30c0 6.66699 3.33301 10 10 10h30z" />
    <glyph glyph-name="igrave" unicode="&#xec;" horiz-adv-x="222" 
d="M132 10c0 -6.66699 -3.33301 -10 -10 -10h-20c-6.66699 -0 -10 3.33301 -10 10v490c0 6.66699 3.33301 10 10 10h20c6.66699 0 10 -3.33301 10 -10v-490zM3 745c-1.33301 2.66699 -1.5 5 -0.5 7s2.83301 3 5.5 3h30c5.33301 0 8.83301 -1 10.5 -3
s3.16699 -4.33301 4.5 -7l75 -135c1.33301 -2.66699 1.5 -5 0.5 -7s-2.83301 -3 -5.5 -3h-15c-5.33301 0 -8.83301 1 -10.5 3s-3.16699 4.33301 -4.5 7z" />
    <glyph glyph-name="iacute" unicode="&#xed;" horiz-adv-x="222" 
d="M130 10c0 -6.66699 -3.33301 -10 -10 -10h-20c-6.66699 -0 -10 3.33301 -10 10v490c0 6.66699 3.33301 10 10 10h20c6.66699 0 10 -3.33301 10 -10v-490zM130 610c-1.33301 -2.66699 -2.83301 -5 -4.5 -7s-5.16699 -3 -10.5 -3h-15c-2.66699 0 -4.5 1 -5.5 3
s-0.833008 4.33301 0.5 7l75 135c1.33301 2.66699 2.83301 5 4.5 7s5.16699 3 10.5 3h30c2.66699 0 4.5 -1 5.5 -3s0.833008 -4.33301 -0.5 -7z" />
    <glyph glyph-name="icircumflex" unicode="&#xee;" horiz-adv-x="224" 
d="M132 10c0 -6.66699 -3.33301 -10 -10 -10h-20c-6.66699 -0 -10 3.33301 -10 10v490c0 6.66699 3.33301 10 10 10h20c6.66699 0 10 -3.33301 10 -10v-490zM118 765c5.33301 0 9.5 -1 12.5 -3s5.5 -4.33301 7.5 -7l110 -145c2 -2.66699 2.33301 -5 1 -7s-3.33301 -3 -6 -3
h-20c-5.33301 0 -9.5 1 -12.5 3s-5.5 4.33301 -7.5 7l-88 120h-4l-88 -120c-2 -2.66699 -4.5 -5 -7.5 -7s-7.16699 -3 -12.5 -3h-20c-2.66699 0 -4.66699 1 -6 3s-1 4.33301 1 7l110 145c2 2.66699 4.5 5 7.5 7s7.16699 3 12.5 3h10z" />
    <glyph glyph-name="idieresis" unicode="&#xef;" horiz-adv-x="215" 
d="M128 10c0 -6.66699 -3.33301 -10 -10 -10h-20c-6.66699 -0 -10 3.33301 -10 10v490c0 6.66699 3.33301 10 10 10h20c6.66699 0 10 -3.33301 10 -10v-490zM41 700c6.66699 0 10 -3.33301 10 -10v-30c0 -6.66699 -3.33301 -10 -10 -10h-30c-6.66699 0 -10 3.33301 -10 10
v30c0 6.66699 3.33301 10 10 10h30zM206 700c6.66699 0 10 -3.33301 10 -10v-30c0 -6.66699 -3.33301 -10 -10 -10h-30c-6.66699 0 -10 3.33301 -10 10v30c0 6.66699 3.33301 10 10 10h30z" />
    <glyph glyph-name="eth" unicode="&#xf0;" horiz-adv-x="555" 
d="M225 365c-38 0 -66.667 -9.5 -86 -28.5s-29 -46.167 -29 -81.5v-115c0 -35.333 9.66699 -62.5 29 -81.5s48 -28.5 86 -28.5h95c38 0 66.667 9.5 86 28.5s29 46.167 29 81.5v225h-210zM240 525l-4 -7.99902c-1.33301 -2.66699 -3.33301 -3.33398 -6 -2.00098l-25 10
c-6.66699 2.66699 -8.33398 7.66699 -5.00098 15l25 65l-95 35c-5.33301 1.33301 -7 4.66602 -5 9.99902l10 25c2 5.33301 5.33301 7 10 5l95 -35l25 75l4 8c1.33301 2.66699 3.33301 3.33398 6 2.00098l25 -10c6.66699 -2.66699 8.33398 -7.66699 5.00098 -15l-25 -70
l80 -30c38 -11.333 66.667 -28.333 86 -51s29 -54 29 -94v-320c0 -48 -13.333 -85 -40 -111s-65 -39 -115 -39h-95c-50 0 -88.333 13 -115 39s-40 63 -40 111v115c0 48 13.333 85 40 111s65 39 115 39h210v55c0 54 -28.333 89 -85 105l-85 30z" />
    <glyph glyph-name="ntilde" unicode="&#xf1;" horiz-adv-x="580" 
d="M335 520c50 0 88.334 -12.999 115.001 -38.999s40 -63 40 -111v-360c0 -6.66699 -3.33301 -10 -10 -10h-20c-6.66699 0 -10 3.33301 -10 10v360c0 35.333 -9.66699 62.5 -29 81.5s-48 28.5 -86 28.5h-75c-40 0 -71.667 -11.333 -95 -34s-35 -53 -35 -91v-345
c0 -6.66699 -3.33301 -10 -10 -10h-20c-6.66699 0 -10 3.33301 -10 10v490c0 6.66699 3.33301 10 10 10h20c6.66699 0 10 -3.33301 10 -10v-55h5c5.33301 13.333 13.666 25.666 24.999 36.999c9.33301 9.33301 22 18 38 26s36.667 12 62 12h75zM345.001 600.001
c-16 0 -29.167 5 -39.5 15s-19.666 20.833 -27.999 32.5l-24 32.5c-7.66699 10 -17.167 15 -28.5 15c-20 0 -30 -10 -30 -30v-55c0 -6.66699 -3.33301 -10 -10 -10h-15c-6.66699 0 -10 3.33301 -10 10v55c0 20 5.83301 35.833 17.5 47.5s27.5 17.5 47.5 17.5
c16 0 29.167 -5 39.5 -15s19.666 -20.833 27.999 -32.5l24 -32.5c7.66699 -10 17.167 -15 28.5 -15c20 0 30 10 30 30v55c0 6.66699 3.33301 10 10 10h15c6.66699 0 10 -3.33301 10 -10v-55c0 -20 -5.83301 -35.833 -17.5 -47.5s-27.5 -17.5 -47.5 -17.5z" />
    <glyph glyph-name="ograve" unicode="&#xf2;" horiz-adv-x="575" 
d="M495 140c0 -48 -13.333 -85 -40 -111s-65 -39 -115 -39h-105c-50 0 -88.333 13 -115 39s-40 63 -40 111v230c0 48 13.333 85 40 111s65 39 115 39h105c50 0 88.333 -13 115 -39s40 -63 40 -111v-230zM455 370c0 35.333 -9.66699 62.5 -29 81.5s-48 28.5 -86 28.5h-105
c-38 0 -66.667 -9.5 -86 -28.5s-29 -46.167 -29 -81.5v-230c0 -35.333 9.66699 -62.5 29 -81.5s48 -28.5 86 -28.5h105c38 0 66.667 9.5 86 28.5s29 46.167 29 81.5v230zM175 745c-1.33301 2.66699 -1.5 5 -0.5 7s2.83301 3 5.5 3h30c5.33301 0 8.83301 -1 10.5 -3
s3.16699 -4.33301 4.5 -7l75 -135c1.33301 -2.66699 1.5 -5 0.5 -7s-2.83301 -3 -5.5 -3h-15c-5.33301 0 -8.83301 1 -10.5 3s-3.16699 4.33301 -4.5 7z" />
    <glyph glyph-name="oacute" unicode="&#xf3;" horiz-adv-x="575" 
d="M495 140c0 -48 -13.333 -85 -40 -111s-65 -39 -115 -39h-105c-50 0 -88.333 13 -115 39s-40 63 -40 111v230c0 48 13.333 85 40 111s65 39 115 39h105c50 0 88.333 -13 115 -39s40 -63 40 -111v-230zM455 370c0 35.333 -9.66699 62.5 -29 81.5s-48 28.5 -86 28.5h-105
c-38 0 -66.667 -9.5 -86 -28.5s-29 -46.167 -29 -81.5v-230c0 -35.333 9.66699 -62.5 29 -81.5s48 -28.5 86 -28.5h105c38 0 66.667 9.5 86 28.5s29 46.167 29 81.5v230zM305 610c-1.33301 -2.66699 -2.83301 -5 -4.5 -7s-5.16699 -3 -10.5 -3h-15c-2.66699 0 -4.5 1 -5.5 3
s-0.833008 4.33301 0.5 7l75 135c1.33301 2.66699 2.83301 5 4.5 7s5.16699 3 10.5 3h30c2.66699 0 4.5 -1 5.5 -3s0.833008 -4.33301 -0.5 -7z" />
    <glyph glyph-name="ocircumflex" unicode="&#xf4;" horiz-adv-x="575" 
d="M495 140c0 -48 -13.333 -85 -40 -111s-65 -39 -115 -39h-105c-50 0 -88.333 13 -115 39s-40 63 -40 111v230c0 48 13.333 85 40 111s65 39 115 39h105c50 0 88.333 -13 115 -39s40 -63 40 -111v-230zM455 370c0 35.333 -9.66699 62.5 -29 81.5s-48 28.5 -86 28.5h-105
c-38 0 -66.667 -9.5 -86 -28.5s-29 -46.167 -29 -81.5v-230c0 -35.333 9.66699 -62.5 29 -81.5s48 -28.5 86 -28.5h105c38 0 66.667 9.5 86 28.5s29 46.167 29 81.5v230zM290 765c5.33301 0 9.5 -1 12.5 -3s5.5 -4.33301 7.5 -7l110 -145c2 -2.66699 2.33301 -5 1 -7
s-3.33301 -3 -6 -3h-20c-5.33301 0 -9.5 1 -12.5 3s-5.5 4.33301 -7.5 7l-88 120h-4l-88 -120c-2 -2.66699 -4.5 -5 -7.5 -7s-7.16699 -3 -12.5 -3h-20c-2.66699 0 -4.66699 1 -6 3s-1 4.33301 1 7l110 145c2 2.66699 4.5 5 7.5 7s7.16699 3 12.5 3h10z" />
    <glyph glyph-name="otilde" unicode="&#xf5;" horiz-adv-x="575" 
d="M495 140c0 -48 -13.333 -85 -40 -111s-65 -39 -115 -39h-105c-50 0 -88.333 13 -115 39s-40 63 -40 111v230c0 48 13.333 85 40 111s65 39 115 39h105c50 0 88.333 -13 115 -39s40 -63 40 -111v-230zM455 370c0 35.333 -9.66699 62.5 -29 81.5s-48 28.5 -86 28.5h-105
c-38 0 -66.667 -9.5 -86 -28.5s-29 -46.167 -29 -81.5v-230c0 -35.333 9.66699 -62.5 29 -81.5s48 -28.5 86 -28.5h105c38 0 66.667 9.5 86 28.5s29 46.167 29 81.5v230zM345 600c-16 0 -29.167 5 -39.5 15s-19.666 20.833 -27.999 32.5l-24 32.5
c-7.66699 10 -17.167 15 -28.5 15c-20 0 -30 -10 -30 -30v-55c0 -6.66699 -3.33301 -10 -10 -10h-15c-6.66699 0 -10 3.33301 -10 10v55c0 20 5.83301 35.833 17.5 47.5s27.5 17.5 47.5 17.5c16 0 29.167 -5 39.5 -15s19.666 -20.833 27.999 -32.5l24 -32.5
c7.66699 -10 17.167 -15 28.5 -15c20 0 30 10 30 30v55c0 6.66699 3.33301 10 10 10h15c6.66699 0 10 -3.33301 10 -10v-55c0 -20 -5.83301 -35.833 -17.5 -47.5s-27.5 -17.5 -47.5 -17.5z" />
    <glyph glyph-name="odieresis" unicode="&#xf6;" horiz-adv-x="575" 
d="M495 140c0 -48 -13.333 -85 -40 -111s-65 -39 -115 -39h-105c-50 0 -88.333 13 -115 39s-40 63 -40 111v230c0 48 13.333 85 40 111s65 39 115 39h105c50 0 88.333 -13 115 -39s40 -63 40 -111v-230zM455 370c0 35.333 -9.66699 62.5 -29 81.5s-48 28.5 -86 28.5h-105
c-38 0 -66.667 -9.5 -86 -28.5s-29 -46.167 -29 -81.5v-230c0 -35.333 9.66699 -62.5 29 -81.5s48 -28.5 86 -28.5h105c38 0 66.667 9.5 86 28.5s29 46.167 29 81.5v230zM215 700c6.66699 0 10 -3.33301 10 -10v-30c0 -6.66699 -3.33301 -10 -10 -10h-30
c-6.66699 0 -10 3.33301 -10 10v30c0 6.66699 3.33301 10 10 10h30zM380 700c6.66699 0 10 -3.33301 10 -10v-30c0 -6.66699 -3.33301 -10 -10 -10h-30c-6.66699 0 -10 3.33301 -10 10v30c0 6.66699 3.33301 10 10 10h30z" />
    <glyph glyph-name="divide" unicode="&#xf7;" horiz-adv-x="430" 
d="M40 280c-6.66699 0 -10 3.33301 -10 10v25c0 6.66699 3.33301 10 10 10h350c6.66699 0 10 -3.33301 10 -10v-25c0 -6.66699 -3.33301 -10 -10 -10h-350zM200 95c-6.66699 0 -10 3.33301 -10 10v30c0 6.66699 3.33301 10 10 10h30c6.66699 0 10 -3.33301 10 -10v-30
c0 -6.66699 -3.33301 -10 -10 -10h-30zM200 460c-6.66699 0 -10 3.33301 -10 10v30c0 6.66699 3.33301 10 10 10h30c6.66699 0 10 -3.33301 10 -10v-30c0 -6.66699 -3.33301 -10 -10 -10h-30z" />
    <glyph glyph-name="oslash" unicode="&#xf8;" horiz-adv-x="575" 
d="M495 140c0 -48 -13.333 -85 -40 -111s-65 -39 -115 -39h-105c-50 0 -88.333 13 -115 39s-40 63 -40 111v230c0 48 13.333 85 40 111s65 39 115 39h105c50 0 88.333 -13 115 -39s40 -63 40 -111v-230zM120 140c0 -12.667 1 -23.5 3 -32.5s4.33301 -16.167 7 -21.5
c2.66699 -6.66699 6 -12 10 -16l270 395l-20 7c-6.66699 2 -14.167 3.83301 -22.5 5.5s-17.5 2.5 -27.5 2.5h-105c-38 0 -66.667 -9.5 -86 -28.5s-29 -46.167 -29 -81.5v-230zM455 370c0 12.667 -1 23.501 -3 32.501s-4.33301 16.167 -7 21.5c-2.66699 6.66699 -6 12 -10 16
l-270 -395c6 -2.66699 12.667 -5.33398 20 -8.00098c6 -2 13.333 -3.66699 22 -5s18 -2 28 -2h105c38 0 66.667 9.5 86 28.5s29 46.167 29 81.5v230z" />
    <glyph glyph-name="ugrave" unicode="&#xf9;" horiz-adv-x="580" 
d="M245 -10c-50 0 -88.334 13 -115.001 39s-40 63 -40 111v360c0 6.66699 3.33301 10 10 10h20c6.66699 0 10 -3.33301 10 -10v-360c0 -35.333 9.66699 -62.5 29 -81.5s48 -28.5 86 -28.5h75c40 0 71.667 11.333 95 34s35 53 35 91v345c0 6.66699 3.33301 10 10 10h20
c6.66699 0 10 -3.33301 10 -10v-490c0 -6.66699 -3.33301 -10 -10 -10h-20c-6.66699 -0 -10 3.33301 -10 10v55h-5c-5.33301 -14 -13.666 -26.667 -24.999 -38c-9.33301 -9.33301 -22 -17.833 -38 -25.5s-36.667 -11.5 -62 -11.5h-75zM189.999 735
c-1.33301 2.66699 -1.5 5 -0.5 7s2.83301 3 5.5 3h30c5.33301 0 8.83301 -1 10.5 -3s3.16699 -4.33301 4.5 -7l75 -135c1.33301 -2.66699 1.5 -5 0.5 -7s-2.83301 -3 -5.5 -3h-15c-5.33301 0 -8.83301 1 -10.5 3s-3.16699 4.33301 -4.5 7z" />
    <glyph glyph-name="uacute" unicode="&#xfa;" horiz-adv-x="580" 
d="M245 -10c-50 0 -88.334 13 -115.001 39s-40 63 -40 111v360c0 6.66699 3.33301 10 10 10h20c6.66699 0 10 -3.33301 10 -10v-360c0 -35.333 9.66699 -62.5 29 -81.5s48 -28.5 86 -28.5h75c40 0 71.667 11.333 95 34s35 53 35 91v345c0 6.66699 3.33301 10 10 10h20
c6.66699 0 10 -3.33301 10 -10v-490c0 -6.66699 -3.33301 -10 -10 -10h-20c-6.66699 -0 -10 3.33301 -10 10v55h-5c-5.33301 -14 -13.666 -26.667 -24.999 -38c-9.33301 -9.33301 -22 -17.833 -38 -25.5s-36.667 -11.5 -62 -11.5h-75zM299.999 600
c-1.33301 -2.66699 -2.83301 -5 -4.5 -7s-5.16699 -3 -10.5 -3h-15c-2.66699 0 -4.5 1 -5.5 3s-0.833008 4.33301 0.5 7l75 135c1.33301 2.66699 2.83301 5 4.5 7s5.16699 3 10.5 3h30c2.66699 0 4.5 -1 5.5 -3s0.833008 -4.33301 -0.5 -7z" />
    <glyph glyph-name="ucircumflex" unicode="&#xfb;" horiz-adv-x="580" 
d="M245 -10c-50 0 -88.334 13 -115.001 39s-40 63 -40 111v360c0 6.66699 3.33301 10 10 10h20c6.66699 0 10 -3.33301 10 -10v-360c0 -35.333 9.66699 -62.5 29 -81.5s48 -28.5 86 -28.5h75c40 0 71.667 11.333 95 34s35 53 35 91v345c0 6.66699 3.33301 10 10 10h20
c6.66699 0 10 -3.33301 10 -10v-490c0 -6.66699 -3.33301 -10 -10 -10h-20c-6.66699 -0 -10 3.33301 -10 10v55h-5c-5.33301 -14 -13.666 -26.667 -24.999 -38c-9.33301 -9.33301 -22 -17.833 -38 -25.5s-36.667 -11.5 -62 -11.5h-75zM294.999 755c5.33301 0 9.5 -1 12.5 -3
s5.5 -4.33301 7.5 -7l110 -145c2 -2.66699 2.33301 -5 1 -7s-3.33301 -3 -6 -3h-20c-5.33301 0 -9.5 1 -12.5 3s-5.5 4.33301 -7.5 7l-88 120h-4l-88 -120c-2 -2.66699 -4.5 -5 -7.5 -7s-7.16699 -3 -12.5 -3h-20c-2.66699 0 -4.66699 1 -6 3s-1 4.33301 1 7l110 145
c2 2.66699 4.5 5 7.5 7s7.16699 3 12.5 3h10z" />
    <glyph glyph-name="udieresis" unicode="&#xfc;" horiz-adv-x="580" 
d="M245 -10c-50 0 -88.334 13 -115.001 39s-40 63 -40 111v360c0 6.66699 3.33301 10 10 10h20c6.66699 0 10 -3.33301 10 -10v-360c0 -35.333 9.66699 -62.5 29 -81.5s48 -28.5 86 -28.5h75c40 0 71.667 11.333 95 34s35 53 35 91v345c0 6.66699 3.33301 10 10 10h20
c6.66699 0 10 -3.33301 10 -10v-490c0 -6.66699 -3.33301 -10 -10 -10h-20c-6.66699 -0 -10 3.33301 -10 10v55h-5c-5.33301 -14 -13.666 -26.667 -24.999 -38c-9.33301 -9.33301 -22 -17.833 -38 -25.5s-36.667 -11.5 -62 -11.5h-75zM224.999 691
c6.66699 0 10 -3.33301 10 -10v-30c0 -6.66699 -3.33301 -10 -10 -10h-30c-6.66699 0 -10 3.33301 -10 10v30c0 6.66699 3.33301 10 10 10h30zM389.999 691c6.66699 0 10 -3.33301 10 -10v-30c0 -6.66699 -3.33301 -10 -10 -10h-30c-6.66699 0 -10 3.33301 -10 10v30
c0 6.66699 3.33301 10 10 10h30z" />
    <glyph glyph-name="yacute" unicode="&#xfd;" horiz-adv-x="482" 
d="M416 500c1.33301 2.66699 2.83594 5.00098 4.50293 7.00098s5.16699 3 10.5 3h20c9.33301 0 12.666 -3.33301 9.99902 -10l-195 -500c-14.667 -37.333 -28.5 -68.333 -41.5 -93s-26.333 -44.167 -40 -58.5s-28 -24.333 -43 -30s-31.833 -8.5 -50.5 -8.5h-20
c-6.66699 0 -10 3.33301 -10 10v20c0 6.66699 3.33301 10 10 10h20c12.667 0 24.334 2.5 35.001 7.5s21.167 13.167 31.5 24.5s20.666 26.666 30.999 45.999s21.166 43.333 32.499 72l-200 500c-2.66699 6.66699 0.666016 10 9.99902 10h20c5.33301 0 8.83301 -1 10.5 -3
s3.16699 -4.33301 4.5 -7l175 -440h5zM255.003 610.001c-1.33301 -2.66699 -2.83301 -5 -4.5 -7s-5.16699 -3 -10.5 -3h-15c-2.66699 0 -4.5 1 -5.5 3s-0.833008 4.33301 0.5 7l75 135c1.33301 2.66699 2.83301 5 4.5 7s5.16699 3 10.5 3h30c2.66699 0 4.5 -1 5.5 -3
s0.833008 -4.33301 -0.5 -7z" />
    <glyph glyph-name="thorn" unicode="&#xfe;" 
d="M130 510h205c50 0 88.333 -13 115 -39s40 -63 40 -111v-210c0 -48 -13.333 -85 -40 -111s-65 -39 -115 -39h-205v-180c0 -6.66699 -3.33301 -10 -10 -10h-20c-6.66699 0 -10 3.33301 -10 10v870c0 6.66699 3.33301 10 10 10h20c6.66699 0 10 -3.33301 10 -10v-180z
M130 40h205c38 0 66.667 9.5 86 28.5s29 46.167 29 81.5v210c0 35.333 -9.66699 62.5 -29 81.5s-48 28.5 -86 28.5h-205v-430z" />
    <glyph glyph-name="ydieresis" unicode="&#xff;" horiz-adv-x="482" 
d="M416 500c1.33301 2.66699 2.83594 5.00098 4.50293 7.00098s5.16699 3 10.5 3h20c9.33301 0 12.666 -3.33301 9.99902 -10l-195 -500c-14.667 -37.333 -28.5 -68.333 -41.5 -93s-26.333 -44.167 -40 -58.5s-28 -24.333 -43 -30s-31.833 -8.5 -50.5 -8.5h-20
c-6.66699 0 -10 3.33301 -10 10v20c0 6.66699 3.33301 10 10 10h20c12.667 0 24.334 2.5 35.001 7.5s21.167 13.167 31.5 24.5s20.666 26.666 30.999 45.999s21.166 43.333 32.499 72l-200 500c-2.66699 6.66699 0.666016 10 9.99902 10h20c5.33301 0 8.83301 -1 10.5 -3
s3.16699 -4.33301 4.5 -7l175 -440h5zM175.003 710.001c6.66699 0 10 -3.33301 10 -10v-30c0 -6.66699 -3.33301 -10 -10 -10h-30c-6.66699 0 -10 3.33301 -10 10v30c0 6.66699 3.33301 10 10 10h30zM340.003 710.001c6.66699 0 10 -3.33301 10 -10v-30
c0 -6.66699 -3.33301 -10 -10 -10h-30c-6.66699 0 -10 3.33301 -10 10v30c0 6.66699 3.33301 10 10 10h30z" />
    <glyph glyph-name="Amacron" unicode="&#x100;" horiz-adv-x="647" 
d="M146 205l-75.002 -195c-1.33301 -2.66699 -2.83301 -5 -4.5 -7s-5.16699 -3 -10.5 -3h-25c-9.33301 -0 -12.666 3.33301 -9.99902 10l275 680c1.33301 3.33301 2.83301 5.83301 4.5 7.5s5.16699 2.5 10.5 2.5h25c5.33301 0 8.83301 -0.833008 10.5 -2.5
s3.16699 -4.16699 4.5 -7.5l275 -680c2.66699 -6.66699 -0.666016 -10 -9.99902 -10h-25c-5.33301 0 -8.83301 1 -10.5 3s-3.16699 4.33301 -4.5 7l-75 195h-355zM480.998 250l-155 395h-5l-155 -395h315zM204.998 830c-6.66699 0 -10 3.33301 -10 10v20
c0 6.66699 3.33301 10 10 10h240c6.66699 0 10 -3.33301 10 -10v-20c0 -6.66699 -3.33301 -10 -10 -10h-240z" />
    <glyph glyph-name="amacron" unicode="&#x101;" horiz-adv-x="550" 
d="M95 370c0 48 13.332 85 39.999 111s65 39 115 39h55c50 0 88.333 -13 115 -39s40 -63 40 -111v-360c0 -6.66699 -3.33301 -10 -10 -10h-20c-6.66699 -0 -10 3.33301 -10 10v55h-5c-5.33301 -14 -13.666 -26.667 -24.999 -38c-9.33301 -9.33301 -22 -17.833 -38 -25.5
s-36.667 -11.5 -62 -11.5h-65c-50 0 -88.333 13 -115 39s-40 63 -40 111s13.333 85 40 111s65 39 115 39h195v80c0 35.333 -9.66699 62.5 -29 81.5s-48 28.5 -86 28.5h-55c-38 0 -66.667 -9.5 -86 -28.5s-29 -46.167 -29 -81.5v-5c0 -6.66699 -3.33301 -10 -10 -10h-20
c-6.66699 0 -10 3.33301 -10 10v5zM109.999 140c0 -35.333 9.66699 -62.5 29 -81.5s48 -28.5 86 -28.5h65c40 0 71.667 11.333 95 34s35 53 35 91v95h-195c-38 0 -66.667 -9.5 -86 -28.5s-29 -46.167 -29 -81.5zM159.999 641c-6.66699 0 -10 3.33301 -10 10v20
c0 6.66699 3.33301 10 10 10h240c6.66699 0 10 -3.33301 10 -10v-20c0 -6.66699 -3.33301 -10 -10 -10h-240z" />
    <glyph glyph-name="Abreve" unicode="&#x102;" horiz-adv-x="647" 
d="M146 205l-75.002 -195c-1.33301 -2.66699 -2.83301 -5 -4.5 -7s-5.16699 -3 -10.5 -3h-25c-9.33301 -0 -12.666 3.33301 -9.99902 10l275 680c1.33301 3.33301 2.83301 5.83301 4.5 7.5s5.16699 2.5 10.5 2.5h25c5.33301 0 8.83301 -0.833008 10.5 -2.5
s3.16699 -4.16699 4.5 -7.5l275 -680c2.66699 -6.66699 -0.666016 -10 -9.99902 -10h-25c-5.33301 0 -8.83301 1 -10.5 3s-3.16699 4.33301 -4.5 7l-75 195h-355zM480.998 250l-155 395h-5l-155 -395h315zM344.998 825c25.333 0 43.333 5.33301 54 16s16 28.667 16 54v10
c0 6.66699 3.33301 10 10 10h20c6.66699 0 10 -3.33301 10 -10v-10c0 -73.333 -36.667 -110 -110 -110h-45c-73.333 0 -110 36.667 -110 110v10c0 6.66699 3.33301 10 10 10h20c6.66699 0 10 -3.33301 10 -10v-10c0 -25.333 5.33301 -43.333 16 -54s28.667 -16 54 -16h45z
" />
    <glyph glyph-name="abreve" unicode="&#x103;" horiz-adv-x="550" 
d="M95 370c0 48 13.332 85 39.999 111s65 39 115 39h55c50 0 88.333 -13 115 -39s40 -63 40 -111v-360c0 -6.66699 -3.33301 -10 -10 -10h-20c-6.66699 -0 -10 3.33301 -10 10v55h-5c-5.33301 -14 -13.666 -26.667 -24.999 -38c-9.33301 -9.33301 -22 -17.833 -38 -25.5
s-36.667 -11.5 -62 -11.5h-65c-50 0 -88.333 13 -115 39s-40 63 -40 111s13.333 85 40 111s65 39 115 39h195v80c0 35.333 -9.66699 62.5 -29 81.5s-48 28.5 -86 28.5h-55c-38 0 -66.667 -9.5 -86 -28.5s-29 -46.167 -29 -81.5v-5c0 -6.66699 -3.33301 -10 -10 -10h-20
c-6.66699 0 -10 3.33301 -10 10v5zM109.999 140c0 -35.333 9.66699 -62.5 29 -81.5s48 -28.5 86 -28.5h65c40 0 71.667 11.333 95 34s35 53 35 91v95h-195c-38 0 -66.667 -9.5 -86 -28.5s-29 -46.167 -29 -81.5zM299.999 640c25.333 0 43.333 5.33301 54 16s16 28.667 16 54
v10c0 6.66699 3.33301 10 10 10h20c6.66699 0 10 -3.33301 10 -10v-10c0 -73.333 -36.667 -110 -110 -110h-45c-73.333 0 -110 36.667 -110 110v10c0 6.66699 3.33301 10 10 10h20c6.66699 0 10 -3.33301 10 -10v-10c0 -25.333 5.33301 -43.333 16 -54s28.667 -16 54 -16h45
z" />
    <glyph glyph-name="Aogonek" unicode="&#x104;" horiz-adv-x="647" 
d="M146 205l-74.999 -195.001c-1.33301 -2.66699 -2.83301 -5 -4.5 -7s-5.16699 -3 -10.5 -3h-25c-9.33301 0 -12.666 3.33301 -9.99902 10l275 680c1.33301 3.33301 2.83301 5.83301 4.5 7.5s5.16699 2.5 10.5 2.5h25c5.33301 0 8.83301 -0.833008 10.5 -2.5
s3.16699 -4.16699 4.5 -7.5l275 -680c1.33301 -2.66699 0.666016 -5 -2.00098 -7s-5.33398 -3 -8.00098 -3c-20.667 -8.66699 -39 -19 -55 -31c-14 -10.667 -26.667 -23.667 -38 -39s-17 -33.666 -17 -54.999c0 -15.333 5 -27.5 15 -36.5s25 -13.5 45 -13.5h45
c6.66699 0 10 -3.33301 10 -10v-15c0 -6.66699 -3.33301 -10 -10 -10h-45c-30 0 -53.333 7.83301 -70 23.5s-25 36.167 -25 61.5c0 21.333 5.66699 40 17 56s24 29.667 38 41c16 12.667 34.333 23.667 55 33l-5 5l-75 195h-355zM481.001 249.999l-155 395h-5l-155 -395h315z
" />
    <glyph glyph-name="aogonek" unicode="&#x105;" horiz-adv-x="550" 
d="M95 370c0 48 13.333 85 40 111s65 39 115 39h55c50 0 88.333 -13 115 -39s40 -63 40 -111v-360c0 -6.66699 -3.33301 -10 -10 -10c-20.667 -8.66699 -39 -19 -55 -31c-14 -10.667 -26.667 -23.667 -38 -39s-17 -33.666 -17 -54.999c0 -15.333 5 -27.5 15 -36.5
s25 -13.5 45 -13.5h45c6.66699 0 10 -3.33301 10 -10v-15c0 -6.66699 -3.33301 -10 -10 -10h-45c-30 0 -53.333 7.83301 -70 23.5s-25 36.167 -25 61.5c0 22.667 6.16699 42.167 18.5 58.5s26.166 29.833 41.499 40.5c17.333 12 37.333 22.333 60 31
c-1.33301 0 -2.33301 0.333008 -3 1c-1.33301 1.33301 -2 2.66602 -2 3.99902v55h-5c-5.33301 -14 -13.666 -26.667 -24.999 -38c-9.33301 -9.33301 -22 -17.833 -38 -25.5s-36.667 -11.5 -62 -11.5h-65c-50 0 -88.333 13 -115 39s-40 63 -40 111s13.333 85 40 111
s65 39 115 39h195v80c0 35.333 -9.66699 62.5 -29 81.5s-48 28.5 -86 28.5h-55c-38 0 -66.667 -9.5 -86 -28.5s-29 -46.167 -29 -81.5v-5c0 -6.66699 -3.33301 -10 -10 -10h-20c-6.66699 0 -10 3.33301 -10 10v5zM110 140c0 -35.333 9.66699 -62.5 29 -81.5
s48 -28.5 86 -28.5h65c40 0 71.667 11.333 95 34s35 53 35 91v95h-195c-38 0 -66.667 -9.5 -86 -28.5s-29 -46.167 -29 -81.5z" />
    <glyph glyph-name="Cacute" unicode="&#x106;" horiz-adv-x="755" 
d="M665 160c0 -52.667 -15.333 -94.167 -46 -124.5s-73.667 -45.5 -129 -45.5h-215c-55.333 0 -98.333 15.167 -129 45.5s-46 71.833 -46 124.5v380c0 52.667 15.333 94.167 46 124.5s73.667 45.5 129 45.5h215c55.333 0 98.333 -15.167 129 -45.5s46 -71.833 46 -124.5v-35
c0 -6.66699 -3.33301 -10 -10 -10h-25c-6.66699 0 -10 3.33301 -10 10v35c0 40 -11 70.833 -33 92.5s-54.333 32.5 -97 32.5h-215c-42.667 0 -75 -10.833 -97 -32.5s-33 -52.5 -33 -92.5v-380c0 -40 11 -70.833 33 -92.5s54.333 -32.5 97 -32.5h215
c42.667 0 75 10.833 97 32.5s33 52.5 33 92.5v35c0 6.66699 3.33301 10 10 10h25c6.66699 0 10 -3.33301 10 -10v-35zM390 800c-1.33301 -2.66699 -2.83301 -5 -4.5 -7s-5.16699 -3 -10.5 -3h-15c-2.66699 0 -4.5 1 -5.5 3s-0.833008 4.33301 0.5 7l75 135
c1.33301 2.66699 2.83301 5 4.5 7s5.16699 3 10.5 3h30c2.66699 0 4.5 -1 5.5 -3s0.833008 -4.33301 -0.5 -7z" />
    <glyph glyph-name="cacute" unicode="&#x107;" horiz-adv-x="560" 
d="M490 350c0 -6.66699 -3.33301 -10 -10 -10h-20c-6.66699 0 -10 3.33301 -10 10v20c0 35.333 -9.66699 62.5 -29 81.5s-48 28.5 -86 28.5h-100c-38 0 -66.667 -9.5 -86 -28.5s-29 -46.167 -29 -81.5v-230c0 -35.333 9.66699 -62.5 29 -81.5s48 -28.5 86 -28.5h100
c38 0 66.667 9.5 86 28.5s29 46.167 29 81.5v20c0 6.66699 3.33301 10 10 10h20c6.66699 0 10 -3.33301 10 -10v-20c0 -48 -13.333 -85 -40 -111s-65 -39 -115 -39h-100c-50 0 -88.333 13 -115 39s-40 63 -40 111v230c0 48 13.333 85 40 111s65 39 115 39h100
c50 0 88.333 -13 115 -39s40 -63 40 -111v-20zM295 610c-1.33301 -2.66699 -2.83301 -5 -4.5 -7s-5.16699 -3 -10.5 -3h-15c-2.66699 0 -4.5 1 -5.5 3s-0.833008 4.33301 0.5 7l75 135c1.33301 2.66699 2.83301 5 4.5 7s5.16699 3 10.5 3h30c2.66699 0 4.5 -1 5.5 -3
s0.833008 -4.33301 -0.5 -7z" />
    <glyph glyph-name="Ccircumflex" unicode="&#x108;" horiz-adv-x="755" 
d="M665 160c0 -52.667 -15.333 -94.167 -46 -124.5s-73.667 -45.5 -129 -45.5h-215c-55.333 0 -98.333 15.167 -129 45.5s-46 71.833 -46 124.5v380c0 52.667 15.333 94.167 46 124.5s73.667 45.5 129 45.5h215c55.333 0 98.333 -15.167 129 -45.5s46 -71.833 46 -124.5v-35
c0 -6.66699 -3.33301 -10 -10 -10h-25c-6.66699 0 -10 3.33301 -10 10v35c0 40 -11 70.833 -33 92.5s-54.333 32.5 -97 32.5h-215c-42.667 0 -75 -10.833 -97 -32.5s-33 -52.5 -33 -92.5v-380c0 -40 11 -70.833 33 -92.5s54.333 -32.5 97 -32.5h215
c42.667 0 75 10.833 97 32.5s33 52.5 33 92.5v35c0 6.66699 3.33301 10 10 10h25c6.66699 0 10 -3.33301 10 -10v-35zM380 955c5.33301 0 9.5 -1 12.5 -3s5.5 -4.33301 7.5 -7l110 -145c2 -2.66699 2.33301 -5 1 -7s-3.33301 -3 -6 -3h-20c-5.33301 0 -9.5 1 -12.5 3
s-5.5 4.33301 -7.5 7l-88 120h-4l-88 -120c-2 -2.66699 -4.5 -5 -7.5 -7s-7.16699 -3 -12.5 -3h-20c-2.66699 0 -4.66699 1 -6 3s-1 4.33301 1 7l110 145c2 2.66699 4.5 5 7.5 7s7.16699 3 12.5 3h10z" />
    <glyph glyph-name="ccircumflex" unicode="&#x109;" horiz-adv-x="560" 
d="M490 350c0 -6.66699 -3.33301 -10 -10 -10h-20c-6.66699 0 -10 3.33301 -10 10v20c0 35.333 -9.66699 62.5 -29 81.5s-48 28.5 -86 28.5h-100c-38 0 -66.667 -9.5 -86 -28.5s-29 -46.167 -29 -81.5v-230c0 -35.333 9.66699 -62.5 29 -81.5s48 -28.5 86 -28.5h100
c38 0 66.667 9.5 86 28.5s29 46.167 29 81.5v20c0 6.66699 3.33301 10 10 10h20c6.66699 0 10 -3.33301 10 -10v-20c0 -48 -13.333 -85 -40 -111s-65 -39 -115 -39h-100c-50 0 -88.333 13 -115 39s-40 63 -40 111v230c0 48 13.333 85 40 111s65 39 115 39h100
c50 0 88.333 -13 115 -39s40 -63 40 -111v-20zM285 765c5.33301 0 9.5 -1 12.5 -3s5.5 -4.33301 7.5 -7l110 -145c2 -2.66699 2.33301 -5 1 -7s-3.33301 -3 -6 -3h-20c-5.33301 0 -9.5 1 -12.5 3s-5.5 4.33301 -7.5 7l-88 120h-4l-88 -120c-2 -2.66699 -4.5 -5 -7.5 -7
s-7.16699 -3 -12.5 -3h-20c-2.66699 0 -4.66699 1 -6 3s-1 4.33301 1 7l110 145c2 2.66699 4.5 5 7.5 7s7.16699 3 12.5 3h10z" />
    <glyph glyph-name="Ccaron" unicode="&#x10c;" horiz-adv-x="755" 
d="M665 160c0 -52.667 -15.333 -94.167 -46 -124.5s-73.667 -45.5 -129 -45.5h-215c-55.333 0 -98.333 15.167 -129 45.5s-46 71.833 -46 124.5v380c0 52.667 15.333 94.167 46 124.5s73.667 45.5 129 45.5h215c55.333 0 98.333 -15.167 129 -45.5s46 -71.833 46 -124.5v-35
c0 -6.66699 -3.33301 -10 -10 -10h-25c-6.66699 0 -10 3.33301 -10 10v35c0 40 -11 70.833 -33 92.5s-54.333 32.5 -97 32.5h-215c-42.667 0 -75 -10.833 -97 -32.5s-33 -52.5 -33 -92.5v-380c0 -40 11 -70.833 33 -92.5s54.333 -32.5 97 -32.5h215
c42.667 0 75 10.833 97 32.5s33 52.5 33 92.5v35c0 6.66699 3.33301 10 10 10h25c6.66699 0 10 -3.33301 10 -10v-35zM370 785c-5.33301 0 -9.5 1 -12.5 3s-5.5 4.33301 -7.5 7l-110 145c-2 2.66699 -2.33301 5 -1 7s3.33301 3 6 3h20c5.33301 0 9.5 -1 12.5 -3
s5.5 -4.33301 7.5 -7l88 -120h4l88 120c2 2.66699 4.5 5 7.5 7s7.16699 3 12.5 3h20c2.66699 0 4.66699 -1 6 -3s1 -4.33301 -1 -7l-110 -145c-2 -2.66699 -4.5 -5 -7.5 -7s-7.16699 -3 -12.5 -3h-10z" />
    <glyph glyph-name="ccaron" unicode="&#x10d;" horiz-adv-x="560" 
d="M490 350c0 -6.66699 -3.33301 -10 -10 -10h-20c-6.66699 0 -10 3.33301 -10 10v20c0 35.333 -9.66699 62.5 -29 81.5s-48 28.5 -86 28.5h-100c-38 0 -66.667 -9.5 -86 -28.5s-29 -46.167 -29 -81.5v-230c0 -35.333 9.66699 -62.5 29 -81.5s48 -28.5 86 -28.5h100
c38 0 66.667 9.5 86 28.5s29 46.167 29 81.5v20c0 6.66699 3.33301 10 10 10h20c6.66699 0 10 -3.33301 10 -10v-20c0 -48 -13.333 -85 -40 -111s-65 -39 -115 -39h-100c-50 0 -88.333 13 -115 39s-40 63 -40 111v230c0 48 13.333 85 40 111s65 39 115 39h100
c50 0 88.333 -13 115 -39s40 -63 40 -111v-20zM275 600c-5.33301 0 -9.5 1 -12.5 3s-5.5 4.33301 -7.5 7l-110 145c-2 2.66699 -2.33301 5 -1 7s3.33301 3 6 3h20c5.33301 0 9.5 -1 12.5 -3s5.5 -4.33301 7.5 -7l88 -120h4l88 120c2 2.66699 4.5 5 7.5 7s7.16699 3 12.5 3
h20c2.66699 0 4.66699 -1 6 -3s1 -4.33301 -1 -7l-110 -145c-2 -2.66699 -4.5 -5 -7.5 -7s-7.16699 -3 -12.5 -3h-10z" />
    <glyph glyph-name="Dcaron" unicode="&#x10e;" horiz-adv-x="760" 
d="M485 700c55.333 0 98.333 -15.167 129 -45.5s46 -71.833 46 -124.5v-360c0 -52.667 -15.333 -94.167 -46 -124.5s-73.667 -45.5 -129 -45.5h-365c-6.66699 -0 -10 3.33301 -10 10v680c0 6.66699 3.33301 10 10 10h365zM155 45h330c42.667 0 75 10.833 97 32.5
s33 52.5 33 92.5v360c0 40 -11 70.833 -33 92.5s-54.333 32.5 -97 32.5h-330v-610zM355 790c-5.33301 0 -9.5 1 -12.5 3s-5.5 4.33301 -7.5 7l-110 145c-2 2.66699 -2.33301 5 -1 7s3.33301 3 6 3h20c5.33301 0 9.5 -1 12.5 -3s5.5 -4.33301 7.5 -7l88 -120h4l88 120
c2 2.66699 4.5 5 7.5 7s7.16699 3 12.5 3h20c2.66699 0 4.66699 -1 6 -3s1 -4.33301 -1 -7l-110 -145c-2 -2.66699 -4.5 -5 -7.5 -7s-7.16699 -3 -12.5 -3h-10z" />
    <glyph glyph-name="dcaron" unicode="&#x10f;" horiz-adv-x="600" 
d="M440 510l-0.000976562 180c0 6.66699 3.33301 10 10 10h20c6.66699 0 10 -3.33301 10 -10v-680c0 -6.66699 -3.33301 -10 -10 -10h-20c-6.66699 -0 -10 3.33301 -10 10v55h-5c-5.33301 -14 -13.666 -26.667 -24.999 -38c-9.33301 -9.33301 -22 -17.833 -38 -25.5
s-36.667 -11.5 -62 -11.5h-75c-50 0 -88.333 13 -115 39s-40 63 -40 111v220c0 48 13.333 85 40 111s65 39 115 39h205zM439.999 470h-205c-38 0 -66.667 -9.5 -86 -28.5s-29 -46.167 -29 -81.5v-220c0 -35.333 9.66699 -62.5 29 -81.5s48 -28.5 86 -28.5h75
c40 0 71.667 11.333 95 34s35 53 35 91v315zM639.999 670c0 -2.66699 -0.332031 -5.16699 -0.999023 -7.5s-1.33398 -4.5 -2.00098 -6.5c-0.666992 -2.66699 -1.33398 -4.66699 -2.00098 -6l-45 -90c-1.33301 -2.66699 -2.83301 -5 -4.5 -7s-5.16699 -3 -10.5 -3
s-8.66602 1 -9.99902 3s-1.33301 4.33301 0 7l45 90h-10c-6.66699 0 -10 3.33301 -10 10v30c0 6.66699 3.33301 10 10 10h30c6.66699 0 10 -3.33301 10 -10v-20z" />
    <glyph glyph-name="Dcroat" unicode="&#x110;" horiz-adv-x="765" 
d="M500 700c55.333 0 98.333 -15.167 129 -45.5s46 -71.833 46 -124.5v-360c0 -52.667 -15.333 -94.167 -46 -124.5s-73.667 -45.5 -129 -45.5h-365c-6.66699 -0 -10 3.33301 -10 10v315h-85c-6.66699 0 -10 3.33301 -10 10v25c0 6.66699 3.33301 10 10 10h85v320
c0 6.66699 3.33301 10 10 10h365zM170 325v-280h330c42.667 0 75 10.833 97 32.5s33 52.5 33 92.5v360c0 40 -11 70.833 -33 92.5s-54.333 32.5 -97 32.5h-330v-285h180c6.66699 0 10 -3.33301 10 -10v-25c0 -6.66699 -3.33301 -10 -10 -10h-180z" />
    <glyph glyph-name="dcroat" unicode="&#x111;" horiz-adv-x="575" 
d="M285 570c0 6.66699 3.33203 10 9.99902 10h135v110c0 6.66699 3.33301 10 10 10h20c6.66699 0 10 -3.33301 10 -10v-110h85c6.66699 0 10 -3.33301 10 -10v-20c0 -6.66699 -3.33301 -10 -10 -10h-85v-530c0 -6.66699 -3.33301 -10 -10 -10h-20
c-6.66699 -0 -10 3.33301 -10 10v55h-5c-5.33301 -14 -13.666 -26.667 -24.999 -38c-9.33301 -9.33301 -22 -17.833 -38 -25.5s-36.667 -11.5 -62 -11.5h-75c-50 0 -88.333 13 -115 39s-40 63 -40 111v140c0 48 13.333 85 40 111s65 39 115 39h205v110h-135
c-6.66699 0 -10 3.33301 -10 10v20zM429.999 390h-205c-38 0 -66.667 -9.5 -86 -28.5s-29 -46.167 -29 -81.5v-140c0 -35.333 9.66699 -62.5 29 -81.5s48 -28.5 86 -28.5h75c40 0 71.667 11.333 95 34s35 53 35 91v235z" />
    <glyph glyph-name="Emacron" unicode="&#x112;" horiz-adv-x="660" 
d="M155 380h355c6.66699 0 10 -3.33301 10 -10v-25c0 -6.66699 -3.33301 -10 -10 -10h-355v-290h455c6.66699 0 10 -3.33301 10 -10v-25c0 -6.66699 -3.33301 -10 -10 -10h-490c-6.66699 -0 -10 3.33301 -10 10v680c0 6.66699 3.33301 10 10 10h480
c6.66699 0 10 -3.33301 10 -10v-25c0 -6.66699 -3.33301 -10 -10 -10h-445v-275zM230 830c-6.66699 0 -10 3.33301 -10 10v20c0 6.66699 3.33301 10 10 10h240c6.66699 0 10 -3.33301 10 -10v-20c0 -6.66699 -3.33301 -10 -10 -10h-240z" />
    <glyph glyph-name="emacron" unicode="&#x113;" 
d="M490 245c0 -6.66699 -3.33301 -10 -10 -10h-360v-95c0 -35.333 9.66699 -62.5 29 -81.5s48 -28.5 86 -28.5h100c38 0 66.667 9.5 86 28.5s29 46.167 29 81.5c0 6.66699 3.33301 10 10 10h20c6.66699 0 10 -3.33301 10 -10c0 -48 -13.333 -85 -40 -111s-65 -39 -115 -39
h-100c-50 0 -88.333 13 -115 39s-40 63 -40 111v230c0 48 13.333 85 40 111s65 39 115 39h100c50 0 88.333 -13 115 -39s40 -63 40 -111v-125zM120 275h330v95c0 35.333 -9.66699 62.5 -29 81.5s-48 28.5 -86 28.5h-100c-38 0 -66.667 -9.5 -86 -28.5s-29 -46.167 -29 -81.5
v-95zM165 651c-6.66699 0 -10 3.33301 -10 10v20c0 6.66699 3.33301 10 10 10h240c6.66699 0 10 -3.33301 10 -10v-20c0 -6.66699 -3.33301 -10 -10 -10h-240z" />
    <glyph glyph-name="Edotaccent" unicode="&#x116;" horiz-adv-x="660" 
d="M155 380h355c6.66699 0 10 -3.33301 10 -10v-25c0 -6.66699 -3.33301 -10 -10 -10h-355v-290h455c6.66699 0 10 -3.33301 10 -10v-25c0 -6.66699 -3.33301 -10 -10 -10h-490c-6.66699 -0 -10 3.33301 -10 10v680c0 6.66699 3.33301 10 10 10h480
c6.66699 0 10 -3.33301 10 -10v-25c0 -6.66699 -3.33301 -10 -10 -10h-445v-275zM375 890c6.66699 0 10 -3.33301 10 -10v-30c0 -6.66699 -3.33301 -10 -10 -10h-30c-6.66699 0 -10 3.33301 -10 10v30c0 6.66699 3.33301 10 10 10h30z" />
    <glyph glyph-name="edotaccent" unicode="&#x117;" 
d="M490 245c0 -6.66699 -3.33301 -10 -10 -10h-360v-95c0 -35.333 9.66699 -62.5 29 -81.5s48 -28.5 86 -28.5h100c38 0 66.667 9.5 86 28.5s29 46.167 29 81.5c0 6.66699 3.33301 10 10 10h20c6.66699 0 10 -3.33301 10 -10c0 -48 -13.333 -85 -40 -111s-65 -39 -115 -39
h-100c-50 0 -88.333 13 -115 39s-40 63 -40 111v230c0 48 13.333 85 40 111s65 39 115 39h100c50 0 88.333 -13 115 -39s40 -63 40 -111v-125zM120 275h330v95c0 35.333 -9.66699 62.5 -29 81.5s-48 28.5 -86 28.5h-100c-38 0 -66.667 -9.5 -86 -28.5s-29 -46.167 -29 -81.5
v-95zM300 700c6.66699 0 10 -3.33301 10 -10v-30c0 -6.66699 -3.33301 -10 -10 -10h-30c-6.66699 0 -10 3.33301 -10 10v30c0 6.66699 3.33301 10 10 10h30z" />
    <glyph glyph-name="Eogonek" unicode="&#x118;" horiz-adv-x="660" 
d="M120 0c-6.66699 0 -10 3.33203 -10 9.99902v680c0 6.66699 3.33301 10 10 10h480c6.66699 0 10 -3.33301 10 -10v-25c0 -6.66699 -3.33301 -10 -10 -10h-445v-275h355c6.66699 0 10 -3.33301 10 -10v-25c0 -6.66699 -3.33301 -10 -10 -10h-355v-290h455
c6.66699 0 10 -3.33301 10 -10v-25c0 -6.66699 -3.33301 -10 -10 -10h-195c-21.333 -10 -40.666 -21.333 -57.999 -34c-14.667 -11.333 -27.834 -24.666 -39.501 -39.999s-17.5 -32.333 -17.5 -51c0 -15.333 5 -27.5 15 -36.5s25 -13.5 45 -13.5h45
c6.66699 0 10 -3.33301 10 -10v-15c0 -6.66699 -3.33301 -10 -10 -10h-45c-30 0 -53.333 7.83301 -70 23.5s-25 36.167 -25 61.5c0 20 5.66699 37.667 17 53s24 28.333 38 39c16 12 34.333 23 55 33h-255z" />
    <glyph glyph-name="eogonek" unicode="&#x119;" 
d="M490 245c0 -6.66699 -3.33203 -10 -9.99902 -10h-360v-95c0 -35.333 9.66699 -62.5 29 -81.5s48 -28.5 86 -28.5h100c38 0 66.667 9.5 86 28.5s29 46.167 29 81.5c0 6.66699 3.33301 10 10 10h20c6.66699 0 10 -3.33301 10 -10c0 -48 -13.333 -85 -40 -111
s-65 -39 -115 -39c-18 -8.66699 -34 -19 -48 -31c-12 -10 -22.833 -22.167 -32.5 -36.5s-14.5 -30.166 -14.5 -47.499c0 -15.333 5 -27.5 15 -36.5s25 -13.5 45 -13.5h45c6.66699 0 10 -3.33301 10 -10v-15c0 -6.66699 -3.33301 -10 -10 -10h-45
c-30 0 -53.333 7.83301 -70 23.5s-25 36.167 -25 61.5c0 17.333 4.66699 33.166 14 47.499s19.666 26.5 30.999 36.5c12.667 12 27.667 22.333 45 31h-60c-50 0 -88.333 13 -115 39s-40 63 -40 111v230c0 48 13.333 85 40 111s65 39 115 39h100c50 0 88.333 -13 115 -39
s40 -63 40 -111v-125zM120.001 275h330v95c0 35.333 -9.66699 62.5 -29 81.5s-48 28.5 -86 28.5h-100c-38 0 -66.667 -9.5 -86 -28.5s-29 -46.167 -29 -81.5v-95z" />
    <glyph glyph-name="Ecaron" unicode="&#x11a;" horiz-adv-x="660" 
d="M155 380h355c6.66699 0 10 -3.33301 10 -10v-25c0 -6.66699 -3.33301 -10 -10 -10h-355v-290h455c6.66699 0 10 -3.33301 10 -10v-25c0 -6.66699 -3.33301 -10 -10 -10h-490c-6.66699 -0 -10 3.33301 -10 10v680c0 6.66699 3.33301 10 10 10h480
c6.66699 0 10 -3.33301 10 -10v-25c0 -6.66699 -3.33301 -10 -10 -10h-445v-275zM355 790c-5.33301 0 -9.5 1 -12.5 3s-5.5 4.33301 -7.5 7l-110 145c-2 2.66699 -2.33301 5 -1 7s3.33301 3 6 3h20c5.33301 0 9.5 -1 12.5 -3s5.5 -4.33301 7.5 -7l88 -120h4l88 120
c2 2.66699 4.5 5 7.5 7s7.16699 3 12.5 3h20c2.66699 0 4.66699 -1 6 -3s1 -4.33301 -1 -7l-110 -145c-2 -2.66699 -4.5 -5 -7.5 -7s-7.16699 -3 -12.5 -3h-10z" />
    <glyph glyph-name="ecaron" unicode="&#x11b;" 
d="M490 245c0 -6.66699 -3.33301 -10 -10 -10h-360v-95c0 -35.333 9.66699 -62.5 29 -81.5s48 -28.5 86 -28.5h100c38 0 66.667 9.5 86 28.5s29 46.167 29 81.5c0 6.66699 3.33301 10 10 10h20c6.66699 0 10 -3.33301 10 -10c0 -48 -13.333 -85 -40 -111s-65 -39 -115 -39
h-100c-50 0 -88.333 13 -115 39s-40 63 -40 111v230c0 48 13.333 85 40 111s65 39 115 39h100c50 0 88.333 -13 115 -39s40 -63 40 -111v-125zM120 275h330v95c0 35.333 -9.66699 62.5 -29 81.5s-48 28.5 -86 28.5h-100c-38 0 -66.667 -9.5 -86 -28.5s-29 -46.167 -29 -81.5
v-95zM280 600c-5.33301 0 -9.5 1 -12.5 3s-5.5 4.33301 -7.5 7l-110 145c-2 2.66699 -2.33301 5 -1 7s3.33301 3 6 3h20c5.33301 0 9.5 -1 12.5 -3s5.5 -4.33301 7.5 -7l88 -120h4l88 120c2 2.66699 4.5 5 7.5 7s7.16699 3 12.5 3h20c2.66699 0 4.66699 -1 6 -3
s1 -4.33301 -1 -7l-110 -145c-2 -2.66699 -4.5 -5 -7.5 -7s-7.16699 -3 -12.5 -3h-10z" />
    <glyph glyph-name="Gbreve" unicode="&#x11e;" horiz-adv-x="765" 
d="M665 160c0 -52.667 -15.333 -94.167 -46 -124.5s-73.667 -45.5 -129 -45.5h-215c-55.333 0 -98.333 15.167 -129 45.5s-46 71.833 -46 124.5v380c0 52.667 15.333 94.167 46 124.5s73.667 45.5 129 45.5h215c55.333 0 98.333 -15.167 129 -45.5s46 -71.833 46 -124.5v-35
c0 -6.66699 -3.33301 -10 -10 -10h-25c-6.66699 0 -10 3.33301 -10 10v35c0 40 -11 70.833 -33 92.5s-54.333 32.5 -97 32.5h-215c-42.667 0 -75 -10.833 -97 -32.5s-33 -52.5 -33 -92.5v-380c0 -40 11 -70.833 33 -92.5s54.333 -32.5 97 -32.5h215
c42.667 0 75 10.833 97 32.5s33 52.5 33 92.5v145h-180c-6.66699 0 -10 3.33301 -10 10v25c0 6.66699 3.33301 10 10 10h215c6.66699 0 10 -3.33301 10 -10v-180zM390 840c25.333 0 43.333 5.33301 54 16s16 28.667 16 54v10c0 6.66699 3.33301 10 10 10h20
c6.66699 0 10 -3.33301 10 -10v-10c0 -73.333 -36.667 -110 -110 -110h-45c-73.333 0 -110 36.667 -110 110v10c0 6.66699 3.33301 10 10 10h20c6.66699 0 10 -3.33301 10 -10v-10c0 -25.333 5.33301 -43.333 16 -54s28.667 -16 54 -16h45z" />
    <glyph glyph-name="gbreve" unicode="&#x11f;" 
d="M85 -40c0 6.66699 3.33398 9.99902 10.001 9.99902h20c6.66699 0 10 -3.33301 10 -10v-10c0 -35.333 9.66699 -62.5 29 -81.5s48 -28.5 86 -28.5h85c38 0 66.667 9.5 86 28.5s29 46.167 29 81.5v90h-205c-50 0 -88.333 13 -115 39s-40 63 -40 111v180
c0 48 13.333 85 40 111s65 39 115 39h75c25.333 0 46 -4 62 -12s28.667 -16.667 38 -26c11.333 -11.333 19.666 -23.666 24.999 -36.999h5v55c0 6.66699 3.33301 10 10 10h20c6.66699 0 10 -3.33301 10 -10v-550c0 -48 -13.333 -85 -40 -111s-65 -39 -115 -39h-85
c-50 0 -88.333 13 -115 39s-40 63 -40 111v10zM440.001 354.999c0 38 -11.667 68.333 -35 91s-55 34 -95 34h-75c-38 0 -66.667 -9.5 -86 -28.5s-29 -46.167 -29 -81.5v-180c0 -35.333 9.66699 -62.5 29 -81.5s48 -28.5 86 -28.5h205v275zM310.001 649.999
c25.333 0 43.333 5.33301 54 16s16 28.667 16 54v10c0 6.66699 3.33301 10 10 10h20c6.66699 0 10 -3.33301 10 -10v-10c0 -73.333 -36.667 -110 -110 -110h-45c-73.333 0 -110 36.667 -110 110v10c0 6.66699 3.33301 10 10 10h20c6.66699 0 10 -3.33301 10 -10v-10
c0 -25.333 5.33301 -43.333 16 -54s28.667 -16 54 -16h45z" />
    <glyph glyph-name="Gcommaaccent" unicode="&#x122;" horiz-adv-x="765" 
d="M665 160c0 -52.667 -15.333 -94.167 -46 -124.5s-73.667 -45.5 -129 -45.5h-215c-55.333 0 -98.333 15.167 -129 45.5s-46 71.833 -46 124.5v380c0 52.667 15.333 94.167 46 124.5s73.667 45.5 129 45.5h215c55.333 0 98.333 -15.167 129 -45.5s46 -71.833 46 -124.5v-35
c0 -6.66699 -3.33301 -10 -10 -10h-25c-6.66699 0 -10 3.33301 -10 10v35c0 40 -11 70.833 -33 92.5s-54.333 32.5 -97 32.5h-215c-42.667 0 -75 -10.833 -97 -32.5s-33 -52.5 -33 -92.5v-380c0 -40 11 -70.833 33 -92.5s54.333 -32.5 97 -32.5h215
c42.667 0 75 10.833 97 32.5s33 52.5 33 92.5v145h-180c-6.66699 0 -10 3.33301 -10 10v25c0 6.66699 3.33301 10 10 10h215c6.66699 0 10 -3.33301 10 -10v-180zM410 -135c0 -2.66699 -0.332031 -5.16699 -0.999023 -7.5s-1.33398 -4.5 -2.00098 -6.5
c-0.666992 -2.66699 -1.33398 -4.66699 -2.00098 -6l-45 -90c-1.33301 -2.66699 -2.83301 -5 -4.5 -7s-5.16699 -3 -10.5 -3s-8.66602 1 -9.99902 3s-1.33301 4.33301 0 7l45 90h-10c-6.66699 0 -10 3.33301 -10 10v30c0 6.66699 3.33301 10 10 10h30
c6.66699 0 10 -3.33301 10 -10v-20z" />
    <glyph glyph-name="gcommaaccent" unicode="&#x123;" 
d="M260 640c0 4 0.667969 8.66699 2.00098 14c0.666992 2.66699 1.66699 4.66699 3 6l45 90c1.33301 2.66699 2.83301 5 4.5 7s5.16699 3 10.5 3s8.66602 -1 9.99902 -3s1.33301 -4.33301 0 -7l-45 -90h10c6.66699 0 10 -3.33301 10 -10v-30
c0 -6.66699 -3.33301 -10 -10 -10h-30c-6.66699 0 -10 3.33301 -10 10v20zM85.001 -40c0 6.66699 3.33398 9.99902 10.001 9.99902h20c6.66699 0 10 -3.33301 10 -10v-10c0 -35.333 9.66699 -62.5 29 -81.5s48 -28.5 86 -28.5h85c38 0 66.667 9.5 86 28.5s29 46.167 29 81.5
v90h-205c-50 0 -88.333 13 -115 39s-40 63 -40 111v180c0 48 13.333 85 40 111s65 39 115 39h75c25.333 0 46 -4 62 -12s28.667 -16.667 38 -26c11.333 -11.333 19.666 -23.666 24.999 -36.999h5v55c0 6.66699 3.33301 10 10 10h20c6.66699 0 10 -3.33301 10 -10v-550
c0 -48 -13.333 -85 -40 -111s-65 -39 -115 -39h-85c-50 0 -88.333 13 -115 39s-40 63 -40 111v10zM440.002 354.999c0 38 -11.667 68.333 -35 91s-55 34 -95 34h-75c-38 0 -66.667 -9.5 -86 -28.5s-29 -46.167 -29 -81.5v-180c0 -35.333 9.66699 -62.5 29 -81.5
s48 -28.5 86 -28.5h205v275z" />
    <glyph glyph-name="Imacron" unicode="&#x12a;" horiz-adv-x="260" 
d="M155 10c0 -6.66699 -3.33301 -10 -10 -10h-25c-6.66699 -0 -10 3.33301 -10 10v680c0 6.66699 3.33301 10 10 10h25c6.66699 0 10 -3.33301 10 -10v-680zM11 840c-6.66699 0 -10 3.33301 -10 10v20c0 6.66699 3.33301 10 10 10h240c6.66699 0 10 -3.33301 10 -10v-20
c0 -6.66699 -3.33301 -10 -10 -10h-240z" />
    <glyph glyph-name="imacron" unicode="&#x12b;" horiz-adv-x="220" 
d="M130 10c0 -6.66699 -3.33301 -10 -10 -10h-20c-6.66699 -0 -10 3.33301 -10 10v490c0 6.66699 3.33301 10 10 10h20c6.66699 0 10 -3.33301 10 -10v-490zM-9 651c-6.66699 0 -10 3.33301 -10 10v20c0 6.66699 3.33301 10 10 10h240c6.66699 0 10 -3.33301 10 -10v-20
c0 -6.66699 -3.33301 -10 -10 -10h-240z" />
    <glyph glyph-name="Iogonek" unicode="&#x12e;" horiz-adv-x="265" 
d="M110 690c0 6.66699 3.33301 10 10 10h25c6.66699 0 10 -3.33301 10 -10v-680c0 -6.66699 -3.33301 -10 -10 -10c-20.667 -8.66699 -39 -19 -55 -31c-14 -10.667 -26.667 -23.667 -38 -39s-17 -33.666 -17 -54.999c0 -15.333 5 -27.5 15 -36.5s25 -13.5 45 -13.5h45
c6.66699 0 10 -3.33301 10 -10v-15c0 -6.66699 -3.33301 -10 -10 -10h-45c-30 0 -53.333 7.83301 -70 23.5s-25 36.167 -25 61.5c-0 22.667 5.83301 42.167 17.5 58.5s24.834 29.833 39.501 40.5c17.333 12 36.666 22.333 57.999 31c-1.33301 0 -2.33301 0.333008 -3 1
c-1.33301 1.33301 -2 2.66602 -2 3.99902v680z" />
    <glyph glyph-name="iogonek" unicode="&#x12f;" horiz-adv-x="220" 
d="M120 700c6.66699 0 10 -3.33301 10 -10v-30c0 -6.66699 -3.33301 -10 -10 -10h-30c-6.66699 0 -10 3.33301 -10 10v30c0 6.66699 3.33301 10 10 10h30zM85 500c0 6.66699 3.33398 10 10.001 10h20c6.66699 0 10 -3.33301 10 -10v-490c0 -6.66699 -3.33301 -10 -10 -10
c-20.667 -8.66699 -39 -19 -55 -31c-14 -10.667 -26.667 -23.667 -38 -39s-17 -33.666 -17 -54.999c0 -15.333 5 -27.5 15 -36.5s25 -13.5 45 -13.5h45c6.66699 0 10 -3.33301 10 -10v-15c0 -6.66699 -3.33301 -10 -10 -10h-45c-30 0 -53.333 7.83301 -70 23.5
s-25 36.167 -25 61.5c0 22.667 6.16699 42.167 18.5 58.5s26.166 29.833 41.499 40.5c17.333 12 37.333 22.333 60 31c-1.33301 0 -2.33301 0.333008 -3 1c-1.33301 1.33301 -2 2.66602 -2 3.99902v490z" />
    <glyph glyph-name="Idotaccent" unicode="&#x130;" horiz-adv-x="270" 
d="M160 10c0 -6.66699 -3.33301 -10 -10 -10h-25c-6.66699 -0 -10 3.33301 -10 10v680c0 6.66699 3.33301 10 10 10h25c6.66699 0 10 -3.33301 10 -10v-680zM150 890c6.66699 0 10 -3.33301 10 -10v-30c0 -6.66699 -3.33301 -10 -10 -10h-30c-6.66699 0 -10 3.33301 -10 10
v30c0 6.66699 3.33301 10 10 10h30z" />
    <glyph glyph-name="dotlessi" unicode="&#x131;" horiz-adv-x="220" 
d="M130 10c0 -6.66699 -3.33301 -10 -10 -10h-20c-6.66699 -0 -10 3.33301 -10 10v490c0 6.66699 3.33301 10 10 10h20c6.66699 0 10 -3.33301 10 -10v-490z" />
    <glyph glyph-name="Kcommaaccent" unicode="&#x136;" horiz-adv-x="677" 
d="M155 390h245.001l165 300c2 3.33301 3.66699 5.83301 5 7.5s4.66602 2.5 9.99902 2.5h30c2.66699 0 4.5 -1 5.5 -3s0.833008 -4.33301 -0.5 -7l-180 -320l200 -360c1.33301 -2.66699 1.5 -5 0.5 -7s-2.83301 -3 -5.5 -3h-30c-5.33301 0 -8.83301 1 -10.5 3
s-3.16699 4.33301 -4.5 7l-185 335h-245v-335c0 -6.66699 -3.33301 -10 -10 -10h-25c-6.66699 -0 -10 3.33301 -10 10v680c0 6.66699 3.33301 10 10 10h25c6.66699 0 10 -3.33301 10 -10v-300zM380.001 -130c0 -2.66699 -0.332031 -5.16699 -0.999023 -7.5
s-1.33398 -4.5 -2.00098 -6.5c-0.666992 -2.66699 -1.33398 -4.66699 -2.00098 -6l-45 -90c-1.33301 -2.66699 -2.83301 -5 -4.5 -7s-5.16699 -3 -10.5 -3s-8.66602 1 -9.99902 3s-1.33301 4.33301 0 7l45 90h-10c-6.66699 0 -10 3.33301 -10 10v30
c0 6.66699 3.33301 10 10 10h30c6.66699 0 10 -3.33301 10 -10v-20z" />
    <glyph glyph-name="kcommaaccent" unicode="&#x137;" horiz-adv-x="507" 
d="M130 290h165l120 210c1.33301 2.66699 2.83301 5 4.5 7s5.16699 3 10.5 3h25c2.66699 0 4.5 -1 5.5 -3s0.833008 -4.33301 -0.5 -7l-130 -230l145 -260c1.33301 -2.66699 1.5 -5 0.5 -7s-2.83301 -3 -5.5 -3h-25c-5.33301 0 -8.83301 1 -10.5 3s-3.16699 4.33301 -4.5 7
l-135 240h-165v-240c0 -6.66699 -3.33301 -10 -10 -10h-20c-6.66699 -0 -10 3.33301 -10 10v680c0 6.66699 3.33301 10 10 10h20c6.66699 0 10 -3.33301 10 -10v-400zM290 -120c0 -2.66699 -0.332031 -5.16699 -0.999023 -7.5s-1.33398 -4.5 -2.00098 -6.5
c-0.666992 -2.66699 -1.33398 -4.66699 -2.00098 -6l-45 -90c-1.33301 -2.66699 -2.83301 -5 -4.5 -7s-5.16699 -3 -10.5 -3s-8.66602 1 -9.99902 3s-1.33301 4.33301 0 7l45 90h-10c-6.66699 0 -10 3.33301 -10 10v30c0 6.66699 3.33301 10 10 10h30
c6.66699 0 10 -3.33301 10 -10v-20z" />
    <glyph glyph-name="Lacute" unicode="&#x139;" horiz-adv-x="615" 
d="M155 45h430c6.66699 0 10 -3.33301 10 -10v-25c0 -6.66699 -3.33301 -10 -10 -10h-465c-6.66699 -0 -10 3.33301 -10 10v680c0 6.66699 3.33301 10 10 10h25c6.66699 0 10 -3.33301 10 -10v-645zM160 800c-1.33301 -2.66699 -2.83301 -5 -4.5 -7s-5.16699 -3 -10.5 -3
h-15c-2.66699 0 -4.5 1 -5.5 3s-0.833008 4.33301 0.5 7l75 135c1.33301 2.66699 2.83301 5 4.5 7s5.16699 3 10.5 3h30c2.66699 0 4.5 -1 5.5 -3s0.833008 -4.33301 -0.5 -7z" />
    <glyph glyph-name="lacute" unicode="&#x13a;" horiz-adv-x="227" 
d="M130 10c0 -6.66699 -3.33301 -10 -10 -10h-20c-6.66699 -0 -10 3.33301 -10 10v680c0 6.66699 3.33301 10 10 10h20c6.66699 0 10 -3.33301 10 -10v-680zM135 800c-1.33301 -2.66699 -2.83301 -5 -4.5 -7s-5.16699 -3 -10.5 -3h-15c-2.66699 0 -4.5 1 -5.5 3
s-0.833008 4.33301 0.5 7l75 135c1.33301 2.66699 2.83301 5 4.5 7s5.16699 3 10.5 3h30c2.66699 0 4.5 -1 5.5 -3s0.833008 -4.33301 -0.5 -7z" />
    <glyph glyph-name="Lcommaaccent" unicode="&#x13b;" horiz-adv-x="615" 
d="M155 45h430c6.66699 0 10 -3.33301 10 -10v-25c0 -6.66699 -3.33301 -10 -10 -10h-465c-6.66699 -0 -10 3.33301 -10 10v680c0 6.66699 3.33301 10 10 10h25c6.66699 0 10 -3.33301 10 -10v-645zM380 -130c0 -2.66699 -0.332031 -5.16699 -0.999023 -7.5
s-1.33398 -4.5 -2.00098 -6.5c-0.666992 -2.66699 -1.33398 -4.66699 -2.00098 -6l-45 -90c-1.33301 -2.66699 -2.83301 -5 -4.5 -7s-5.16699 -3 -10.5 -3s-8.66602 1 -9.99902 3s-1.33301 4.33301 0 7l45 90h-10c-6.66699 0 -10 3.33301 -10 10v30
c0 6.66699 3.33301 10 10 10h30c6.66699 0 10 -3.33301 10 -10v-20z" />
    <glyph glyph-name="lcommaaccent" unicode="&#x13c;" horiz-adv-x="227" 
d="M132 10c0 -6.66699 -3.33301 -10 -10 -10h-20c-6.66699 -0 -10 3.33301 -10 10v680c0 6.66699 3.33301 10 10 10h20c6.66699 0 10 -3.33301 10 -10v-680zM137 -120c0 -2.66699 -0.332031 -5.16699 -0.999023 -7.5s-1.33398 -4.5 -2.00098 -6.5
c-0.666992 -2.66699 -1.33398 -4.66699 -2.00098 -6l-45 -90c-1.33301 -2.66699 -2.83301 -5 -4.5 -7s-5.16699 -3 -10.5 -3s-8.66602 1 -9.99902 3s-1.33301 4.33301 0 7l45 90h-10c-6.66699 0 -10 3.33301 -10 10v30c0 6.66699 3.33301 10 10 10h30
c6.66699 0 10 -3.33301 10 -10v-20z" />
    <glyph glyph-name="Lcaron" unicode="&#x13d;" horiz-adv-x="615" 
d="M155 45h430c6.66699 0 10 -3.33301 10 -10v-25c0 -6.66699 -3.33301 -10 -10 -10h-465c-6.66699 -0 -10 3.33301 -10 10v680c0 6.66699 3.33301 10 10 10h25c6.66699 0 10 -3.33301 10 -10v-645zM320 670c0 -2.66699 -0.332031 -5.16699 -0.999023 -7.5
s-1.33398 -4.5 -2.00098 -6.5c-0.666992 -2.66699 -1.33398 -4.66699 -2.00098 -6l-45 -90c-1.33301 -2.66699 -2.83301 -5 -4.5 -7s-5.16699 -3 -10.5 -3s-8.66602 1 -9.99902 3s-1.33301 4.33301 0 7l45 90h-10c-6.66699 0 -10 3.33301 -10 10v30
c0 6.66699 3.33301 10 10 10h30c6.66699 0 10 -3.33301 10 -10v-20z" />
    <glyph glyph-name="lcaron" unicode="&#x13e;" horiz-adv-x="230" 
d="M130 10c0 -6.66699 -3.33301 -10 -10 -10h-20c-6.66699 -0 -10 3.33301 -10 10v680c0 6.66699 3.33301 10 10 10h20c6.66699 0 10 -3.33301 10 -10v-680zM270 670c0 -2.66699 -0.332031 -5.16699 -0.999023 -7.5s-1.33398 -4.5 -2.00098 -6.5
c-0.666992 -2.66699 -1.33398 -4.66699 -2.00098 -6l-45 -90c-1.33301 -2.66699 -2.83301 -5 -4.5 -7s-5.16699 -3 -10.5 -3s-8.66602 1 -9.99902 3s-1.33301 4.33301 0 7l45 90h-10c-6.66699 0 -10 3.33301 -10 10v30c0 6.66699 3.33301 10 10 10h30
c6.66699 0 10 -3.33301 10 -10v-20z" />
    <glyph glyph-name="Lslash" unicode="&#x141;" horiz-adv-x="655" 
d="M150 370v320.001c0 6.66699 3.33301 10 10 10h25c6.66699 0 10 -3.33301 10 -10v-305l115 45c6.66699 2.66699 10 1 10 -5v-20c0 -4 -1.66699 -7.66699 -5 -11c-2 -2 -3.66699 -3.33301 -5 -4l-115 -45v-300h430c6.66699 0 10 -3.33301 10 -10v-25
c0 -6.66699 -3.33301 -10 -10 -10h-465c-6.66699 0 -10 3.33301 -10 10v320l-120 -45c-6.66699 -2.66699 -10 -1 -10 5v20c0 4 1.66699 7.66699 5 11c1.33301 1.33301 3 2.66602 5 3.99902z" />
    <glyph glyph-name="lslash" unicode="&#x142;" horiz-adv-x="295" 
d="M165 385l120 45.001c6.66699 2.66699 10 1 10 -5v-20c0 -4 -1.66699 -7.66699 -5 -11c-2 -2 -3.66699 -3.33301 -5 -4l-120 -45v-335c0 -6.66699 -3.33301 -10 -10 -10h-20c-6.66699 0 -10 3.33301 -10 10v320l-115 -45c-6.66699 -2.66699 -10 -1 -10 5v20
c0 4 1.66699 7.66699 5 11c1.33301 1.33301 3 2.66602 5 3.99902l115 45v320c0 6.66699 3.33301 10 10 10h20c6.66699 0 10 -3.33301 10 -10v-305z" />
    <glyph glyph-name="Nacute" unicode="&#x143;" horiz-adv-x="775" 
d="M620 690c0 6.66699 3.33301 10 10 10h25c6.66699 0 10 -3.33301 10 -10v-680c0 -6.66699 -3.33301 -10 -10 -10h-35c-5.33301 0 -9.5 1 -12.5 3s-5.5 4.33301 -7.5 7l-440 625h-5v-625c0 -6.66699 -3.33301 -10 -10 -10h-25c-6.66699 -0 -10 3.33301 -10 10v680
c0 6.66699 3.33301 10 10 10h35c5.33301 0 9.5 -1 12.5 -3s5.5 -4.33301 7.5 -7l440 -625h5v625zM410 800c-1.33301 -2.66699 -2.83301 -5 -4.5 -7s-5.16699 -3 -10.5 -3h-15c-2.66699 0 -4.5 1 -5.5 3s-0.833008 4.33301 0.5 7l75 135c1.33301 2.66699 2.83301 5 4.5 7
s5.16699 3 10.5 3h30c2.66699 0 4.5 -1 5.5 -3s0.833008 -4.33301 -0.5 -7z" />
    <glyph glyph-name="nacute" unicode="&#x144;" horiz-adv-x="580" 
d="M335 520c50 0 88.334 -12.999 115.001 -38.999s40 -63 40 -111v-360c0 -6.66699 -3.33301 -10 -10 -10h-20c-6.66699 0 -10 3.33301 -10 10v360c0 35.333 -9.66699 62.5 -29 81.5s-48 28.5 -86 28.5h-75c-40 0 -71.667 -11.333 -95 -34s-35 -53 -35 -91v-345
c0 -6.66699 -3.33301 -10 -10 -10h-20c-6.66699 0 -10 3.33301 -10 10v490c0 6.66699 3.33301 10 10 10h20c6.66699 0 10 -3.33301 10 -10v-55h5c5.33301 13.333 13.666 25.666 24.999 36.999c9.33301 9.33301 22 18 38 26s36.667 12 62 12h75zM305.001 610.001
c-1.33301 -2.66699 -2.83301 -5 -4.5 -7s-5.16699 -3 -10.5 -3h-15c-2.66699 0 -4.5 1 -5.5 3s-0.833008 4.33301 0.5 7l75 135c1.33301 2.66699 2.83301 5 4.5 7s5.16699 3 10.5 3h30c2.66699 0 4.5 -1 5.5 -3s0.833008 -4.33301 -0.5 -7z" />
    <glyph glyph-name="Ncommaaccent" unicode="&#x145;" horiz-adv-x="775" 
d="M620 690c0 6.66699 3.33301 10 10 10h25c6.66699 0 10 -3.33301 10 -10v-680c0 -6.66699 -3.33301 -10 -10 -10h-35c-5.33301 0 -9.5 1 -12.5 3s-5.5 4.33301 -7.5 7l-440 625h-5v-625c0 -6.66699 -3.33301 -10 -10 -10h-25c-6.66699 -0 -10 3.33301 -10 10v680
c0 6.66699 3.33301 10 10 10h35c5.33301 0 9.5 -1 12.5 -3s5.5 -4.33301 7.5 -7l440 -625h5v625zM420 -130c0 -2.66699 -0.332031 -5.16699 -0.999023 -7.5s-1.33398 -4.5 -2.00098 -6.5c-0.666992 -2.66699 -1.33398 -4.66699 -2.00098 -6l-45 -90
c-1.33301 -2.66699 -2.83301 -5 -4.5 -7s-5.16699 -3 -10.5 -3s-8.66602 1 -9.99902 3s-1.33301 4.33301 0 7l45 90h-10c-6.66699 0 -10 3.33301 -10 10v30c0 6.66699 3.33301 10 10 10h30c6.66699 0 10 -3.33301 10 -10v-20z" />
    <glyph glyph-name="ncommaaccent" unicode="&#x146;" horiz-adv-x="580" 
d="M335 520c50 0 88.334 -12.999 115.001 -38.999s40 -63 40 -111v-360c0 -6.66699 -3.33301 -10 -10 -10h-20c-6.66699 0 -10 3.33301 -10 10v360c0 35.333 -9.66699 62.5 -29 81.5s-48 28.5 -86 28.5h-75c-40 0 -71.667 -11.333 -95 -34s-35 -53 -35 -91v-345
c0 -6.66699 -3.33301 -10 -10 -10h-20c-6.66699 0 -10 3.33301 -10 10v490c0 6.66699 3.33301 10 10 10h20c6.66699 0 10 -3.33301 10 -10v-55h5c5.33301 13.333 13.666 25.666 24.999 36.999c9.33301 9.33301 22 18 38 26s36.667 12 62 12h75zM320.001 -119.999
c0 -2.66699 -0.332031 -5.16699 -0.999023 -7.5s-1.33398 -4.5 -2.00098 -6.5c-0.666992 -2.66699 -1.33398 -4.66699 -2.00098 -6l-45 -90c-1.33301 -2.66699 -2.83301 -5 -4.5 -7s-5.16699 -3 -10.5 -3s-8.66602 1 -9.99902 3s-1.33301 4.33301 0 7l45 90h-10
c-6.66699 0 -10 3.33301 -10 10v30c0 6.66699 3.33301 10 10 10h30c6.66699 0 10 -3.33301 10 -10v-20z" />
    <glyph glyph-name="Ncaron" unicode="&#x147;" horiz-adv-x="775" 
d="M620 690c0 6.66699 3.33301 10 10 10h25c6.66699 0 10 -3.33301 10 -10v-680c0 -6.66699 -3.33301 -10 -10 -10h-35c-5.33301 0 -9.5 1 -12.5 3s-5.5 4.33301 -7.5 7l-440 625h-5v-625c0 -6.66699 -3.33301 -10 -10 -10h-25c-6.66699 -0 -10 3.33301 -10 10v680
c0 6.66699 3.33301 10 10 10h35c5.33301 0 9.5 -1 12.5 -3s5.5 -4.33301 7.5 -7l440 -625h5v625zM380 790c-5.33301 0 -9.5 1 -12.5 3s-5.5 4.33301 -7.5 7l-110 145c-2 2.66699 -2.33301 5 -1 7s3.33301 3 6 3h20c5.33301 0 9.5 -1 12.5 -3s5.5 -4.33301 7.5 -7l88 -120h4
l88 120c2 2.66699 4.5 5 7.5 7s7.16699 3 12.5 3h20c2.66699 0 4.66699 -1 6 -3s1 -4.33301 -1 -7l-110 -145c-2 -2.66699 -4.5 -5 -7.5 -7s-7.16699 -3 -12.5 -3h-10z" />
    <glyph glyph-name="ncaron" unicode="&#x148;" horiz-adv-x="580" 
d="M335 520c50 0 88.334 -12.999 115.001 -38.999s40 -63 40 -111v-360c0 -6.66699 -3.33301 -10 -10 -10h-20c-6.66699 0 -10 3.33301 -10 10v360c0 35.333 -9.66699 62.5 -29 81.5s-48 28.5 -86 28.5h-75c-40 0 -71.667 -11.333 -95 -34s-35 -53 -35 -91v-345
c0 -6.66699 -3.33301 -10 -10 -10h-20c-6.66699 0 -10 3.33301 -10 10v490c0 6.66699 3.33301 10 10 10h20c6.66699 0 10 -3.33301 10 -10v-55h5c5.33301 13.333 13.666 25.666 24.999 36.999c9.33301 9.33301 22 18 38 26s36.667 12 62 12h75zM285.001 600.001
c-5.33301 0 -9.5 1 -12.5 3s-5.5 4.33301 -7.5 7l-110 145c-2 2.66699 -2.33301 5 -1 7s3.33301 3 6 3h20c5.33301 0 9.5 -1 12.5 -3s5.5 -4.33301 7.5 -7l88 -120h4l88 120c2 2.66699 4.5 5 7.5 7s7.16699 3 12.5 3h20c2.66699 0 4.66699 -1 6 -3s1 -4.33301 -1 -7
l-110 -145c-2 -2.66699 -4.5 -5 -7.5 -7s-7.16699 -3 -12.5 -3h-10z" />
    <glyph glyph-name="Omacron" unicode="&#x14c;" horiz-adv-x="775" 
d="M100 540c0 52.667 15.333 94.167 46 124.5s73.667 45.5 129 45.5h225c55.333 0 98.333 -15.167 129 -45.5s46 -71.833 46 -124.5v-380c0 -52.667 -15.333 -94.167 -46 -124.5s-73.667 -45.5 -129 -45.5h-225c-55.333 0 -98.333 15.167 -129 45.5s-46 71.833 -46 124.5
v380zM145 160c0 -40 11 -70.833 33 -92.5s54.333 -32.5 97 -32.5h225c42.667 0 75 10.833 97 32.5s33 52.5 33 92.5v380c0 40 -11 70.833 -33 92.5s-54.333 32.5 -97 32.5h-225c-42.667 0 -75 -10.833 -97 -32.5s-33 -52.5 -33 -92.5v-380zM270 840
c-6.66699 0 -10 3.33301 -10 10v20c0 6.66699 3.33301 10 10 10h240c6.66699 0 10 -3.33301 10 -10v-20c0 -6.66699 -3.33301 -10 -10 -10h-240z" />
    <glyph glyph-name="omacron" unicode="&#x14d;" horiz-adv-x="575" 
d="M495 140c0 -48 -13.333 -85 -40 -111s-65 -39 -115 -39h-105c-50 0 -88.333 13 -115 39s-40 63 -40 111v230c0 48 13.333 85 40 111s65 39 115 39h105c50 0 88.333 -13 115 -39s40 -63 40 -111v-230zM455 370c0 35.333 -9.66699 62.5 -29 81.5s-48 28.5 -86 28.5h-105
c-38 0 -66.667 -9.5 -86 -28.5s-29 -46.167 -29 -81.5v-230c0 -35.333 9.66699 -62.5 29 -81.5s48 -28.5 86 -28.5h105c38 0 66.667 9.5 86 28.5s29 46.167 29 81.5v230zM170 651c-6.66699 0 -10 3.33301 -10 10v20c0 6.66699 3.33301 10 10 10h240
c6.66699 0 10 -3.33301 10 -10v-20c0 -6.66699 -3.33301 -10 -10 -10h-240z" />
    <glyph glyph-name="Ohungarumlaut" unicode="&#x150;" horiz-adv-x="775" 
d="M100 540c0 52.667 15.333 94.167 46 124.5s73.667 45.5 129 45.5h225c55.333 0 98.333 -15.167 129 -45.5s46 -71.833 46 -124.5v-380c0 -52.667 -15.333 -94.167 -46 -124.5s-73.667 -45.5 -129 -45.5h-225c-55.333 0 -98.333 15.167 -129 45.5s-46 71.833 -46 124.5
v380zM145 160c0 -40 11 -70.833 33 -92.5s54.333 -32.5 97 -32.5h225c42.667 0 75 10.833 97 32.5s33 52.5 33 92.5v380c0 40 -11 70.833 -33 92.5s-54.333 32.5 -97 32.5h-225c-42.667 0 -75 -10.833 -97 -32.5s-33 -52.5 -33 -92.5v-380zM330 810
c-1.33301 -2.66699 -2.83301 -5 -4.5 -7s-5.16699 -3 -10.5 -3h-15c-2.66699 0 -4.5 1 -5.5 3s-0.833008 4.33301 0.5 7l70 135c1.33301 2.66699 2.83301 5 4.5 7s5.16699 3 10.5 3h25c2.66699 0 4.5 -1 5.5 -3s0.833008 -4.33301 -0.5 -7zM470 810
c-1.33301 -2.66699 -2.83301 -5 -4.5 -7s-5.16699 -3 -10.5 -3h-15c-2.66699 0 -4.5 1 -5.5 3s-0.833008 4.33301 0.5 7l70 135c1.33301 2.66699 2.83301 5 4.5 7s5.16699 3 10.5 3h25c2.66699 0 4.5 -1 5.5 -3s0.833008 -4.33301 -0.5 -7z" />
    <glyph glyph-name="ohungarumlaut" unicode="&#x151;" horiz-adv-x="575" 
d="M495 140c0 -48 -13.333 -85 -40 -111s-65 -39 -115 -39h-105c-50 0 -88.333 13 -115 39s-40 63 -40 111v230c0 48 13.333 85 40 111s65 39 115 39h105c50 0 88.333 -13 115 -39s40 -63 40 -111v-230zM455 370c0 35.333 -9.66699 62.5 -29 81.5s-48 28.5 -86 28.5h-105
c-38 0 -66.667 -9.5 -86 -28.5s-29 -46.167 -29 -81.5v-230c0 -35.333 9.66699 -62.5 29 -81.5s48 -28.5 86 -28.5h105c38 0 66.667 9.5 86 28.5s29 46.167 29 81.5v230zM240 610c-1.33301 -2.66699 -2.83301 -5 -4.5 -7s-5.16699 -3 -10.5 -3h-15c-2.66699 0 -4.5 1 -5.5 3
s-0.833008 4.33301 0.5 7l70 135c1.33301 2.66699 2.83301 5 4.5 7s5.16699 3 10.5 3h25c2.66699 0 4.5 -1 5.5 -3s0.833008 -4.33301 -0.5 -7zM380 610c-1.33301 -2.66699 -2.83301 -5 -4.5 -7s-5.16699 -3 -10.5 -3h-15c-2.66699 0 -4.5 1 -5.5 3s-0.833008 4.33301 0.5 7
l70 135c1.33301 2.66699 2.83301 5 4.5 7s5.16699 3 10.5 3h25c2.66699 0 4.5 -1 5.5 -3s0.833008 -4.33301 -0.5 -7z" />
    <glyph glyph-name="OE" unicode="&#x152;" horiz-adv-x="1035" 
d="M975 700c6.66699 0 10 -3.33301 10 -10v-25c0 -6.66699 -3.33301 -10 -10 -10h-390v-275h300c6.66699 0 10 -3.33301 10 -10v-25c0 -6.66699 -3.33301 -10 -10 -10h-300v-290h400c6.66699 0 10 -3.33301 10 -10v-25c0 -6.66699 -3.33301 -10 -10 -10h-710
c-55.333 0 -98.333 15.167 -129 45.5s-46 71.833 -46 124.5v360c0 52.667 15.333 94.167 46 124.5s73.667 45.5 129 45.5h700zM145 170c0 -40 11 -70.833 33 -92.5s54.333 -32.5 97 -32.5h265v610h-265c-42.667 0 -75 -10.833 -97 -32.5s-33 -52.5 -33 -92.5v-360z" />
    <glyph glyph-name="oe" unicode="&#x153;" horiz-adv-x="875" 
d="M460 275h295v95c0 35.333 -9.66699 62.5 -29 81.5s-48 28.5 -86 28.5h-65c-38 0 -66.667 -9.5 -86 -28.5s-29 -46.167 -29 -81.5v-95zM80 370c0 48 13.333 85 40 111s65 39 115 39h70c28 0 50.5 -4 67.5 -12s30.5 -16.667 40.5 -26
c11.333 -11.333 19.666 -23.666 24.999 -36.999h4c5.33301 13.333 14 25.666 26 36.999c10 9.33301 23.333 18 40 26s39 12 67 12h65c50 0 88.333 -13 115 -39s40 -63 40 -111v-125c0 -6.66699 -3.33301 -10 -10 -10h-325v-95c0 -35.333 9.66699 -62.5 29 -81.5
s48 -28.5 86 -28.5h65c38 0 66.667 9.5 86 28.5s29 46.167 29 81.5c0 6.66699 3.33301 10 10 10h20c6.66699 0 10 -3.33301 10 -10c0 -48 -13.333 -85 -40 -111s-65 -39 -115 -39h-65c-28 0 -50.333 3.83301 -67 11.5s-30 16.167 -40 25.5c-12 11.333 -20.667 24 -26 38h-4
c-5.33301 -14 -13.666 -26.667 -24.999 -38c-10 -9.33301 -23.5 -17.833 -40.5 -25.5s-39.5 -11.5 -67.5 -11.5h-70c-50 0 -88.333 13 -115 39s-40 63 -40 111v230zM120 140c0 -35.333 9.66699 -62.5 29 -81.5s48 -28.5 86 -28.5h70c38 0 66.667 9.5 86 28.5
s29 46.167 29 81.5v230c0 35.333 -9.66699 62.5 -29 81.5s-48 28.5 -86 28.5h-70c-38 0 -66.667 -9.5 -86 -28.5s-29 -46.167 -29 -81.5v-230z" />
    <glyph glyph-name="Racute" unicode="&#x154;" horiz-adv-x="732" 
d="M155 260v-250c0 -6.66699 -3.33301 -10 -10 -10h-25c-6.66699 -0 -10 3.33301 -10 10v680c0 6.66699 3.33301 10 10 10h335c55.333 0 98.333 -15.167 129 -45.5s46 -71.833 46 -124.5v-100c0 -39.333 -6.83301 -69.833 -20.5 -91.5s-28.5 -38.167 -44.5 -49.5
c-19.333 -12.667 -41 -20.667 -65 -24l140 -255c1.33301 -2.66699 1.5 -5 0.5 -7s-2.83301 -3 -5.5 -3h-30c-5.33301 0 -8.83301 1 -10.5 3s-3.16699 4.33301 -4.5 7l-135 250h-300zM155 655v-350h300c42.667 0 75 10.833 97 32.5s33 52.5 33 92.5v100
c0 40 -11 70.833 -33 92.5s-54.333 32.5 -97 32.5h-300zM369 800c-1.33301 -2.66699 -2.83301 -5 -4.5 -7s-5.16699 -3 -10.5 -3h-15c-2.66699 0 -4.5 1 -5.5 3s-0.833008 4.33301 0.5 7l75 135c1.33301 2.66699 2.83301 5 4.5 7s5.16699 3 10.5 3h30
c2.66699 0 4.5 -1 5.5 -3s0.833008 -4.33301 -0.5 -7z" />
    <glyph glyph-name="racute" unicode="&#x155;" horiz-adv-x="340" 
d="M330 490c0 -6.66699 -3.33203 -9.99902 -9.99902 -9.99902h-60c-40 0 -71.667 -11.333 -95 -34s-35 -53 -35 -91v-345c0 -6.66699 -3.33301 -10 -10 -10h-20c-6.66699 0 -10 3.33301 -10 10v490c0 6.66699 3.33301 10 10 10h20c6.66699 0 10 -3.33301 10 -10v-55h5
c5.33301 13.333 13.666 25.666 24.999 36.999c9.33301 9.33301 22 18 38 26s36.667 12 62 12h60c6.66699 0 10 -3.33301 10 -10v-20zM230.001 610.001c-1.33301 -2.66699 -2.83301 -5 -4.5 -7s-5.16699 -3 -10.5 -3h-15c-2.66699 0 -4.5 1 -5.5 3s-0.833008 4.33301 0.5 7
l75 135c1.33301 2.66699 2.83301 5 4.5 7s5.16699 3 10.5 3h30c2.66699 0 4.5 -1 5.5 -3s0.833008 -4.33301 -0.5 -7z" />
    <glyph glyph-name="Rcommaaccent" unicode="&#x156;" horiz-adv-x="732" 
d="M155 260v-250c0 -6.66699 -3.33301 -10 -10 -10h-25c-6.66699 -0 -10 3.33301 -10 10v680c0 6.66699 3.33301 10 10 10h335c55.333 0 98.333 -15.167 129 -45.5s46 -71.833 46 -124.5v-100c0 -39.333 -6.83301 -69.833 -20.5 -91.5s-28.5 -38.167 -44.5 -49.5
c-19.333 -12.667 -41 -20.667 -65 -24l140 -255c1.33301 -2.66699 1.5 -5 0.5 -7s-2.83301 -3 -5.5 -3h-30c-5.33301 0 -8.83301 1 -10.5 3s-3.16699 4.33301 -4.5 7l-135 250h-300zM155 655v-350h300c42.667 0 75 10.833 97 32.5s33 52.5 33 92.5v100
c0 40 -11 70.833 -33 92.5s-54.333 32.5 -97 32.5h-300zM390 -120c0 -2.66699 -0.332031 -5.16699 -0.999023 -7.5s-1.33398 -4.5 -2.00098 -6.5c-0.666992 -2.66699 -1.33398 -4.66699 -2.00098 -6l-45 -90c-1.33301 -2.66699 -2.83301 -5 -4.5 -7s-5.16699 -3 -10.5 -3
s-8.66602 1 -9.99902 3s-1.33301 4.33301 0 7l45 90h-10c-6.66699 0 -10 3.33301 -10 10v30c0 6.66699 3.33301 10 10 10h30c6.66699 0 10 -3.33301 10 -10v-20z" />
    <glyph glyph-name="rcommaaccent" unicode="&#x157;" horiz-adv-x="342" 
d="M332 490c0 -6.66699 -3.33203 -9.99902 -9.99902 -9.99902h-60c-40 0 -71.667 -11.333 -95 -34s-35 -53 -35 -91v-345c0 -6.66699 -3.33301 -10 -10 -10h-20c-6.66699 0 -10 3.33301 -10 10v490c0 6.66699 3.33301 10 10 10h20c6.66699 0 10 -3.33301 10 -10v-55h5
c5.33301 13.333 13.666 25.666 24.999 36.999c9.33301 9.33301 22 18 38 26s36.667 12 62 12h60c6.66699 0 10 -3.33301 10 -10v-20zM137.001 -119.999c0 -2.66699 -0.332031 -5.16699 -0.999023 -7.5s-1.33398 -4.5 -2.00098 -6.5
c-0.666992 -2.66699 -1.33398 -4.66699 -2.00098 -6l-45 -90c-1.33301 -2.66699 -2.83301 -5 -4.5 -7s-5.16699 -3 -10.5 -3s-8.66602 1 -9.99902 3s-1.33301 4.33301 0 7l45 90h-10c-6.66699 0 -10 3.33301 -10 10v30c0 6.66699 3.33301 10 10 10h30
c6.66699 0 10 -3.33301 10 -10v-20z" />
    <glyph glyph-name="Rcaron" unicode="&#x158;" horiz-adv-x="732" 
d="M155 260v-250c0 -6.66699 -3.33301 -10 -10 -10h-25c-6.66699 -0 -10 3.33301 -10 10v680c0 6.66699 3.33301 10 10 10h335c55.333 0 98.333 -15.167 129 -45.5s46 -71.833 46 -124.5v-100c0 -39.333 -6.83301 -69.833 -20.5 -91.5s-28.5 -38.167 -44.5 -49.5
c-19.333 -12.667 -41 -20.667 -65 -24l140 -255c1.33301 -2.66699 1.5 -5 0.5 -7s-2.83301 -3 -5.5 -3h-30c-5.33301 0 -8.83301 1 -10.5 3s-3.16699 4.33301 -4.5 7l-135 250h-300zM155 655v-350h300c42.667 0 75 10.833 97 32.5s33 52.5 33 92.5v100
c0 40 -11 70.833 -33 92.5s-54.333 32.5 -97 32.5h-300zM350 790c-5.33301 0 -9.5 1 -12.5 3s-5.5 4.33301 -7.5 7l-110 145c-2 2.66699 -2.33301 5 -1 7s3.33301 3 6 3h20c5.33301 0 9.5 -1 12.5 -3s5.5 -4.33301 7.5 -7l88 -120h4l88 120c2 2.66699 4.5 5 7.5 7
s7.16699 3 12.5 3h20c2.66699 0 4.66699 -1 6 -3s1 -4.33301 -1 -7l-110 -145c-2 -2.66699 -4.5 -5 -7.5 -7s-7.16699 -3 -12.5 -3h-10z" />
    <glyph glyph-name="rcaron" unicode="&#x159;" horiz-adv-x="344" 
d="M332 490c0 -6.66699 -3.33203 -9.99902 -9.99902 -9.99902h-60c-40 0 -71.667 -11.333 -95 -34s-35 -53 -35 -91v-345c0 -6.66699 -3.33301 -10 -10 -10h-20c-6.66699 0 -10 3.33301 -10 10v490c0 6.66699 3.33301 10 10 10h20c6.66699 0 10 -3.33301 10 -10v-55h5
c5.33301 13.333 13.666 25.666 24.999 36.999c9.33301 9.33301 22 18 38 26s36.667 12 62 12h60c6.66699 0 10 -3.33301 10 -10v-20zM202.001 600.001c-5.33301 0 -9.5 1 -12.5 3s-5.5 4.33301 -7.5 7l-110 145c-2 2.66699 -2.33301 5 -1 7s3.33301 3 6 3h20
c5.33301 0 9.5 -1 12.5 -3s5.5 -4.33301 7.5 -7l88 -120h4l88 120c2 2.66699 4.5 5 7.5 7s7.16699 3 12.5 3h20c2.66699 0 4.66699 -1 6 -3s1 -4.33301 -1 -7l-110 -145c-2 -2.66699 -4.5 -5 -7.5 -7s-7.16699 -3 -12.5 -3h-10z" />
    <glyph glyph-name="Sacute" unicode="&#x15a;" horiz-adv-x="695" 
d="M560 200c0 22.667 -5.83301 40.833 -17.5 54.5s-27.5 23.834 -47.5 30.501l-300 100c-28 9.33301 -50.833 24.333 -68.5 45s-26.5 47.334 -26.5 80.001v30c0 52.667 15.333 94.167 46 124.5s73.667 45.5 129 45.5h155c55.333 0 98.333 -15.167 129 -45.5
s46 -71.833 46 -124.5v-35c0 -6.66699 -3.33301 -10 -10 -10h-25c-6.66699 0 -10 3.33301 -10 10v35c0 40 -11 70.833 -33 92.5s-54.333 32.5 -97 32.5h-155c-42.667 0 -75 -10.833 -97 -32.5s-33 -52.5 -33 -92.5v-30c0 -22.667 5.83301 -40.834 17.5 -54.501
s27.5 -23.834 47.5 -30.501l300 -100c28 -9.33301 50.833 -24.333 68.5 -45s26.5 -47.334 26.5 -80.001v-39c0 -53.333 -15.333 -95.166 -46 -125.499s-73.667 -45.5 -129 -45.5h-175c-55.333 0 -98.333 15.167 -129 45.5s-46 71.833 -46 124.5v35
c0 6.66699 3.33301 10 10 10h25c6.66699 0 10 -3.33301 10 -10v-35c0 -40 11 -70.833 33 -92.5s54.333 -32.5 97 -32.5h175c42.667 0 75 10.833 97 32.5s33 52.5 33 92.5v40zM360 799.999c-1.33301 -2.66699 -2.83301 -5 -4.5 -7s-5.16699 -3 -10.5 -3h-15
c-2.66699 0 -4.5 1 -5.5 3s-0.833008 4.33301 0.5 7l75 135c1.33301 2.66699 2.83301 5 4.5 7s5.16699 3 10.5 3h30c2.66699 0 4.5 -1 5.5 -3s0.833008 -4.33301 -0.5 -7z" />
    <glyph glyph-name="sacute" unicode="&#x15b;" horiz-adv-x="530" 
d="M460 135c0 -46 -13 -81.667 -39 -107s-63 -38 -111 -38h-95c-50 0 -88.333 13 -115 39s-40 63 -40 111v10c0 6.66699 3.33301 10 10 10h20c6.66699 0 10 -3.33301 10 -10v-10c0 -35.333 9.66699 -62.5 29 -81.5s48 -28.5 86 -28.5h95c35.333 0 62.5 9.33301 81.5 28
s28.5 44.334 28.5 77.001c0 17.333 -4.5 31.166 -13.5 41.499s-21.167 18.166 -36.5 23.499l-225 75c-22.667 7.33301 -40.834 18.833 -54.501 34.5s-20.5 37.5 -20.5 65.5c0 46 13 81.667 39 107s63 38 111 38h85c50 0 88.333 -13 115 -39s40 -63 40 -111v-10
c0 -6.66699 -3.33301 -10 -10 -10h-20c-6.66699 0 -10 3.33301 -10 10v10c0 35.333 -9.66699 62.5 -29 81.5s-48 28.5 -86 28.5h-85c-35.333 0 -62.5 -9.33301 -81.5 -28s-28.5 -44.334 -28.5 -77.001c0 -17.333 4.5 -31.166 13.5 -41.499s21.167 -18.166 36.5 -23.499
l225 -75c22.667 -7.33301 40.834 -18.833 54.501 -34.5s20.5 -37.5 20.5 -65.5zM275 610c-1.33301 -2.66699 -2.83301 -5 -4.5 -7s-5.16699 -3 -10.5 -3h-15c-2.66699 0 -4.5 1 -5.5 3s-0.833008 4.33301 0.5 7l75 135c1.33301 2.66699 2.83301 5 4.5 7s5.16699 3 10.5 3h30
c2.66699 0 4.5 -1 5.5 -3s0.833008 -4.33301 -0.5 -7z" />
    <glyph glyph-name="Scedilla" unicode="&#x15e;" horiz-adv-x="695" 
d="M315 -105c-6.66699 0 -10 3.33203 -10 9.99902v20c0 7.33301 1.66699 14.333 5 21c1.33301 3.33301 3 6.33301 5 9l20 35h-80c-55.333 0 -98.333 15.167 -129 45.5s-46 71.833 -46 124.5v35c0 6.66699 3.33301 10 10 10h25c6.66699 0 10 -3.33301 10 -10v-35
c0 -40 11 -70.833 33 -92.5s54.333 -32.5 97 -32.5h175c42.667 0 75 10.833 97 32.5s33 52.5 33 92.5v40c0 22.667 -5.83301 40.834 -17.5 54.501s-27.5 23.834 -47.5 30.501l-300 100c-28 9.33301 -50.833 24.333 -68.5 45s-26.5 47.334 -26.5 80.001v30
c0 52.667 15.333 94.167 46 124.5s73.667 45.5 129 45.5h155c55.333 0 98.333 -15.167 129 -45.5s46 -71.833 46 -124.5v-35c0 -6.66699 -3.33301 -10 -10 -10h-25c-6.66699 0 -10 3.33301 -10 10v35c0 40 -11 70.833 -33 92.5s-54.333 32.5 -97 32.5h-155
c-42.667 0 -75 -10.833 -97 -32.5s-33 -52.5 -33 -92.5v-30c0 -22.667 5.83301 -40.834 17.5 -54.501s27.5 -23.834 47.5 -30.501l300 -100c28 -9.33301 50.833 -24.333 68.5 -45s26.5 -47.334 26.5 -80.001v-39c0 -53.333 -15.333 -95.166 -46 -125.499
s-73.667 -45.5 -129 -45.5h-65l-30 -60h20c30 0 53.333 -7.83301 70 -23.5s25 -36.167 25 -61.5s-8.33301 -45.833 -25 -61.5s-40 -23.5 -70 -23.5h-60c-6.66699 0 -10 3.33301 -10 10v15c0 6.66699 3.33301 10 10 10h60c20 0 35 4.5 45 13.5s15 21.167 15 36.5
s-5 27.5 -15 36.5s-25 13.5 -45 13.5h-40z" />
    <glyph glyph-name="scedilla" unicode="&#x15f;" horiz-adv-x="530" 
d="M225 -105c-6.66699 0 -10 3.33301 -10 10v20c0 7.33301 1.66699 14.333 5 21c1.33301 3.33301 3 6.33301 5 9l20 35h-30c-50 0 -88.333 13 -115 39s-40 63 -40 111v10c0 6.66699 3.33301 10 10 10h20c6.66699 0 10 -3.33301 10 -10v-10c0 -35.333 9.66699 -62.5 29 -81.5
s48 -28.5 86 -28.5h95c35.333 0 62.5 9.33301 81.5 28s28.5 44.334 28.5 77.001c0 17.333 -4.5 31.166 -13.5 41.499s-21.167 18.166 -36.5 23.499l-225 75c-22.667 7.33301 -40.834 18.833 -54.501 34.5s-20.5 37.5 -20.5 65.5c0 46 13 81.667 39 107s63 38 111 38h85
c50 0 88.333 -13 115 -39s40 -63 40 -111v-10c0 -6.66699 -3.33301 -10 -10 -10h-20c-6.66699 0 -10 3.33301 -10 10v10c0 35.333 -9.66699 62.5 -29 81.5s-48 28.5 -86 28.5h-85c-35.333 0 -62.5 -9.33301 -81.5 -28s-28.5 -44.334 -28.5 -77.001
c0 -17.333 4.5 -31.166 13.5 -41.499s21.167 -18.166 36.5 -23.499l225 -75c22.667 -7.33301 40.834 -18.833 54.501 -34.5s20.5 -37.5 20.5 -65.5c0 -46 -13 -81.667 -39 -107s-63 -38 -111 -38h-35l-30 -60h20c30 0 53.333 -7.83301 70 -23.5s25 -36.167 25 -61.5
s-8.33301 -45.833 -25 -61.5s-40 -23.5 -70 -23.5h-60c-6.66699 0 -10 3.33301 -10 10v15c0 6.66699 3.33301 10 10 10h60c20 0 35 4.5 45 13.5s15 21.167 15 36.5s-5 27.5 -15 36.5s-25 13.5 -45 13.5h-40z" />
    <glyph glyph-name="Scaron" unicode="&#x160;" horiz-adv-x="695" 
d="M560 200c0 22.667 -5.83301 40.833 -17.5 54.5s-27.5 23.834 -47.5 30.501l-300 100c-28 9.33301 -50.833 24.333 -68.5 45s-26.5 47.334 -26.5 80.001v30c0 52.667 15.333 94.167 46 124.5s73.667 45.5 129 45.5h155c55.333 0 98.333 -15.167 129 -45.5
s46 -71.833 46 -124.5v-35c0 -6.66699 -3.33301 -10 -10 -10h-25c-6.66699 0 -10 3.33301 -10 10v35c0 40 -11 70.833 -33 92.5s-54.333 32.5 -97 32.5h-155c-42.667 0 -75 -10.833 -97 -32.5s-33 -52.5 -33 -92.5v-30c0 -22.667 5.83301 -40.834 17.5 -54.501
s27.5 -23.834 47.5 -30.501l300 -100c28 -9.33301 50.833 -24.333 68.5 -45s26.5 -47.334 26.5 -80.001v-39c0 -53.333 -15.333 -95.166 -46 -125.499s-73.667 -45.5 -129 -45.5h-175c-55.333 0 -98.333 15.167 -129 45.5s-46 71.833 -46 124.5v35
c0 6.66699 3.33301 10 10 10h25c6.66699 0 10 -3.33301 10 -10v-35c0 -40 11 -70.833 33 -92.5s54.333 -32.5 97 -32.5h175c42.667 0 75 10.833 97 32.5s33 52.5 33 92.5v40zM345 789.999c-5.33301 0 -9.5 1 -12.5 3s-5.5 4.33301 -7.5 7l-110 145
c-2 2.66699 -2.33301 5 -1 7s3.33301 3 6 3h20c5.33301 0 9.5 -1 12.5 -3s5.5 -4.33301 7.5 -7l88 -120h4l88 120c2 2.66699 4.5 5 7.5 7s7.16699 3 12.5 3h20c2.66699 0 4.66699 -1 6 -3s1 -4.33301 -1 -7l-110 -145c-2 -2.66699 -4.5 -5 -7.5 -7s-7.16699 -3 -12.5 -3h-10
z" />
    <glyph glyph-name="scaron" unicode="&#x161;" horiz-adv-x="530" 
d="M460 135c0 -46 -13 -81.667 -39 -107s-63 -38 -111 -38h-95c-50 0 -88.333 13 -115 39s-40 63 -40 111v10c0 6.66699 3.33301 10 10 10h20c6.66699 0 10 -3.33301 10 -10v-10c0 -35.333 9.66699 -62.5 29 -81.5s48 -28.5 86 -28.5h95c35.333 0 62.5 9.33301 81.5 28
s28.5 44.334 28.5 77.001c0 17.333 -4.5 31.166 -13.5 41.499s-21.167 18.166 -36.5 23.499l-225 75c-22.667 7.33301 -40.834 18.833 -54.501 34.5s-20.5 37.5 -20.5 65.5c0 46 13 81.667 39 107s63 38 111 38h85c50 0 88.333 -13 115 -39s40 -63 40 -111v-10
c0 -6.66699 -3.33301 -10 -10 -10h-20c-6.66699 0 -10 3.33301 -10 10v10c0 35.333 -9.66699 62.5 -29 81.5s-48 28.5 -86 28.5h-85c-35.333 0 -62.5 -9.33301 -81.5 -28s-28.5 -44.334 -28.5 -77.001c0 -17.333 4.5 -31.166 13.5 -41.499s21.167 -18.166 36.5 -23.499
l225 -75c22.667 -7.33301 40.834 -18.833 54.501 -34.5s20.5 -37.5 20.5 -65.5zM255 600c-5.33301 0 -9.5 1 -12.5 3s-5.5 4.33301 -7.5 7l-110 145c-2 2.66699 -2.33301 5 -1 7s3.33301 3 6 3h20c5.33301 0 9.5 -1 12.5 -3s5.5 -4.33301 7.5 -7l88 -120h4l88 120
c2 2.66699 4.5 5 7.5 7s7.16699 3 12.5 3h20c2.66699 0 4.66699 -1 6 -3s1 -4.33301 -1 -7l-110 -145c-2 -2.66699 -4.5 -5 -7.5 -7s-7.16699 -3 -12.5 -3h-10z" />
    <glyph glyph-name="Tcommaaccent" unicode="&#x162;" horiz-adv-x="565" 
d="M305 10c0 -6.66699 -3.33301 -10 -10 -10h-25c-6.66699 -0 -10 3.33301 -10 10v645h-240c-6.66699 0 -10 3.33301 -10 10v25c0 6.66699 3.33301 10 10 10h525c6.66699 0 10 -3.33301 10 -10v-25c0 -6.66699 -3.33301 -10 -10 -10h-240v-645zM310 -120
c0 -2.66699 -0.332031 -5.16699 -0.999023 -7.5s-1.33398 -4.5 -2.00098 -6.5c-0.666992 -2.66699 -1.33398 -4.66699 -2.00098 -6l-45 -90c-1.33301 -2.66699 -2.83301 -5 -4.5 -7s-5.16699 -3 -10.5 -3s-8.66602 1 -9.99902 3s-1.33301 4.33301 0 7l45 90h-10
c-6.66699 0 -10 3.33301 -10 10v30c0 6.66699 3.33301 10 10 10h30c6.66699 0 10 -3.33301 10 -10v-20z" />
    <glyph glyph-name="tcommaaccent" unicode="&#x163;" horiz-adv-x="385" 
d="M315 480c0 -6.66699 -3.33301 -10 -10 -10h-120v-330c0 -66.667 35 -100 105 -100h45c6.66699 0 10 -3.33301 10 -10v-20c0 -6.66699 -3.33301 -10 -10 -10h-45c-48 0 -84.167 12 -108.5 36s-36.5 58.667 -36.5 104v330h-95c-6.66699 0 -10 3.33301 -10 10v20
c0 6.66699 3.33301 10 10 10h95v110c0 6.66699 3.33301 10 10 10h20c6.66699 0 10 -3.33301 10 -10v-110h120c6.66699 0 10 -3.33301 10 -10v-20zM265 -130c0 -2.66699 -0.332031 -5.16699 -0.999023 -7.5s-1.33398 -4.5 -2.00098 -6.5
c-0.666992 -2.66699 -1.33398 -4.66699 -2.00098 -6l-45 -90c-1.33301 -2.66699 -2.83301 -5 -4.5 -7s-5.16699 -3 -10.5 -3s-8.66602 1 -9.99902 3s-1.33301 4.33301 0 7l45 90h-10c-6.66699 0 -10 3.33301 -10 10v30c0 6.66699 3.33301 10 10 10h30
c6.66699 0 10 -3.33301 10 -10v-20z" />
    <glyph glyph-name="Tcaron" unicode="&#x164;" horiz-adv-x="565" 
d="M305 10c0 -6.66699 -3.33301 -10 -10 -10h-25c-6.66699 -0 -10 3.33301 -10 10v645h-240c-6.66699 0 -10 3.33301 -10 10v25c0 6.66699 3.33301 10 10 10h525c6.66699 0 10 -3.33301 10 -10v-25c0 -6.66699 -3.33301 -10 -10 -10h-240v-645zM280 790
c-5.33301 0 -9.5 1 -12.5 3s-5.5 4.33301 -7.5 7l-110 145c-2 2.66699 -2.33301 5 -1 7s3.33301 3 6 3h20c5.33301 0 9.5 -1 12.5 -3s5.5 -4.33301 7.5 -7l88 -120h4l88 120c2 2.66699 4.5 5 7.5 7s7.16699 3 12.5 3h20c2.66699 0 4.66699 -1 6 -3s1 -4.33301 -1 -7
l-110 -145c-2 -2.66699 -4.5 -5 -7.5 -7s-7.16699 -3 -12.5 -3h-10z" />
    <glyph glyph-name="tcaron" unicode="&#x165;" horiz-adv-x="390" 
d="M315 480c0 -6.66699 -3.33301 -10 -10 -10h-120v-330c0 -66.667 35 -100 105 -100h45c6.66699 0 10 -3.33301 10 -10v-20c0 -6.66699 -3.33301 -10 -10 -10h-45c-48 0 -84.167 12 -108.5 36s-36.5 58.667 -36.5 104v330h-95c-6.66699 0 -10 3.33301 -10 10v20
c0 6.66699 3.33301 10 10 10h95v110c0 6.66699 3.33301 10 10 10h20c6.66699 0 10 -3.33301 10 -10v-110h120c6.66699 0 10 -3.33301 10 -10v-20zM410 670c0 -2.66699 -0.332031 -5.16699 -0.999023 -7.5s-1.33398 -4.5 -2.00098 -6.5
c-0.666992 -2.66699 -1.33398 -4.66699 -2.00098 -6l-45 -90c-1.33301 -2.66699 -2.83301 -5 -4.5 -7s-5.16699 -3 -10.5 -3s-8.66602 1 -9.99902 3s-1.33301 4.33301 0 7l45 90h-10c-6.66699 0 -10 3.33301 -10 10v30c0 6.66699 3.33301 10 10 10h30
c6.66699 0 10 -3.33301 10 -10v-20z" />
    <glyph glyph-name="Umacron" unicode="&#x16a;" horiz-adv-x="760" 
d="M650 160c0 -52.667 -15.333 -94.167 -46 -124.5s-73.667 -45.5 -129 -45.5h-190c-55.333 0 -98.333 15.167 -129 45.5s-46 71.833 -46 124.5v530c0 6.66699 3.33301 10 10 10h25c6.66699 0 10 -3.33301 10 -10v-530c0 -40 11 -70.833 33 -92.5s54.333 -32.5 97 -32.5h190
c42.667 0 75 10.833 97 32.5s33 52.5 33 92.5v530c0 6.66699 3.33301 10 10 10h25c6.66699 0 10 -3.33301 10 -10v-530zM260 840c-6.66699 0 -10 3.33301 -10 10v20c0 6.66699 3.33301 10 10 10h240c6.66699 0 10 -3.33301 10 -10v-20c0 -6.66699 -3.33301 -10 -10 -10h-240
z" />
    <glyph glyph-name="umacron" unicode="&#x16b;" horiz-adv-x="580" 
d="M245 -10c-50 0 -88.334 13 -115.001 39s-40 63 -40 111v360c0 6.66699 3.33301 10 10 10h20c6.66699 0 10 -3.33301 10 -10v-360c0 -35.333 9.66699 -62.5 29 -81.5s48 -28.5 86 -28.5h75c40 0 71.667 11.333 95 34s35 53 35 91v345c0 6.66699 3.33301 10 10 10h20
c6.66699 0 10 -3.33301 10 -10v-490c0 -6.66699 -3.33301 -10 -10 -10h-20c-6.66699 -0 -10 3.33301 -10 10v55h-5c-5.33301 -14 -13.666 -26.667 -24.999 -38c-9.33301 -9.33301 -22 -17.833 -38 -25.5s-36.667 -11.5 -62 -11.5h-75zM169.999 651
c-6.66699 0 -10 3.33301 -10 10v20c0 6.66699 3.33301 10 10 10h240c6.66699 0 10 -3.33301 10 -10v-20c0 -6.66699 -3.33301 -10 -10 -10h-240z" />
    <glyph glyph-name="Uring" unicode="&#x16e;" horiz-adv-x="760" 
d="M650 160c0 -52.667 -15.333 -94.167 -46 -124.5s-73.667 -45.5 -129 -45.5h-190c-55.333 0 -98.333 15.167 -129 45.5s-46 71.833 -46 124.5v530c0 6.66699 3.33301 10 10 10h25c6.66699 0 10 -3.33301 10 -10v-530c0 -40 11 -70.833 33 -92.5s54.333 -32.5 97 -32.5h190
c42.667 0 75 10.833 97 32.5s33 52.5 33 92.5v530c0 6.66699 3.33301 10 10 10h25c6.66699 0 10 -3.33301 10 -10v-530zM380 945c-20 0 -35.833 -5.66699 -47.5 -17s-17.5 -25.666 -17.5 -42.999v-10c0 -17.333 5.83301 -31.666 17.5 -42.999s27.5 -17 47.5 -17
s35.833 5.66699 47.5 17s17.5 25.666 17.5 42.999v10c0 17.333 -5.83301 31.666 -17.5 42.999s-27.5 17 -47.5 17zM380 780c-30 0 -54.167 8.83301 -72.5 26.5s-27.5 40.5 -27.5 68.5v10c0 28 9.16699 50.833 27.5 68.5s42.5 26.5 72.5 26.5s54.167 -8.83301 72.5 -26.5
s27.5 -40.5 27.5 -68.5v-10c0 -28 -9.16699 -50.833 -27.5 -68.5s-42.5 -26.5 -72.5 -26.5z" />
    <glyph glyph-name="uring" unicode="&#x16f;" horiz-adv-x="580" 
d="M245 -10c-50 0 -88.334 13 -115.001 39s-40 63 -40 111v360c0 6.66699 3.33301 10 10 10h20c6.66699 0 10 -3.33301 10 -10v-360c0 -35.333 9.66699 -62.5 29 -81.5s48 -28.5 86 -28.5h75c40 0 71.667 11.333 95 34s35 53 35 91v345c0 6.66699 3.33301 10 10 10h20
c6.66699 0 10 -3.33301 10 -10v-490c0 -6.66699 -3.33301 -10 -10 -10h-20c-6.66699 -0 -10 3.33301 -10 10v55h-5c-5.33301 -14 -13.666 -26.667 -24.999 -38c-9.33301 -9.33301 -22 -17.833 -38 -25.5s-36.667 -11.5 -62 -11.5h-75zM289.999 755
c-20 0 -35.833 -5.66699 -47.5 -17s-17.5 -25.666 -17.5 -42.999v-10c0 -17.333 5.83301 -31.666 17.5 -42.999s27.5 -17 47.5 -17s35.833 5.66699 47.5 17s17.5 25.666 17.5 42.999v10c0 17.333 -5.83301 31.666 -17.5 42.999s-27.5 17 -47.5 17zM289.999 590
c-30 0 -54.167 8.83301 -72.5 26.5s-27.5 40.5 -27.5 68.5v10c0 28 9.16699 50.833 27.5 68.5s42.5 26.5 72.5 26.5s54.167 -8.83301 72.5 -26.5s27.5 -40.5 27.5 -68.5v-10c0 -28 -9.16699 -50.833 -27.5 -68.5s-42.5 -26.5 -72.5 -26.5z" />
    <glyph glyph-name="Uhungarumlaut" unicode="&#x170;" horiz-adv-x="760" 
d="M650 160c0 -52.667 -15.333 -94.167 -46 -124.5s-73.667 -45.5 -129 -45.5h-190c-55.333 0 -98.333 15.167 -129 45.5s-46 71.833 -46 124.5v530c0 6.66699 3.33301 10 10 10h25c6.66699 0 10 -3.33301 10 -10v-530c0 -40 11 -70.833 33 -92.5s54.333 -32.5 97 -32.5h190
c42.667 0 75 10.833 97 32.5s33 52.5 33 92.5v530c0 6.66699 3.33301 10 10 10h25c6.66699 0 10 -3.33301 10 -10v-530zM320 800c-1.33301 -2.66699 -2.83301 -5 -4.5 -7s-5.16699 -3 -10.5 -3h-15c-2.66699 0 -4.5 1 -5.5 3s-0.833008 4.33301 0.5 7l70 135
c1.33301 2.66699 2.83301 5 4.5 7s5.16699 3 10.5 3h25c2.66699 0 4.5 -1 5.5 -3s0.833008 -4.33301 -0.5 -7zM460 800c-1.33301 -2.66699 -2.83301 -5 -4.5 -7s-5.16699 -3 -10.5 -3h-15c-2.66699 0 -4.5 1 -5.5 3s-0.833008 4.33301 0.5 7l70 135
c1.33301 2.66699 2.83301 5 4.5 7s5.16699 3 10.5 3h25c2.66699 0 4.5 -1 5.5 -3s0.833008 -4.33301 -0.5 -7z" />
    <glyph glyph-name="uhungarumlaut" unicode="&#x171;" horiz-adv-x="580" 
d="M245 -10c-50 0 -88.334 13 -115.001 39s-40 63 -40 111v360c0 6.66699 3.33301 10 10 10h20c6.66699 0 10 -3.33301 10 -10v-360c0 -35.333 9.66699 -62.5 29 -81.5s48 -28.5 86 -28.5h75c40 0 71.667 11.333 95 34s35 53 35 91v345c0 6.66699 3.33301 10 10 10h20
c6.66699 0 10 -3.33301 10 -10v-490c0 -6.66699 -3.33301 -10 -10 -10h-20c-6.66699 -0 -10 3.33301 -10 10v55h-5c-5.33301 -14 -13.666 -26.667 -24.999 -38c-9.33301 -9.33301 -22 -17.833 -38 -25.5s-36.667 -11.5 -62 -11.5h-75zM234.999 600
c-1.33301 -2.66699 -2.83301 -5 -4.5 -7s-5.16699 -3 -10.5 -3h-15c-2.66699 0 -4.5 1 -5.5 3s-0.833008 4.33301 0.5 7l70 135c1.33301 2.66699 2.83301 5 4.5 7s5.16699 3 10.5 3h25c2.66699 0 4.5 -1 5.5 -3s0.833008 -4.33301 -0.5 -7zM374.999 600
c-1.33301 -2.66699 -2.83301 -5 -4.5 -7s-5.16699 -3 -10.5 -3h-15c-2.66699 0 -4.5 1 -5.5 3s-0.833008 4.33301 0.5 7l70 135c1.33301 2.66699 2.83301 5 4.5 7s5.16699 3 10.5 3h25c2.66699 0 4.5 -1 5.5 -3s0.833008 -4.33301 -0.5 -7z" />
    <glyph glyph-name="Uogonek" unicode="&#x172;" horiz-adv-x="760" 
d="M650 160c0 -52.667 -15.332 -94.165 -45.999 -124.498s-73.667 -45.5 -129 -45.5h-40c-18 -8 -34 -17.667 -48 -29c-12 -9.33301 -22.833 -21.333 -32.5 -36s-14.5 -31.334 -14.5 -50.001c0 -15.333 5 -27.5 15 -36.5s25 -13.5 45 -13.5h45c6.66699 0 10 -3.33301 10 -10
v-15c0 -6.66699 -3.33301 -10 -10 -10h-45c-30 0 -53.333 7.83301 -70 23.5s-25 36.167 -25 61.5c0 17.333 4.66699 33.166 14 47.499s19.666 26.5 30.999 36.5c12.667 12 27.667 22.333 45 31h-110c-55.333 0 -98.333 15.167 -129 45.5s-46 71.833 -46 124.5v530
c0 6.66699 3.33301 10 10 10h25c6.66699 0 10 -3.33301 10 -10v-530c0 -40 11 -70.833 33 -92.5s54.333 -32.5 97 -32.5h190c42.667 0 75 10.833 97 32.5s33 52.5 33 92.5v530c0 6.66699 3.33301 10 10 10h25c6.66699 0 10 -3.33301 10 -10v-530z" />
    <glyph glyph-name="uogonek" unicode="&#x173;" horiz-adv-x="580" 
d="M450 65h-5c-5.33301 -14 -13.666 -26.667 -24.999 -38c-9.33301 -9.33301 -22 -17.833 -38 -25.5s-36.667 -11.5 -62 -11.5h-75c-50 0 -88.333 13 -115 39s-40 63 -40 111v360c0 6.66699 3.33301 10 10 10h20c6.66699 0 10 -3.33301 10 -10v-360
c0 -35.333 9.66699 -62.5 29 -81.5s48 -28.5 86 -28.5h75c40 0 71.667 11.333 95 34s35 53 35 91v345c0 6.66699 3.33301 10 10 10h20c6.66699 0 10 -3.33301 10 -10v-490c0 -6.66699 -3.33301 -10 -10 -10c-20.667 -8.66699 -39 -19 -55 -31
c-14 -10.667 -26.667 -23.667 -38 -39s-17 -33.666 -17 -54.999c0 -15.333 5 -27.5 15 -36.5s25 -13.5 45 -13.5h45c6.66699 0 10 -3.33301 10 -10v-15c0 -6.66699 -3.33301 -10 -10 -10h-45c-30 0 -53.333 7.83301 -70 23.5s-25 36.167 -25 61.5
c0 22.667 6.16699 42.167 18.5 58.5s26.166 29.833 41.499 40.5c17.333 12 37.333 22.333 60 31c-1.33301 0 -2.33301 0.333008 -3 1c-1.33301 1.33301 -2 2.66602 -2 3.99902v55z" />
    <glyph glyph-name="Ydieresis" unicode="&#x178;" horiz-adv-x="619" 
d="M312 300l235 390c1.33301 2.66699 2.83301 5 4.5 7s5.16699 3 10.5 3h30c2.66699 0 4.66699 -0.833008 6 -2.5s1 -4.16699 -1 -7.5l-265 -440v-240c0 -6.66699 -3.33301 -10 -10 -10h-25c-6.66699 -0 -10 3.33301 -10 10v240l-265 440
c-2 3.33301 -2.33301 5.83301 -1 7.5s3.33301 2.5 6 2.5h30c5.33301 0 8.83301 -1 10.5 -3s3.16699 -4.33301 4.5 -7l235 -390h5zM245 890c6.66699 0 10 -3.33301 10 -10v-30c0 -6.66699 -3.33301 -10 -10 -10h-30c-6.66699 0 -10 3.33301 -10 10v30
c0 6.66699 3.33301 10 10 10h30zM410 890c6.66699 0 10 -3.33301 10 -10v-30c0 -6.66699 -3.33301 -10 -10 -10h-30c-6.66699 0 -10 3.33301 -10 10v30c0 6.66699 3.33301 10 10 10h30z" />
    <glyph glyph-name="Zacute" unicode="&#x179;" horiz-adv-x="605" 
d="M100 50v-5.00098h455c6.66699 0 10 -3.33301 10 -10v-25c0 -6.66699 -3.33301 -10 -10 -10h-505c-6.66699 0 -10 3.33301 -10 10v30c0 4.66699 1.66699 9.33398 5 14.001c1.33301 2.66699 3 4.66699 5 6l455 590v5h-445c-6.66699 0 -10 3.33301 -10 10v25
c0 6.66699 3.33301 10 10 10h495c6.66699 0 10 -3.33301 10 -10v-30c0 -2.66699 -0.5 -5.16699 -1.5 -7.5s-2.16699 -4.5 -3.5 -6.5c-2 -2.66699 -3.66699 -4.66699 -5 -6zM325 799.999c-1.33301 -2.66699 -2.83301 -5 -4.5 -7s-5.16699 -3 -10.5 -3h-15
c-2.66699 0 -4.5 1 -5.5 3s-0.833008 4.33301 0.5 7l75 135c1.33301 2.66699 2.83301 5 4.5 7s5.16699 3 10.5 3h30c2.66699 0 4.5 -1 5.5 -3s0.833008 -4.33301 -0.5 -7z" />
    <glyph glyph-name="zacute" unicode="&#x17a;" horiz-adv-x="450" 
d="M85 45v-5.00098h325c6.66699 0 10 -3.33301 10 -10v-20c0 -6.66699 -3.33301 -10 -10 -10h-370c-6.66699 0 -10 3.33301 -10 10v25c0 4.66699 1.66699 9.33398 5 14.001c1.33301 2.66699 3 4.66699 5 6l325 410v5h-315c-6.66699 0 -10 3.33301 -10 10v20
c0 6.66699 3.33301 10 10 10h360c6.66699 0 10 -3.33301 10 -10v-25c0 -2.66699 -0.5 -5.16699 -1.5 -7.5s-2.16699 -4.5 -3.5 -6.5c-2 -2.66699 -3.66699 -4.66699 -5 -6zM245 599.999c-1.33301 -2.66699 -2.83301 -5 -4.5 -7s-5.16699 -3 -10.5 -3h-15
c-2.66699 0 -4.5 1 -5.5 3s-0.833008 4.33301 0.5 7l75 135c1.33301 2.66699 2.83301 5 4.5 7s5.16699 3 10.5 3h30c2.66699 0 4.5 -1 5.5 -3s0.833008 -4.33301 -0.5 -7z" />
    <glyph glyph-name="Zdotaccent" unicode="&#x17b;" horiz-adv-x="605" 
d="M100 50v-5.00098h455c6.66699 0 10 -3.33301 10 -10v-25c0 -6.66699 -3.33301 -10 -10 -10h-505c-6.66699 0 -10 3.33301 -10 10v30c0 4.66699 1.66699 9.33398 5 14.001c1.33301 2.66699 3 4.66699 5 6l455 590v5h-445c-6.66699 0 -10 3.33301 -10 10v25
c0 6.66699 3.33301 10 10 10h495c6.66699 0 10 -3.33301 10 -10v-30c0 -2.66699 -0.5 -5.16699 -1.5 -7.5s-2.16699 -4.5 -3.5 -6.5c-2 -2.66699 -3.66699 -4.66699 -5 -6zM320 889.999c6.66699 0 10 -3.33301 10 -10v-30c0 -6.66699 -3.33301 -10 -10 -10h-30
c-6.66699 0 -10 3.33301 -10 10v30c0 6.66699 3.33301 10 10 10h30z" />
    <glyph glyph-name="zdotaccent" unicode="&#x17c;" horiz-adv-x="450" 
d="M85 45v-5.00098h325c6.66699 0 10 -3.33301 10 -10v-20c0 -6.66699 -3.33301 -10 -10 -10h-370c-6.66699 0 -10 3.33301 -10 10v25c0 4.66699 1.66699 9.33398 5 14.001c1.33301 2.66699 3 4.66699 5 6l325 410v5h-315c-6.66699 0 -10 3.33301 -10 10v20
c0 6.66699 3.33301 10 10 10h360c6.66699 0 10 -3.33301 10 -10v-25c0 -2.66699 -0.5 -5.16699 -1.5 -7.5s-2.16699 -4.5 -3.5 -6.5c-2 -2.66699 -3.66699 -4.66699 -5 -6zM245 699.999c6.66699 0 10 -3.33301 10 -10v-30c0 -6.66699 -3.33301 -10 -10 -10h-30
c-6.66699 0 -10 3.33301 -10 10v30c0 6.66699 3.33301 10 10 10h30z" />
    <glyph glyph-name="Zcaron" unicode="&#x17d;" horiz-adv-x="605" 
d="M100 50v-5.00098h455c6.66699 0 10 -3.33301 10 -10v-25c0 -6.66699 -3.33301 -10 -10 -10h-505c-6.66699 0 -10 3.33301 -10 10v30c0 4.66699 1.66699 9.33398 5 14.001c1.33301 2.66699 3 4.66699 5 6l455 590v5h-445c-6.66699 0 -10 3.33301 -10 10v25
c0 6.66699 3.33301 10 10 10h495c6.66699 0 10 -3.33301 10 -10v-30c0 -2.66699 -0.5 -5.16699 -1.5 -7.5s-2.16699 -4.5 -3.5 -6.5c-2 -2.66699 -3.66699 -4.66699 -5 -6zM305 789.999c-5.33301 0 -9.5 1 -12.5 3s-5.5 4.33301 -7.5 7l-110 145c-2 2.66699 -2.33301 5 -1 7
s3.33301 3 6 3h20c5.33301 0 9.5 -1 12.5 -3s5.5 -4.33301 7.5 -7l88 -120h4l88 120c2 2.66699 4.5 5 7.5 7s7.16699 3 12.5 3h20c2.66699 0 4.66699 -1 6 -3s1 -4.33301 -1 -7l-110 -145c-2 -2.66699 -4.5 -5 -7.5 -7s-7.16699 -3 -12.5 -3h-10z" />
    <glyph glyph-name="zcaron" unicode="&#x17e;" horiz-adv-x="450" 
d="M85 45v-5.00098h325c6.66699 0 10 -3.33301 10 -10v-20c0 -6.66699 -3.33301 -10 -10 -10h-370c-6.66699 0 -10 3.33301 -10 10v25c0 4.66699 1.66699 9.33398 5 14.001c1.33301 2.66699 3 4.66699 5 6l325 410v5h-315c-6.66699 0 -10 3.33301 -10 10v20
c0 6.66699 3.33301 10 10 10h360c6.66699 0 10 -3.33301 10 -10v-25c0 -2.66699 -0.5 -5.16699 -1.5 -7.5s-2.16699 -4.5 -3.5 -6.5c-2 -2.66699 -3.66699 -4.66699 -5 -6zM220 589.999c-5.33301 0 -9.5 1 -12.5 3s-5.5 4.33301 -7.5 7l-110 145c-2 2.66699 -2.33301 5 -1 7
s3.33301 3 6 3h20c5.33301 0 9.5 -1 12.5 -3s5.5 -4.33301 7.5 -7l88 -120h4l88 120c2 2.66699 4.5 5 7.5 7s7.16699 3 12.5 3h20c2.66699 0 4.66699 -1 6 -3s1 -4.33301 -1 -7l-110 -145c-2 -2.66699 -4.5 -5 -7.5 -7s-7.16699 -3 -12.5 -3h-10z" />
    <glyph glyph-name="florin" unicode="&#x192;" horiz-adv-x="355" 
d="M195 480h120c6.66699 0 10 -3.33301 10 -10v-20c0 -6.66699 -3.33301 -10 -10 -10h-120v-500c0 -45.333 -12.167 -80 -36.5 -104s-60.5 -36 -108.5 -36h-30c-6.66699 0 -10 3.33301 -10 10v20c0 6.66699 3.33301 10 10 10h30c70 0 105 33.333 105 100v500h-95
c-6.66699 0 -10 3.33301 -10 10v20c0 6.66699 3.33301 10 10 10h95v80c0 45.333 12.167 80 36.5 104s60.5 36 108.5 36h45c6.66699 0 10 -3.33301 10 -10v-20c0 -6.66699 -3.33301 -10 -10 -10h-45c-70 0 -105 -33.333 -105 -100v-80z" />
    <glyph glyph-name="Scommaaccent" unicode="&#x218;" horiz-adv-x="695" 
d="M560 200c0 22.667 -5.83301 40.833 -17.5 54.5s-27.5 23.834 -47.5 30.501l-300 100c-28 9.33301 -50.833 24.333 -68.5 45s-26.5 47.334 -26.5 80.001v30c0 52.667 15.333 94.167 46 124.5s73.667 45.5 129 45.5h155c55.333 0 98.333 -15.167 129 -45.5
s46 -71.833 46 -124.5v-35c0 -6.66699 -3.33301 -10 -10 -10h-25c-6.66699 0 -10 3.33301 -10 10v35c0 40 -11 70.833 -33 92.5s-54.333 32.5 -97 32.5h-155c-42.667 0 -75 -10.833 -97 -32.5s-33 -52.5 -33 -92.5v-30c0 -22.667 5.83301 -40.834 17.5 -54.501
s27.5 -23.834 47.5 -30.501l300 -100c28 -9.33301 50.833 -24.333 68.5 -45s26.5 -47.334 26.5 -80.001v-39c0 -53.333 -15.333 -95.166 -46 -125.499s-73.667 -45.5 -129 -45.5h-175c-55.333 0 -98.333 15.167 -129 45.5s-46 71.833 -46 124.5v35
c0 6.66699 3.33301 10 10 10h25c6.66699 0 10 -3.33301 10 -10v-35c0 -40 11 -70.833 33 -92.5s54.333 -32.5 97 -32.5h175c42.667 0 75 10.833 97 32.5s33 52.5 33 92.5v40zM380 -120.001c0 -2.66699 -0.332031 -5.16699 -0.999023 -7.5s-1.33398 -4.5 -2.00098 -6.5
c-0.666992 -2.66699 -1.33398 -4.66699 -2.00098 -6l-45 -90c-1.33301 -2.66699 -2.83301 -5 -4.5 -7s-5.16699 -3 -10.5 -3s-8.66602 1 -9.99902 3s-1.33301 4.33301 0 7l45 90h-10c-6.66699 0 -10 3.33301 -10 10v30c0 6.66699 3.33301 10 10 10h30
c6.66699 0 10 -3.33301 10 -10v-20z" />
    <glyph glyph-name="scommaaccent" unicode="&#x219;" horiz-adv-x="530" 
d="M460 135c0 -46 -13 -81.667 -39 -107s-63 -38 -111 -38h-95c-50 0 -88.333 13 -115 39s-40 63 -40 111v10c0 6.66699 3.33301 10 10 10h20c6.66699 0 10 -3.33301 10 -10v-10c0 -35.333 9.66699 -62.5 29 -81.5s48 -28.5 86 -28.5h95c35.333 0 62.5 9.33301 81.5 28
s28.5 44.334 28.5 77.001c0 17.333 -4.5 31.166 -13.5 41.499s-21.167 18.166 -36.5 23.499l-225 75c-22.667 7.33301 -40.834 18.833 -54.501 34.5s-20.5 37.5 -20.5 65.5c0 46 13 81.667 39 107s63 38 111 38h85c50 0 88.333 -13 115 -39s40 -63 40 -111v-10
c0 -6.66699 -3.33301 -10 -10 -10h-20c-6.66699 0 -10 3.33301 -10 10v10c0 35.333 -9.66699 62.5 -29 81.5s-48 28.5 -86 28.5h-85c-35.333 0 -62.5 -9.33301 -81.5 -28s-28.5 -44.334 -28.5 -77.001c0 -17.333 4.5 -31.166 13.5 -41.499s21.167 -18.166 36.5 -23.499
l225 -75c22.667 -7.33301 40.834 -18.833 54.501 -34.5s20.5 -37.5 20.5 -65.5zM290 -120c0 -2.66699 -0.332031 -5.16699 -0.999023 -7.5s-1.33398 -4.5 -2.00098 -6.5c-0.666992 -2.66699 -1.33398 -4.66699 -2.00098 -6l-45 -90c-1.33301 -2.66699 -2.83301 -5 -4.5 -7
s-5.16699 -3 -10.5 -3s-8.66602 1 -9.99902 3s-1.33301 4.33301 0 7l45 90h-10c-6.66699 0 -10 3.33301 -10 10v30c0 6.66699 3.33301 10 10 10h30c6.66699 0 10 -3.33301 10 -10v-20z" />
    <glyph glyph-name="afii57929" unicode="&#x2bc;" horiz-adv-x="137" 
d="M107 670c0 -2.66699 -0.332031 -5.16699 -0.999023 -7.5s-1.33398 -4.5 -2.00098 -6.5c-0.666992 -2.66699 -1.33398 -4.66699 -2.00098 -6l-45 -90c-1.33301 -2.66699 -2.83301 -5 -4.5 -7s-5.16699 -3 -10.5 -3s-8.66602 1 -9.99902 3s-1.33301 4.33301 0 7l45 90h-10
c-6.66699 0 -10 3.33301 -10 10v30c0 6.66699 3.33301 10 10 10h30c6.66699 0 10 -3.33301 10 -10v-20z" />
    <glyph glyph-name="circumflex" unicode="&#x2c6;" horiz-adv-x="334" 
d="M172 700c5.33301 0 9.5 -1 12.5 -3s5.5 -4.33301 7.5 -7l110 -145c2 -2.66699 2.33301 -5 1 -7s-3.33301 -3 -6 -3h-20c-5.33301 0 -9.5 1 -12.5 3s-5.5 4.33301 -7.5 7l-88 120h-4l-88 -120c-2 -2.66699 -4.5 -5 -7.5 -7s-7.16699 -3 -12.5 -3h-20
c-2.66699 0 -4.66699 1 -6 3s-1 4.33301 1 7l110 145c2 2.66699 4.5 5 7.5 7s7.16699 3 12.5 3h10z" />
    <glyph glyph-name="caron" unicode="&#x2c7;" horiz-adv-x="334" 
d="M162 535c-5.33301 0 -9.5 1 -12.5 3s-5.5 4.33301 -7.5 7l-110 145c-2 2.66699 -2.33301 5 -1 7s3.33301 3 6 3h20c5.33301 0 9.5 -1 12.5 -3s5.5 -4.33301 7.5 -7l88 -120h4l88 120c2 2.66699 4.5 5 7.5 7s7.16699 3 12.5 3h20c2.66699 0 4.66699 -1 6 -3
s1 -4.33301 -1 -7l-110 -145c-2 -2.66699 -4.5 -5 -7.5 -7s-7.16699 -3 -12.5 -3h-10z" />
    <glyph glyph-name="breve" unicode="&#x2d8;" horiz-adv-x="325" 
d="M185 610c25.333 0 43.333 5.33301 54 16s16 28.667 16 54v10c0 6.66699 3.33301 10 10 10h20c6.66699 0 10 -3.33301 10 -10v-10c0 -73.333 -36.667 -110 -110 -110h-45c-73.333 0 -110 36.667 -110 110v10c0 6.66699 3.33301 10 10 10h20c6.66699 0 10 -3.33301 10 -10
v-10c0 -25.333 5.33301 -43.333 16 -54s28.667 -16 54 -16h45z" />
    <glyph glyph-name="dotaccent" unicode="&#x2d9;" horiz-adv-x="110" 
d="M70 700c6.66699 0 10 -3.33301 10 -10v-30c0 -6.66699 -3.33301 -10 -10 -10h-30c-6.66699 0 -10 3.33301 -10 10v30c0 6.66699 3.33301 10 10 10h30z" />
    <glyph glyph-name="ring" unicode="&#x2da;" horiz-adv-x="260" 
d="M130 665c-20 0 -35.833 -5.66699 -47.5 -17s-17.5 -25.666 -17.5 -42.999v-10c0 -17.333 5.83301 -31.666 17.5 -42.999s27.5 -17 47.5 -17s35.833 5.66699 47.5 17s17.5 25.666 17.5 42.999v10c0 17.333 -5.83301 31.666 -17.5 42.999s-27.5 17 -47.5 17zM130 500
c-30 0 -54.167 8.83301 -72.5 26.5s-27.5 40.5 -27.5 68.5v10c0 28 9.16699 50.833 27.5 68.5s42.5 26.5 72.5 26.5s54.167 -8.83301 72.5 -26.5s27.5 -40.5 27.5 -68.5v-10c0 -28 -9.16699 -50.833 -27.5 -68.5s-42.5 -26.5 -72.5 -26.5z" />
    <glyph glyph-name="ogonek" unicode="&#x2db;" horiz-adv-x="210" 
d="M180 0c-21.333 -10 -40.666 -21.334 -57.999 -34.001c-14.667 -11.333 -27.834 -24.666 -39.501 -39.999s-17.5 -32.333 -17.5 -51c0 -15.333 5 -27.5 15 -36.5s25 -13.5 45 -13.5h45c6.66699 0 10 -3.33301 10 -10v-15c0 -6.66699 -3.33301 -10 -10 -10h-45
c-30 0 -53.333 7.83301 -70 23.5s-25 36.167 -25 61.5c0 20 5.66699 37.667 17 53s24 28.333 38 39c16 12 34.333 23 55 33h40z" />
    <glyph glyph-name="tilde" unicode="&#x2dc;" horiz-adv-x="310" 
d="M215 570c-16 0 -29.167 5 -39.5 15s-19.666 20.833 -27.999 32.5l-24 32.5c-7.66699 10 -17.167 15 -28.5 15c-20 0 -30 -10 -30 -30v-55c0 -6.66699 -3.33301 -10 -10 -10h-15c-6.66699 0 -10 3.33301 -10 10v55c0 20 5.83301 35.833 17.5 47.5s27.5 17.5 47.5 17.5
c16 0 29.167 -5 39.5 -15s19.666 -20.833 27.999 -32.5l24 -32.5c7.66699 -10 17.167 -15 28.5 -15c20 0 30 10 30 30v55c0 6.66699 3.33301 10 10 10h15c6.66699 0 10 -3.33301 10 -10v-55c0 -20 -5.83301 -35.833 -17.5 -47.5s-27.5 -17.5 -47.5 -17.5z" />
    <glyph glyph-name="hungarumlaut" unicode="&#x2dd;" horiz-adv-x="319" 
d="M67 555c-1.33301 -2.66699 -2.83301 -5 -4.5 -7s-5.16699 -3 -10.5 -3h-15c-2.66699 0 -4.5 1 -5.5 3s-0.833008 4.33301 0.5 7l70 135c1.33301 2.66699 2.83301 5 4.5 7s5.16699 3 10.5 3h25c2.66699 0 4.5 -1 5.5 -3s0.833008 -4.33301 -0.5 -7zM207 555
c-1.33301 -2.66699 -2.83301 -5 -4.5 -7s-5.16699 -3 -10.5 -3h-15c-2.66699 0 -4.5 1 -5.5 3s-0.833008 4.33301 0.5 7l70 135c1.33301 2.66699 2.83301 5 4.5 7s5.16699 3 10.5 3h25c2.66699 0 4.5 -1 5.5 -3s0.833008 -4.33301 -0.5 -7z" />
    <glyph glyph-name="afii10023" unicode="&#x401;" horiz-adv-x="660" 
d="M155 380h355c6.66699 0 10 -3.33301 10 -10v-25c0 -6.66699 -3.33301 -10 -10 -10h-355v-290h455c6.66699 0 10 -3.33301 10 -10v-25c0 -6.66699 -3.33301 -10 -10 -10h-490c-6.66699 -0 -10 3.33301 -10 10v680c0 6.66699 3.33301 10 10 10h480
c6.66699 0 10 -3.33301 10 -10v-25c0 -6.66699 -3.33301 -10 -10 -10h-445v-275zM265 830c-6.66699 0 -10 3.33301 -10 10v30c0 6.66699 3.33301 10 10 10h30c6.66699 0 10 -3.33301 10 -10v-30c0 -6.66699 -3.33301 -10 -10 -10h-30zM430 830
c-6.66699 0 -10 3.33301 -10 10v30c0 6.66699 3.33301 10 10 10h30c6.66699 0 10 -3.33301 10 -10v-30c0 -6.66699 -3.33301 -10 -10 -10h-30z" />
    <glyph glyph-name="afii10051" unicode="&#x402;" horiz-adv-x="740" 
d="M615 255c0 40 -11 70.833 -33 92.5s-54.333 32.5 -97 32.5h-250v-370c0 -6.66699 -3.33301 -10 -10 -10h-25c-6.66699 -0 -10 3.33301 -10 10v645h-180c-6.66699 0 -10 3.33301 -10 10v25c-0 6.66699 3.33301 10 10 10h415c6.66699 0 10 -3.33301 10 -10v-25
c0 -6.66699 -3.33301 -10 -10 -10h-190v-230h250c55.333 0 98.333 -15.167 129 -45.5s46 -71.833 46 -124.5v-135c0 -48 -13.333 -85 -40 -111s-65 -39 -115 -39h-40c-6.66699 0 -10 3.33301 -10 10v25c0 6.66699 3.33301 10 10 10h40c73.333 0 110 35 110 105v135z" />
    <glyph glyph-name="afii10052" unicode="&#x403;" horiz-adv-x="565" 
d="M155 10c0 -6.66699 -3.33301 -10 -10 -10h-25c-6.66699 -0 -10 3.33301 -10 10v680c0 6.66699 3.33301 10 10 10h435c6.66699 0 10 -3.33301 10 -10v-25c0 -6.66699 -3.33301 -10 -10 -10h-400v-645zM350 800c-1.33301 -2.66699 -2.83301 -5 -4.5 -7
s-5.16699 -3 -10.5 -3h-15c-2.66699 0 -4.5 1 -5.5 3s-0.833008 4.33301 0.5 7l75 135c1.33301 2.66699 2.83301 5 4.5 7s5.16699 3 10.5 3h30c2.66699 0 4.5 -1 5.5 -3s0.833008 -4.33301 -0.5 -7z" />
    <glyph glyph-name="afii10053" unicode="&#x404;" horiz-adv-x="755" 
d="M665 160c0 -52.667 -15.333 -94.167 -46 -124.5s-73.667 -45.5 -129 -45.5h-215c-55.333 0 -98.333 15.167 -129 45.5s-46 71.833 -46 124.5v380c0 52.667 15.333 94.167 46 124.5s73.667 45.5 129 45.5h215c55.333 0 98.333 -15.167 129 -45.5s46 -71.833 46 -124.5v-35
c0 -6.66699 -3.33301 -10 -10 -10h-25c-6.66699 0 -10 3.33301 -10 10v35c0 40 -11 70.833 -33 92.5s-54.333 32.5 -97 32.5h-215c-42.667 0 -75 -10.833 -97 -32.5s-33 -52.5 -33 -92.5v-160h260c6.66699 0 10 -3.33301 10 -10v-25c0 -6.66699 -3.33301 -10 -10 -10h-260
v-175c0 -40 11 -70.833 33 -92.5s54.333 -32.5 97 -32.5h215c42.667 0 75 10.833 97 32.5s33 52.5 33 92.5v35c0 6.66699 3.33301 10 10 10h25c6.66699 0 10 -3.33301 10 -10v-35z" />
    <glyph glyph-name="afii10054" unicode="&#x405;" horiz-adv-x="695" 
d="M560 200c0 22.667 -5.83301 40.833 -17.5 54.5s-27.5 23.834 -47.5 30.501l-300 100c-28 9.33301 -50.833 24.333 -68.5 45s-26.5 47.334 -26.5 80.001v30c0 52.667 15.333 94.167 46 124.5s73.667 45.5 129 45.5h155c55.333 0 98.333 -15.167 129 -45.5
s46 -71.833 46 -124.5v-35c0 -6.66699 -3.33301 -10 -10 -10h-25c-6.66699 0 -10 3.33301 -10 10v35c0 40 -11 70.833 -33 92.5s-54.333 32.5 -97 32.5h-155c-42.667 0 -75 -10.833 -97 -32.5s-33 -52.5 -33 -92.5v-30c0 -22.667 5.83301 -40.834 17.5 -54.501
s27.5 -23.834 47.5 -30.501l300 -100c28 -9.33301 50.833 -24.333 68.5 -45s26.5 -47.334 26.5 -80.001v-39c0 -53.333 -15.333 -95.166 -46 -125.499s-73.667 -45.5 -129 -45.5h-175c-55.333 0 -98.333 15.167 -129 45.5s-46 71.833 -46 124.5v35
c0 6.66699 3.33301 10 10 10h25c6.66699 0 10 -3.33301 10 -10v-35c0 -40 11 -70.833 33 -92.5s54.333 -32.5 97 -32.5h175c42.667 0 75 10.833 97 32.5s33 52.5 33 92.5v40z" />
    <glyph glyph-name="afii10055" unicode="&#x406;" horiz-adv-x="265" 
d="M155 10c0 -6.66699 -3.33301 -10 -10 -10h-25c-6.66699 -0 -10 3.33301 -10 10v680c0 6.66699 3.33301 10 10 10h25c6.66699 0 10 -3.33301 10 -10v-680z" />
    <glyph glyph-name="afii10056" unicode="&#x407;" horiz-adv-x="265" 
d="M155 10c0 -6.66699 -3.33301 -10 -10 -10h-25c-6.66699 -0 -10 3.33301 -10 10v680c0 6.66699 3.33301 10 10 10h25c6.66699 0 10 -3.33301 10 -10v-680zM66 870c6.66699 0 10 -3.33301 10 -10v-30c0 -6.66699 -3.33301 -10 -10 -10h-30c-6.66699 0 -10 3.33301 -10 10
v30c0 6.66699 3.33301 10 10 10h30zM231 870c6.66699 0 10 -3.33301 10 -10v-30c0 -6.66699 -3.33301 -10 -10 -10h-30c-6.66699 0 -10 3.33301 -10 10v30c0 6.66699 3.33301 10 10 10h30z" />
    <glyph glyph-name="afii10057" unicode="&#x408;" horiz-adv-x="670" 
d="M560 160c0 -52.667 -15.333 -94.167 -46 -124.5s-73.667 -45.5 -129 -45.5h-140c-55.333 0 -98.333 15.167 -129 45.5s-46 71.833 -46 124.5v50c0 6.66699 3.33301 10 10 10h25c6.66699 0 10 -3.33301 10 -10v-50c0 -40 11 -70.833 33 -92.5s54.333 -32.5 97 -32.5h140
c42.667 0 75 10.833 97 32.5s33 52.5 33 92.5v530c0 6.66699 3.33301 10 10 10h25c6.66699 0 10 -3.33301 10 -10v-530z" />
    </font>
</defs>
</svg>
